<ttFont>
    <TTGlyph name="A" xMin="-16" yMin="-29" xMax="1217" yMax="1442">
      <contour>
        <pt x="1217" y="-12" on="1"/>
        <pt x="1155" y="-4" on="0"/>
        <pt x="1040" y="2" on="0"/>
        <pt x="981" y="2" on="1"/>
        <pt x="822" y="2" on="0"/>
        <pt x="655" y="-29" on="1"/>
        <pt x="661" y="-5" on="0"/>
        <pt x="676" y="32" on="0"/>
        <pt x="688" y="77" on="0"/>
        <pt x="696" y="137" on="0"/>
        <pt x="696" y="184" on="1"/>
        <pt x="696" y="232" on="0"/>
        <pt x="682" y="319" on="0"/>
        <pt x="654" y="386" on="0"/>
        <pt x="613" y="426" on="0"/>
        <pt x="586" y="426" on="1"/>
        <pt x="556" y="426" on="0"/>
        <pt x="515" y="390" on="0"/>
        <pt x="490" y="328" on="0"/>
        <pt x="479" y="248" on="0"/>
        <pt x="479" y="203" on="1"/>
        <pt x="479" y="158" on="0"/>
        <pt x="490" y="93" on="0"/>
        <pt x="505" y="45" on="0"/>
        <pt x="519" y="8" on="0"/>
        <pt x="522" y="-10" on="1"/>
        <pt x="453" y="-2" on="0"/>
        <pt x="320" y="6" on="0"/>
        <pt x="254" y="6" on="1"/>
        <pt x="188" y="6" on="0"/>
        <pt x="55" y="-2" on="0"/>
        <pt x="-16" y="-10" on="1"/>
        <pt x="46" y="170" on="0"/>
        <pt x="139" y="524" on="0"/>
        <pt x="205" y="882" on="0"/>
        <pt x="246" y="1248" on="0"/>
        <pt x="256" y="1440" on="1"/>
        <pt x="330" y="1430" on="0"/>
        <pt x="507" y="1421" on="0"/>
        <pt x="600" y="1421" on="1"/>
        <pt x="679" y="1421" on="0"/>
        <pt x="828" y="1429" on="0"/>
        <pt x="891" y="1442" on="1"/>
        <pt x="898" y="1251" on="0"/>
        <pt x="956" y="881" on="0"/>
        <pt x="1043" y="518" on="0"/>
        <pt x="1155" y="163" on="0"/>
      </contour>
      <contour>
        <pt x="657" y="764" on="1"/>
        <pt x="655" y="783" on="0"/>
        <pt x="645" y="820" on="1"/>
        <pt x="636" y="852" on="0"/>
        <pt x="600" y="957" on="0"/>
        <pt x="565" y="1040" on="1"/>
        <pt x="557" y="988" on="0"/>
        <pt x="537" y="907" on="0"/>
        <pt x="519" y="842" on="0"/>
        <pt x="506" y="788" on="0"/>
        <pt x="506" y="764" on="1"/>
        <pt x="506" y="714" on="0"/>
        <pt x="553" y="659" on="0"/>
        <pt x="582" y="659" on="1"/>
        <pt x="613" y="659" on="0"/>
        <pt x="655" y="719" on="0"/>
      </contour>
    </TTGlyph>
    <TTGlyph name="AE" xMin="-53" yMin="-29" xMax="1573" yMax="1464">
      <contour>
        <pt x="659" y="659" on="1"/>
        <pt x="676" y="659" on="0"/>
        <pt x="710" y="680" on="0"/>
        <pt x="737" y="713" on="0"/>
        <pt x="754" y="756" on="0"/>
        <pt x="754" y="778" on="1"/>
        <pt x="754" y="789" on="0"/>
        <pt x="751" y="829" on="0"/>
        <pt x="742" y="892" on="0"/>
        <pt x="724" y="980" on="0"/>
        <pt x="709" y="1040" on="1"/>
        <pt x="690" y="980" on="0"/>
        <pt x="651" y="892" on="0"/>
        <pt x="620" y="821" on="0"/>
        <pt x="600" y="763" on="0"/>
        <pt x="600" y="735" on="1"/>
        <pt x="600" y="698" on="0"/>
        <pt x="635" y="659" on="0"/>
      </contour>
      <contour>
        <pt x="1573" y="-14" on="1"/>
        <pt x="1550" y="-11" on="0"/>
        <pt x="1460" y="-5" on="0"/>
        <pt x="1338" y="-1" on="0"/>
        <pt x="1193" y="2" on="0"/>
        <pt x="1116" y="2" on="1"/>
        <pt x="1045" y="2" on="0"/>
        <pt x="904" y="-1" on="0"/>
        <pt x="772" y="-9" on="0"/>
        <pt x="657" y="-20" on="0"/>
        <pt x="612" y="-29" on="1"/>
        <pt x="628" y="-16" on="0"/>
        <pt x="660" y="50" on="0"/>
        <pt x="685" y="137" on="0"/>
        <pt x="700" y="234" on="0"/>
        <pt x="700" y="279" on="1"/>
        <pt x="700" y="309" on="0"/>
        <pt x="692" y="363" on="0"/>
        <pt x="674" y="403" on="0"/>
        <pt x="644" y="426" on="0"/>
        <pt x="623" y="426" on="1"/>
        <pt x="588" y="426" on="0"/>
        <pt x="531" y="371" on="0"/>
        <pt x="491" y="283" on="0"/>
        <pt x="469" y="173" on="0"/>
        <pt x="469" y="119" on="1"/>
        <pt x="469" y="96" on="0"/>
        <pt x="473" y="59" on="0"/>
        <pt x="479" y="29" on="0"/>
        <pt x="483" y="3" on="0"/>
        <pt x="483" y="-10" on="1"/>
        <pt x="415" y="-2" on="0"/>
        <pt x="283" y="6" on="0"/>
        <pt x="217" y="6" on="1"/>
        <pt x="151" y="6" on="0"/>
        <pt x="18" y="-2" on="0"/>
        <pt x="-53" y="-10" on="1"/>
        <pt x="40" y="170" on="0"/>
        <pt x="194" y="524" on="0"/>
        <pt x="322" y="882" on="0"/>
        <pt x="426" y="1248" on="0"/>
        <pt x="469" y="1440" on="1"/>
        <pt x="580" y="1434" on="0"/>
        <pt x="789" y="1425" on="0"/>
        <pt x="891" y="1425" on="1"/>
        <pt x="1050" y="1425" on="0"/>
        <pt x="1366" y="1444" on="0"/>
        <pt x="1540" y="1464" on="1"/>
        <pt x="1540" y="995" on="1"/>
        <pt x="1482" y="1049" on="0"/>
        <pt x="1376" y="1107" on="0"/>
        <pt x="1335" y="1121" on="1"/>
        <pt x="1287" y="1137" on="0"/>
        <pt x="1245" y="1139" on="1"/>
        <pt x="1195" y="1139" on="0"/>
        <pt x="1133" y="1114" on="0"/>
        <pt x="1098" y="1075" on="0"/>
        <pt x="1085" y="1026" on="0"/>
        <pt x="1085" y="1001" on="1"/>
        <pt x="1085" y="975" on="0"/>
        <pt x="1100" y="923" on="0"/>
        <pt x="1133" y="881" on="0"/>
        <pt x="1183" y="854" on="0"/>
        <pt x="1219" y="854" on="1"/>
        <pt x="1246" y="854" on="0"/>
        <pt x="1291" y="879" on="0"/>
        <pt x="1326" y="909" on="0"/>
        <pt x="1347" y="937" on="0"/>
        <pt x="1350" y="940" on="1"/>
        <pt x="1350" y="535" on="1"/>
        <pt x="1334" y="573" on="0"/>
        <pt x="1291" y="617" on="0"/>
        <pt x="1250" y="638" on="0"/>
        <pt x="1216" y="643" on="0"/>
        <pt x="1210" y="643" on="1"/>
        <pt x="1177" y="643" on="0"/>
        <pt x="1129" y="618" on="0"/>
        <pt x="1098" y="578" on="0"/>
        <pt x="1083" y="525" on="0"/>
        <pt x="1083" y="498" on="1"/>
        <pt x="1083" y="467" on="0"/>
        <pt x="1100" y="408" on="0"/>
        <pt x="1132" y="361" on="0"/>
        <pt x="1179" y="332" on="0"/>
        <pt x="1210" y="332" on="1"/>
        <pt x="1251" y="332" on="0"/>
        <pt x="1342" y="368" on="0"/>
        <pt x="1428" y="428" on="0"/>
        <pt x="1499" y="505" on="0"/>
        <pt x="1520" y="545" on="1"/>
      </contour>
    </TTGlyph>
    <TTGlyph name="AEacute" xMin="-53" yMin="-29" xMax="1573" yMax="1980">
      <component glyphName="AE" x="0" y="0" flags="0x204"/>
      <component glyphName="acute" x="782" y="211" flags="0x4"/>
    </TTGlyph>
    <TTGlyph name="Aacute" xMin="-16" yMin="-29" xMax="1217" yMax="1998">
      <component glyphName="A" x="0" y="0" flags="0x204"/>
      <component glyphName="acute" x="469" y="229" flags="0x4"/>
    </TTGlyph>
    <TTGlyph name="Abreve" xMin="-16" yMin="-29" xMax="1217" yMax="1893">
      <component glyphName="A" x="0" y="0" flags="0x204"/>
      <component glyphName="breve" x="248" y="162" flags="0x4"/>
    </TTGlyph>
    <TTGlyph name="Acircumflex" xMin="-16" yMin="-29" xMax="1217" yMax="1931">
      <component glyphName="A" x="0" y="0" flags="0x204"/>
      <component glyphName="circumflex" x="258" y="164" flags="0x4"/>
    </TTGlyph>
    <TTGlyph name="Adieresis" xMin="-16" yMin="-29" xMax="1217" yMax="1839">
      <component glyphName="A" x="0" y="0" flags="0x204"/>
      <component glyphName="dieresis" x="236" y="182" flags="0x4"/>
    </TTGlyph>
    <TTGlyph name="Agrave" xMin="-16" yMin="-29" xMax="1217" yMax="2007">
      <component glyphName="A" x="0" y="0" flags="0x204"/>
      <component glyphName="grave" x="166" y="238" flags="0x4"/>
    </TTGlyph>
    <TTGlyph name="Amacron" xMin="-16" yMin="-29" xMax="1217" yMax="1745">
      <component glyphName="A" x="0" y="0" flags="0x204"/>
      <component glyphName="macron" x="270" y="184" flags="0x4"/>
    </TTGlyph>
    <TTGlyph name="Aogonek" xMin="-16" yMin="-391" xMax="1217" yMax="1442">
      <contour>
        <pt x="1217" y="-295" on="1"/>
        <pt x="1195" y="-297" on="0"/>
        <pt x="1143" y="-327" on="0"/>
        <pt x="1082" y="-362" on="0"/>
        <pt x="1013" y="-391" on="0"/>
        <pt x="975" y="-391" on="1"/>
        <pt x="938" y="-391" on="0"/>
        <pt x="877" y="-362" on="0"/>
        <pt x="832" y="-312" on="0"/>
        <pt x="807" y="-247" on="0"/>
        <pt x="807" y="-211" on="1"/>
        <pt x="807" y="-191" on="0"/>
        <pt x="824" y="-139" on="0"/>
        <pt x="851" y="-83" on="0"/>
        <pt x="885" y="-26" on="0"/>
        <pt x="903" y="0" on="1"/>
        <pt x="841" y="-3" on="0"/>
        <pt x="718" y="-16" on="0"/>
        <pt x="655" y="-29" on="1"/>
        <pt x="661" y="-5" on="0"/>
        <pt x="676" y="32" on="0"/>
        <pt x="688" y="77" on="0"/>
        <pt x="696" y="137" on="0"/>
        <pt x="696" y="184" on="1"/>
        <pt x="696" y="232" on="0"/>
        <pt x="682" y="319" on="0"/>
        <pt x="654" y="386" on="0"/>
        <pt x="613" y="426" on="0"/>
        <pt x="586" y="426" on="1"/>
        <pt x="556" y="426" on="0"/>
        <pt x="515" y="390" on="0"/>
        <pt x="490" y="328" on="0"/>
        <pt x="479" y="248" on="0"/>
        <pt x="479" y="203" on="1"/>
        <pt x="479" y="158" on="0"/>
        <pt x="490" y="93" on="0"/>
        <pt x="505" y="45" on="0"/>
        <pt x="519" y="8" on="0"/>
        <pt x="522" y="-10" on="1"/>
        <pt x="453" y="-2" on="0"/>
        <pt x="320" y="6" on="0"/>
        <pt x="254" y="6" on="1"/>
        <pt x="188" y="6" on="0"/>
        <pt x="55" y="-2" on="0"/>
        <pt x="-16" y="-10" on="1"/>
        <pt x="46" y="170" on="0"/>
        <pt x="139" y="524" on="0"/>
        <pt x="205" y="882" on="0"/>
        <pt x="246" y="1248" on="0"/>
        <pt x="256" y="1440" on="1"/>
        <pt x="330" y="1430" on="0"/>
        <pt x="507" y="1421" on="0"/>
        <pt x="600" y="1421" on="1"/>
        <pt x="679" y="1421" on="0"/>
        <pt x="828" y="1429" on="0"/>
        <pt x="891" y="1442" on="1"/>
        <pt x="898" y="1251" on="0"/>
        <pt x="956" y="881" on="0"/>
        <pt x="1043" y="518" on="0"/>
        <pt x="1155" y="163" on="0"/>
        <pt x="1217" y="-12" on="1"/>
        <pt x="1166" y="-6" on="0"/>
        <pt x="1072" y="0" on="0"/>
        <pt x="1024" y="2" on="1"/>
        <pt x="1011" y="-20" on="0"/>
        <pt x="984" y="-71" on="0"/>
        <pt x="963" y="-120" on="0"/>
        <pt x="950" y="-162" on="0"/>
        <pt x="950" y="-176" on="1"/>
        <pt x="950" y="-198" on="0"/>
        <pt x="977" y="-219" on="0"/>
        <pt x="997" y="-219" on="1"/>
        <pt x="1015" y="-219" on="0"/>
        <pt x="1044" y="-199" on="0"/>
        <pt x="1067" y="-170" on="0"/>
        <pt x="1084" y="-137" on="0"/>
        <pt x="1090" y="-123" on="1"/>
        <pt x="1098" y="-146" on="0"/>
        <pt x="1124" y="-195" on="0"/>
        <pt x="1157" y="-241" on="0"/>
        <pt x="1196" y="-281" on="0"/>
      </contour>
      <contour>
        <pt x="657" y="764" on="1"/>
        <pt x="655" y="783" on="0"/>
        <pt x="645" y="820" on="1"/>
        <pt x="636" y="852" on="0"/>
        <pt x="600" y="957" on="0"/>
        <pt x="565" y="1040" on="1"/>
        <pt x="557" y="988" on="0"/>
        <pt x="537" y="907" on="0"/>
        <pt x="519" y="842" on="0"/>
        <pt x="506" y="788" on="0"/>
        <pt x="506" y="764" on="1"/>
        <pt x="506" y="714" on="0"/>
        <pt x="553" y="659" on="0"/>
        <pt x="582" y="659" on="1"/>
        <pt x="613" y="659" on="0"/>
        <pt x="655" y="719" on="0"/>
      </contour>
    </TTGlyph>
    <TTGlyph name="Aring" xMin="-16" yMin="-29" xMax="1217" yMax="1774">
      <contour>
        <pt x="817" y="1534" on="1"/>
        <pt x="817" y="1511" on="0"/>
        <pt x="810" y="1456" on="0"/>
        <pt x="799" y="1430" on="1"/>
        <pt x="848" y="1433" on="0"/>
        <pt x="891" y="1442" on="1"/>
        <pt x="898" y="1251" on="0"/>
        <pt x="956" y="881" on="0"/>
        <pt x="1043" y="518" on="0"/>
        <pt x="1155" y="163" on="0"/>
        <pt x="1217" y="-12" on="1"/>
        <pt x="1155" y="-4" on="0"/>
        <pt x="1040" y="2" on="0"/>
        <pt x="981" y="2" on="1"/>
        <pt x="822" y="2" on="0"/>
        <pt x="655" y="-29" on="1"/>
        <pt x="661" y="-5" on="0"/>
        <pt x="676" y="32" on="0"/>
        <pt x="688" y="77" on="0"/>
        <pt x="696" y="137" on="0"/>
        <pt x="696" y="184" on="1"/>
        <pt x="696" y="232" on="0"/>
        <pt x="682" y="319" on="0"/>
        <pt x="654" y="386" on="0"/>
        <pt x="613" y="426" on="0"/>
        <pt x="586" y="426" on="1"/>
        <pt x="556" y="426" on="0"/>
        <pt x="515" y="390" on="0"/>
        <pt x="490" y="328" on="0"/>
        <pt x="479" y="248" on="0"/>
        <pt x="479" y="203" on="1"/>
        <pt x="479" y="158" on="0"/>
        <pt x="490" y="93" on="0"/>
        <pt x="505" y="45" on="0"/>
        <pt x="519" y="8" on="0"/>
        <pt x="522" y="-10" on="1"/>
        <pt x="453" y="-2" on="0"/>
        <pt x="320" y="6" on="0"/>
        <pt x="254" y="6" on="1"/>
        <pt x="188" y="6" on="0"/>
        <pt x="55" y="-2" on="0"/>
        <pt x="-16" y="-10" on="1"/>
        <pt x="46" y="170" on="0"/>
        <pt x="139" y="524" on="0"/>
        <pt x="205" y="882" on="0"/>
        <pt x="246" y="1248" on="0"/>
        <pt x="256" y="1440" on="1"/>
        <pt x="276" y="1437" on="0"/>
        <pt x="321" y="1432" on="0"/>
        <pt x="346" y="1430" on="1"/>
        <pt x="337" y="1456" on="0"/>
        <pt x="332" y="1509" on="0"/>
        <pt x="332" y="1534" on="1"/>
        <pt x="332" y="1569" on="0"/>
        <pt x="350" y="1653" on="0"/>
        <pt x="402" y="1725" on="0"/>
        <pt x="496" y="1774" on="0"/>
        <pt x="573" y="1774" on="1"/>
        <pt x="651" y="1774" on="0"/>
        <pt x="746" y="1725" on="0"/>
        <pt x="799" y="1653" on="0"/>
        <pt x="817" y="1569" on="0"/>
      </contour>
      <contour>
        <pt x="657" y="764" on="1"/>
        <pt x="655" y="783" on="0"/>
        <pt x="645" y="820" on="1"/>
        <pt x="636" y="852" on="0"/>
        <pt x="600" y="957" on="0"/>
        <pt x="565" y="1040" on="1"/>
        <pt x="557" y="988" on="0"/>
        <pt x="537" y="907" on="0"/>
        <pt x="519" y="842" on="0"/>
        <pt x="506" y="788" on="0"/>
        <pt x="506" y="764" on="1"/>
        <pt x="506" y="714" on="0"/>
        <pt x="553" y="659" on="0"/>
        <pt x="582" y="659" on="1"/>
        <pt x="613" y="659" on="0"/>
        <pt x="655" y="719" on="0"/>
      </contour>
      <contour>
        <pt x="664" y="1540" on="1"/>
        <pt x="664" y="1553" on="0"/>
        <pt x="658" y="1584" on="0"/>
        <pt x="640" y="1610" on="0"/>
        <pt x="607" y="1628" on="0"/>
        <pt x="580" y="1628" on="1"/>
        <pt x="553" y="1628" on="0"/>
        <pt x="519" y="1610" on="0"/>
        <pt x="501" y="1584" on="0"/>
        <pt x="494" y="1553" on="0"/>
        <pt x="494" y="1540" on="1"/>
        <pt x="494" y="1526" on="0"/>
        <pt x="499" y="1495" on="0"/>
        <pt x="517" y="1469" on="0"/>
        <pt x="551" y="1452" on="0"/>
        <pt x="580" y="1452" on="1"/>
        <pt x="605" y="1452" on="0"/>
        <pt x="638" y="1470" on="0"/>
        <pt x="657" y="1496" on="0"/>
        <pt x="664" y="1527" on="0"/>
      </contour>
    </TTGlyph>
    <TTGlyph name="Atilde" xMin="-16" yMin="-29" xMax="1217" yMax="1850">
      <component glyphName="A" x="0" y="0" flags="0x204"/>
      <component glyphName="tilde" x="193" y="195" flags="0x4"/>
    </TTGlyph>
    <TTGlyph name="B" xMin="6" yMin="-29" xMax="1153" yMax="1458">
      <contour>
        <pt x="1153" y="389" on="1"/>
        <pt x="1153" y="278" on="0"/>
        <pt x="1060" y="122" on="0"/>
        <pt x="906" y="23" on="0"/>
        <pt x="707" y="-25" on="0"/>
        <pt x="602" y="-29" on="1"/>
        <pt x="535" y="-27" on="0"/>
        <pt x="474" y="-24" on="1"/>
        <pt x="448" y="-23" on="0"/>
        <pt x="394" y="-22" on="0"/>
        <pt x="343" y="-20" on="0"/>
        <pt x="297" y="-20" on="0"/>
        <pt x="281" y="-20" on="1"/>
        <pt x="215" y="-22" on="0"/>
        <pt x="74" y="-24" on="0"/>
        <pt x="6" y="-29" on="1"/>
        <pt x="51" y="32" on="0"/>
        <pt x="107" y="222" on="0"/>
        <pt x="140" y="442" on="0"/>
        <pt x="152" y="673" on="0"/>
        <pt x="152" y="774" on="1"/>
        <pt x="152" y="817" on="0"/>
        <pt x="149" y="940" on="0"/>
        <pt x="141" y="1079" on="0"/>
        <pt x="127" y="1221" on="0"/>
        <pt x="102" y="1344" on="0"/>
        <pt x="66" y="1438" on="0"/>
        <pt x="41" y="1458" on="1"/>
        <pt x="113" y="1447" on="0"/>
        <pt x="249" y="1440" on="0"/>
        <pt x="297" y="1440" on="1"/>
        <pt x="339" y="1440" on="0"/>
        <pt x="405" y="1443" on="0"/>
        <pt x="469" y="1447" on="0"/>
        <pt x="537" y="1450" on="0"/>
        <pt x="580" y="1450" on="1"/>
        <pt x="646" y="1449" on="0"/>
        <pt x="779" y="1436" on="0"/>
        <pt x="900" y="1404" on="0"/>
        <pt x="1006" y="1349" on="0"/>
        <pt x="1083" y="1261" on="0"/>
        <pt x="1128" y="1137" on="0"/>
        <pt x="1128" y="1053" on="1"/>
        <pt x="1128" y="1008" on="0"/>
        <pt x="1105" y="918" on="0"/>
        <pt x="1054" y="832" on="0"/>
        <pt x="971" y="753" on="0"/>
        <pt x="911" y="719" on="1"/>
        <pt x="1039" y="666" on="0"/>
        <pt x="1153" y="501" on="0"/>
      </contour>
      <contour>
        <pt x="557" y="840" on="1"/>
        <pt x="577" y="855" on="0"/>
        <pt x="631" y="906" on="0"/>
        <pt x="679" y="967" on="0"/>
        <pt x="713" y="1033" on="0"/>
        <pt x="713" y="1063" on="1"/>
        <pt x="713" y="1095" on="0"/>
        <pt x="676" y="1135" on="0"/>
        <pt x="653" y="1135" on="1"/>
        <pt x="621" y="1135" on="0"/>
        <pt x="583" y="1077" on="0"/>
        <pt x="562" y="998" on="0"/>
        <pt x="555" y="917" on="0"/>
        <pt x="555" y="893" on="1"/>
        <pt x="555" y="881" on="0"/>
        <pt x="555" y="854" on="0"/>
      </contour>
      <contour>
        <pt x="694" y="342" on="1"/>
        <pt x="694" y="378" on="0"/>
        <pt x="672" y="451" on="0"/>
        <pt x="635" y="522" on="0"/>
        <pt x="588" y="588" on="0"/>
        <pt x="563" y="618" on="1"/>
        <pt x="548" y="573" on="0"/>
        <pt x="539" y="486" on="0"/>
        <pt x="539" y="451" on="1"/>
        <pt x="539" y="399" on="0"/>
        <pt x="553" y="330" on="0"/>
        <pt x="578" y="288" on="0"/>
        <pt x="612" y="270" on="0"/>
        <pt x="633" y="270" on="1"/>
        <pt x="658" y="270" on="0"/>
        <pt x="694" y="307" on="0"/>
      </contour>
    </TTGlyph>
    <TTGlyph name="C" xMin="39" yMin="-51" xMax="1126" yMax="1483">
      <contour>
        <pt x="1126" y="1059" on="1"/>
        <pt x="1126" y="1008" on="0"/>
        <pt x="1090" y="903" on="0"/>
        <pt x="1023" y="818" on="0"/>
        <pt x="927" y="764" on="0"/>
        <pt x="866" y="764" on="1"/>
        <pt x="812" y="764" on="0"/>
        <pt x="735" y="801" on="0"/>
        <pt x="686" y="863" on="0"/>
        <pt x="662" y="941" on="0"/>
        <pt x="662" y="983" on="1"/>
        <pt x="662" y="1025" on="0"/>
        <pt x="683" y="1104" on="0"/>
        <pt x="705" y="1135" on="1"/>
        <pt x="711" y="1114" on="0"/>
        <pt x="731" y="1091" on="0"/>
        <pt x="742" y="1086" on="1"/>
        <pt x="754" y="1080" on="0"/>
        <pt x="768" y="1079" on="1"/>
        <pt x="800" y="1079" on="0"/>
        <pt x="827" y="1113" on="0"/>
        <pt x="827" y="1135" on="1"/>
        <pt x="827" y="1145" on="0"/>
        <pt x="819" y="1166" on="0"/>
        <pt x="802" y="1184" on="0"/>
        <pt x="774" y="1196" on="0"/>
        <pt x="754" y="1196" on="1"/>
        <pt x="743" y="1196" on="0"/>
        <pt x="702" y="1190" on="0"/>
        <pt x="652" y="1165" on="0"/>
        <pt x="600" y="1115" on="0"/>
        <pt x="557" y="1029" on="0"/>
        <pt x="530" y="901" on="0"/>
        <pt x="530" y="809" on="1"/>
        <pt x="530" y="746" on="0"/>
        <pt x="555" y="653" on="0"/>
        <pt x="595" y="587" on="0"/>
        <pt x="647" y="545" on="0"/>
        <pt x="701" y="521" on="0"/>
        <pt x="752" y="512" on="0"/>
        <pt x="772" y="512" on="1"/>
        <pt x="798" y="512" on="0"/>
        <pt x="877" y="531" on="0"/>
        <pt x="955" y="581" on="0"/>
        <pt x="1018" y="669" on="0"/>
        <pt x="1030" y="739" on="1"/>
        <pt x="1065" y="690" on="0"/>
        <pt x="1102" y="554" on="0"/>
        <pt x="1102" y="479" on="1"/>
        <pt x="1102" y="377" on="0"/>
        <pt x="1029" y="186" on="0"/>
        <pt x="894" y="38" on="0"/>
        <pt x="702" y="-51" on="0"/>
        <pt x="584" y="-51" on="1"/>
        <pt x="497" y="-51" on="0"/>
        <pt x="349" y="4" on="0"/>
        <pt x="227" y="102" on="0"/>
        <pt x="135" y="235" on="0"/>
        <pt x="71" y="391" on="0"/>
        <pt x="39" y="564" on="0"/>
        <pt x="39" y="653" on="1"/>
        <pt x="39" y="751" on="0"/>
        <pt x="81" y="950" on="0"/>
        <pt x="160" y="1134" on="0"/>
        <pt x="273" y="1295" on="0"/>
        <pt x="417" y="1414" on="0"/>
        <pt x="589" y="1483" on="0"/>
        <pt x="686" y="1483" on="1"/>
        <pt x="774" y="1483" on="0"/>
        <pt x="908" y="1442" on="0"/>
        <pt x="1005" y="1373" on="0"/>
        <pt x="1071" y="1285" on="0"/>
        <pt x="1110" y="1191" on="0"/>
        <pt x="1126" y="1098" on="0"/>
      </contour>
    </TTGlyph>
    <TTGlyph name="Cacute" xMin="39" yMin="-51" xMax="1126" yMax="2041">
      <component glyphName="C" x="0" y="0" flags="0x204"/>
      <component glyphName="acute" x="575" y="272" flags="0x4"/>
    </TTGlyph>
    <TTGlyph name="Ccaron" xMin="39" yMin="-51" xMax="1126" yMax="1980">
      <component glyphName="C" x="0" y="0" flags="0x204"/>
      <component glyphName="caron" x="324" y="213" flags="0x4"/>
    </TTGlyph>
    <TTGlyph name="Ccedilla" xMin="39" yMin="-446" xMax="1126" yMax="1483">
      <contour>
        <pt x="750" y="-258" on="1"/>
        <pt x="750" y="-327" on="0"/>
        <pt x="686" y="-403" on="0"/>
        <pt x="588" y="-439" on="0"/>
        <pt x="471" y="-446" on="0"/>
        <pt x="418" y="-446" on="1"/>
        <pt x="423" y="-425" on="0"/>
        <pt x="428" y="-381" on="0"/>
        <pt x="428" y="-356" on="1"/>
        <pt x="428" y="-338" on="0"/>
        <pt x="424" y="-298" on="0"/>
        <pt x="418" y="-281" on="1"/>
        <pt x="424" y="-287" on="0"/>
        <pt x="451" y="-297" on="0"/>
        <pt x="481" y="-303" on="0"/>
        <pt x="510" y="-307" on="0"/>
        <pt x="518" y="-307" on="1"/>
        <pt x="546" y="-307" on="0"/>
        <pt x="590" y="-282" on="0"/>
        <pt x="590" y="-250" on="1"/>
        <pt x="590" y="-234" on="0"/>
        <pt x="574" y="-211" on="0"/>
        <pt x="548" y="-197" on="0"/>
        <pt x="518" y="-190" on="0"/>
        <pt x="504" y="-190" on="1"/>
        <pt x="487" y="-190" on="0"/>
        <pt x="451" y="-195" on="0"/>
        <pt x="434" y="-201" on="1"/>
        <pt x="492" y="-43" on="1"/>
        <pt x="383" y="-22" on="0"/>
        <pt x="214" y="111" on="0"/>
        <pt x="99" y="302" on="0"/>
        <pt x="39" y="536" on="0"/>
        <pt x="39" y="657" on="1"/>
        <pt x="39" y="754" on="0"/>
        <pt x="81" y="953" on="0"/>
        <pt x="160" y="1136" on="0"/>
        <pt x="273" y="1296" on="0"/>
        <pt x="417" y="1415" on="0"/>
        <pt x="589" y="1483" on="0"/>
        <pt x="686" y="1483" on="1"/>
        <pt x="774" y="1483" on="0"/>
        <pt x="908" y="1442" on="0"/>
        <pt x="1005" y="1373" on="0"/>
        <pt x="1071" y="1285" on="0"/>
        <pt x="1110" y="1191" on="0"/>
        <pt x="1126" y="1098" on="0"/>
        <pt x="1126" y="1059" on="1"/>
        <pt x="1126" y="1010" on="0"/>
        <pt x="1092" y="905" on="0"/>
        <pt x="1026" y="819" on="0"/>
        <pt x="929" y="764" on="0"/>
        <pt x="866" y="764" on="1"/>
        <pt x="812" y="764" on="0"/>
        <pt x="735" y="801" on="0"/>
        <pt x="686" y="863" on="0"/>
        <pt x="662" y="941" on="0"/>
        <pt x="662" y="983" on="1"/>
        <pt x="662" y="1025" on="0"/>
        <pt x="683" y="1104" on="0"/>
        <pt x="705" y="1135" on="1"/>
        <pt x="711" y="1114" on="0"/>
        <pt x="731" y="1091" on="0"/>
        <pt x="742" y="1086" on="1"/>
        <pt x="754" y="1080" on="0"/>
        <pt x="768" y="1079" on="1"/>
        <pt x="800" y="1079" on="0"/>
        <pt x="827" y="1113" on="0"/>
        <pt x="827" y="1135" on="1"/>
        <pt x="827" y="1145" on="0"/>
        <pt x="819" y="1166" on="0"/>
        <pt x="802" y="1184" on="0"/>
        <pt x="774" y="1196" on="0"/>
        <pt x="754" y="1196" on="1"/>
        <pt x="743" y="1196" on="0"/>
        <pt x="702" y="1190" on="0"/>
        <pt x="652" y="1165" on="0"/>
        <pt x="600" y="1115" on="0"/>
        <pt x="557" y="1029" on="0"/>
        <pt x="530" y="901" on="0"/>
        <pt x="530" y="809" on="1"/>
        <pt x="530" y="746" on="0"/>
        <pt x="555" y="653" on="0"/>
        <pt x="595" y="587" on="0"/>
        <pt x="647" y="545" on="0"/>
        <pt x="701" y="521" on="0"/>
        <pt x="752" y="512" on="0"/>
        <pt x="772" y="512" on="1"/>
        <pt x="798" y="512" on="0"/>
        <pt x="877" y="531" on="0"/>
        <pt x="955" y="581" on="0"/>
        <pt x="1018" y="669" on="0"/>
        <pt x="1030" y="739" on="1"/>
        <pt x="1065" y="690" on="0"/>
        <pt x="1102" y="554" on="0"/>
        <pt x="1102" y="479" on="1"/>
        <pt x="1102" y="373" on="0"/>
        <pt x="1033" y="189" on="0"/>
        <pt x="902" y="48" on="0"/>
        <pt x="715" y="-40" on="0"/>
        <pt x="598" y="-49" on="1"/>
        <pt x="586" y="-94" on="1"/>
        <pt x="623" y="-94" on="0"/>
        <pt x="683" y="-118" on="0"/>
        <pt x="726" y="-162" on="0"/>
        <pt x="750" y="-222" on="0"/>
      </contour>
    </TTGlyph>
    <TTGlyph name="Ccircumflex" xMin="39" yMin="-51" xMax="1126" yMax="1988">
      <component glyphName="C" x="0" y="0" flags="0x204"/>
      <component glyphName="circumflex" x="309" y="221" flags="0x4"/>
    </TTGlyph>
    <TTGlyph name="Cdotaccent" xMin="39" yMin="-51" xMax="1126" yMax="1882">
      <component glyphName="C" x="0" y="0" flags="0x204"/>
      <component glyphName="dotaccent" x="446" y="225" flags="0x4"/>
    </TTGlyph>
    <TTGlyph name="D" xMin="14" yMin="-23" xMax="1237" yMax="1464">
      <contour>
        <pt x="1237" y="709" on="1"/>
        <pt x="1237" y="546" on="0"/>
        <pt x="1165" y="312" on="0"/>
        <pt x="1047" y="149" on="0"/>
        <pt x="897" y="50" on="0"/>
        <pt x="742" y="-5" on="0"/>
        <pt x="594" y="-23" on="0"/>
        <pt x="537" y="-23" on="1"/>
        <pt x="440" y="-23" on="0"/>
        <pt x="303" y="-10" on="0"/>
        <pt x="258" y="-10" on="1"/>
        <pt x="207" y="-10" on="0"/>
        <pt x="83" y="-14" on="0"/>
        <pt x="14" y="-20" on="1"/>
        <pt x="41" y="29" on="0"/>
        <pt x="82" y="150" on="0"/>
        <pt x="112" y="282" on="0"/>
        <pt x="133" y="417" on="0"/>
        <pt x="140" y="480" on="1"/>
        <pt x="156" y="628" on="0"/>
        <pt x="158" y="784" on="1"/>
        <pt x="156" y="939" on="0"/>
        <pt x="143" y="1075" on="1"/>
        <pt x="137" y="1133" on="0"/>
        <pt x="120" y="1250" on="0"/>
        <pt x="96" y="1355" on="0"/>
        <pt x="63" y="1439" on="0"/>
        <pt x="41" y="1464" on="1"/>
        <pt x="115" y="1452" on="0"/>
        <pt x="248" y="1444" on="0"/>
        <pt x="299" y="1444" on="1"/>
        <pt x="332" y="1444" on="0"/>
        <pt x="394" y="1448" on="0"/>
        <pt x="460" y="1452" on="0"/>
        <pt x="535" y="1456" on="0"/>
        <pt x="582" y="1456" on="1"/>
        <pt x="650" y="1456" on="0"/>
        <pt x="801" y="1437" on="0"/>
        <pt x="946" y="1381" on="0"/>
        <pt x="1078" y="1279" on="0"/>
        <pt x="1178" y="1113" on="0"/>
        <pt x="1237" y="874" on="0"/>
      </contour>
      <contour>
        <pt x="748" y="731" on="1"/>
        <pt x="748" y="848" on="0"/>
        <pt x="734" y="1004" on="0"/>
        <pt x="707" y="1099" on="0"/>
        <pt x="667" y="1139" on="0"/>
        <pt x="641" y="1139" on="1"/>
        <pt x="618" y="1139" on="0"/>
        <pt x="581" y="1092" on="0"/>
        <pt x="555" y="988" on="0"/>
        <pt x="541" y="825" on="0"/>
        <pt x="541" y="709" on="1"/>
        <pt x="541" y="587" on="0"/>
        <pt x="554" y="424" on="0"/>
        <pt x="579" y="326" on="0"/>
        <pt x="616" y="285" on="0"/>
        <pt x="641" y="285" on="1"/>
        <pt x="690" y="285" on="0"/>
        <pt x="748" y="499" on="0"/>
      </contour>
    </TTGlyph>
    <TTGlyph name="Dcaron" xMin="14" yMin="-23" xMax="1237" yMax="1953">
      <component glyphName="D" x="0" y="0" flags="0x204"/>
      <component glyphName="caron" x="299" y="186" flags="0x4"/>
    </TTGlyph>
    <TTGlyph name="Dcroat" xMin="23" yMin="-23" xMax="1245" yMax="1464">
      <component glyphName="Eth" x="0" y="0" flags="0x204"/>
    </TTGlyph>
    <TTGlyph name="E" xMin="41" yMin="-23" xMax="993" yMax="1464">
      <contour>
        <pt x="993" y="-14" on="1"/>
        <pt x="941" y="-4" on="0"/>
        <pt x="832" y="7" on="0"/>
        <pt x="711" y="13" on="0"/>
        <pt x="574" y="14" on="0"/>
        <pt x="494" y="14" on="1"/>
        <pt x="456" y="14" on="0"/>
        <pt x="351" y="12" on="0"/>
        <pt x="230" y="4" on="0"/>
        <pt x="102" y="-11" on="0"/>
        <pt x="41" y="-23" on="1"/>
        <pt x="63" y="22" on="0"/>
        <pt x="95" y="159" on="0"/>
        <pt x="116" y="313" on="0"/>
        <pt x="128" y="473" on="0"/>
        <pt x="134" y="611" on="0"/>
        <pt x="135" y="712" on="0"/>
        <pt x="135" y="731" on="1"/>
        <pt x="135" y="735" on="0"/>
        <pt x="134" y="789" on="0"/>
        <pt x="132" y="875" on="0"/>
        <pt x="128" y="986" on="0"/>
        <pt x="121" y="1106" on="0"/>
        <pt x="110" y="1228" on="0"/>
        <pt x="95" y="1337" on="0"/>
        <pt x="76" y="1424" on="0"/>
        <pt x="63" y="1450" on="1"/>
        <pt x="161" y="1436" on="0"/>
        <pt x="351" y="1423" on="0"/>
        <pt x="440" y="1423" on="1"/>
        <pt x="549" y="1423" on="0"/>
        <pt x="739" y="1435" on="0"/>
        <pt x="810" y="1443" on="1"/>
        <pt x="893" y="1452" on="0"/>
        <pt x="961" y="1464" on="1"/>
        <pt x="961" y="995" on="1"/>
        <pt x="903" y="1049" on="0"/>
        <pt x="797" y="1107" on="0"/>
        <pt x="756" y="1121" on="1"/>
        <pt x="708" y="1137" on="0"/>
        <pt x="666" y="1139" on="1"/>
        <pt x="616" y="1139" on="0"/>
        <pt x="553" y="1114" on="0"/>
        <pt x="518" y="1075" on="0"/>
        <pt x="506" y="1026" on="0"/>
        <pt x="506" y="1001" on="1"/>
        <pt x="506" y="975" on="0"/>
        <pt x="521" y="923" on="0"/>
        <pt x="553" y="881" on="0"/>
        <pt x="604" y="854" on="0"/>
        <pt x="639" y="854" on="1"/>
        <pt x="668" y="854" on="0"/>
        <pt x="716" y="881" on="0"/>
        <pt x="733" y="898" on="1"/>
        <pt x="753" y="917" on="0"/>
        <pt x="770" y="942" on="1"/>
        <pt x="770" y="535" on="1"/>
        <pt x="754" y="573" on="0"/>
        <pt x="711" y="617" on="0"/>
        <pt x="670" y="638" on="0"/>
        <pt x="637" y="643" on="0"/>
        <pt x="631" y="643" on="1"/>
        <pt x="566" y="643" on="0"/>
        <pt x="502" y="563" on="0"/>
        <pt x="502" y="500" on="1"/>
        <pt x="502" y="454" on="0"/>
        <pt x="523" y="390" on="0"/>
        <pt x="558" y="350" on="0"/>
        <pt x="605" y="332" on="0"/>
        <pt x="631" y="332" on="1"/>
        <pt x="671" y="332" on="0"/>
        <pt x="763" y="368" on="0"/>
        <pt x="848" y="428" on="0"/>
        <pt x="919" y="505" on="0"/>
        <pt x="940" y="545" on="1"/>
      </contour>
    </TTGlyph>
    <TTGlyph name="Eacute" xMin="41" yMin="-23" xMax="993" yMax="1998">
      <component glyphName="E" x="0" y="0" flags="0x204"/>
      <component glyphName="acute" x="422" y="229" flags="0x4"/>
    </TTGlyph>
    <TTGlyph name="Ebreve" xMin="41" yMin="-23" xMax="993" yMax="1893">
      <component glyphName="E" x="0" y="0" flags="0x204"/>
      <component glyphName="breve" x="201" y="162" flags="0x4"/>
    </TTGlyph>
    <TTGlyph name="Ecaron" xMin="41" yMin="-23" xMax="993" yMax="1925">
      <component glyphName="E" x="0" y="0" flags="0x204"/>
      <component glyphName="caron" x="172" y="158" flags="0x4"/>
    </TTGlyph>
    <TTGlyph name="Ecircumflex" xMin="41" yMin="-23" xMax="993" yMax="1927">
      <component glyphName="E" x="0" y="0" flags="0x204"/>
      <component glyphName="circumflex" x="174" y="160" flags="0x4"/>
    </TTGlyph>
    <TTGlyph name="Edieresis" xMin="41" yMin="-23" xMax="993" yMax="1845">
      <component glyphName="E" x="0" y="0" flags="0x204"/>
      <component glyphName="dieresis" x="152" y="188" flags="0x4"/>
    </TTGlyph>
    <TTGlyph name="Edotaccent" xMin="41" yMin="-23" xMax="993" yMax="1815">
      <component glyphName="E" x="0" y="0" flags="0x204"/>
      <component glyphName="dotaccent" x="350" y="158" flags="0x4"/>
    </TTGlyph>
    <TTGlyph name="Egrave" xMin="41" yMin="-23" xMax="993" yMax="2002">
      <component glyphName="E" x="0" y="0" flags="0x204"/>
      <component glyphName="grave" x="102" y="233" flags="0x4"/>
    </TTGlyph>
    <TTGlyph name="Emacron" xMin="41" yMin="-23" xMax="993" yMax="1756">
      <component glyphName="E" x="0" y="0" flags="0x204"/>
      <component glyphName="macron" x="221" y="195" flags="0x4"/>
    </TTGlyph>
    <TTGlyph name="Eng" xMin="37" yMin="-733" xMax="1243" yMax="1460">
      <contour>
        <pt x="618" y="6" on="1"/>
        <pt x="599" y="8" on="0"/>
        <pt x="573" y="10" on="1"/>
        <pt x="551" y="12" on="0"/>
        <pt x="489" y="14" on="0"/>
        <pt x="449" y="14" on="1"/>
        <pt x="371" y="14" on="0"/>
        <pt x="162" y="0" on="0"/>
        <pt x="37" y="-20" on="1"/>
        <pt x="59" y="25" on="0"/>
        <pt x="91" y="163" on="0"/>
        <pt x="112" y="320" on="0"/>
        <pt x="124" y="482" on="0"/>
        <pt x="130" y="622" on="0"/>
        <pt x="131" y="724" on="0"/>
        <pt x="131" y="743" on="1"/>
        <pt x="131" y="747" on="0"/>
        <pt x="130" y="801" on="0"/>
        <pt x="128" y="887" on="0"/>
        <pt x="124" y="998" on="0"/>
        <pt x="117" y="1118" on="0"/>
        <pt x="106" y="1240" on="0"/>
        <pt x="91" y="1348" on="0"/>
        <pt x="72" y="1435" on="0"/>
        <pt x="59" y="1460" on="1"/>
        <pt x="160" y="1442" on="0"/>
        <pt x="326" y="1430" on="0"/>
        <pt x="391" y="1430" on="1"/>
        <pt x="435" y="1430" on="0"/>
        <pt x="504" y="1434" on="0"/>
        <pt x="527" y="1436" on="1"/>
        <pt x="554" y="1439" on="0"/>
        <pt x="575" y="1442" on="1"/>
        <pt x="618" y="1230" on="0"/>
        <pt x="728" y="868" on="0"/>
        <pt x="797" y="713" on="1"/>
        <pt x="797" y="754" on="1"/>
        <pt x="794" y="917" on="0"/>
        <pt x="786" y="1058" on="1"/>
        <pt x="782" y="1118" on="0"/>
        <pt x="772" y="1240" on="0"/>
        <pt x="757" y="1348" on="0"/>
        <pt x="738" y="1435" on="0"/>
        <pt x="725" y="1460" on="1"/>
        <pt x="825" y="1442" on="0"/>
        <pt x="994" y="1430" on="0"/>
        <pt x="1059" y="1430" on="1"/>
        <pt x="1103" y="1430" on="0"/>
        <pt x="1172" y="1434" on="0"/>
        <pt x="1195" y="1436" on="1"/>
        <pt x="1222" y="1439" on="0"/>
        <pt x="1243" y="1442" on="1"/>
        <pt x="1231" y="1386" on="0"/>
        <pt x="1213" y="1248" on="0"/>
        <pt x="1199" y="1092" on="0"/>
        <pt x="1192" y="920" on="0"/>
        <pt x="1192" y="829" on="1"/>
        <pt x="1192" y="12" on="1"/>
        <pt x="1192" y="-74" on="0"/>
        <pt x="1174" y="-251" on="0"/>
        <pt x="1125" y="-417" on="0"/>
        <pt x="1039" y="-562" on="0"/>
        <pt x="903" y="-670" on="0"/>
        <pt x="712" y="-733" on="0"/>
        <pt x="582" y="-733" on="1"/>
        <pt x="488" y="-733" on="0"/>
        <pt x="326" y="-676" on="0"/>
        <pt x="206" y="-575" on="0"/>
        <pt x="137" y="-436" on="0"/>
        <pt x="137" y="-354" on="1"/>
        <pt x="137" y="-279" on="0"/>
        <pt x="185" y="-162" on="0"/>
        <pt x="263" y="-81" on="0"/>
        <pt x="363" y="-39" on="0"/>
        <pt x="416" y="-39" on="1"/>
        <pt x="452" y="-39" on="0"/>
        <pt x="522" y="-60" on="0"/>
        <pt x="583" y="-103" on="0"/>
        <pt x="634" y="-168" on="0"/>
        <pt x="651" y="-213" on="1"/>
        <pt x="639" y="-202" on="0"/>
        <pt x="610" y="-190" on="0"/>
        <pt x="598" y="-190" on="1"/>
        <pt x="581" y="-190" on="0"/>
        <pt x="549" y="-205" on="0"/>
        <pt x="525" y="-232" on="0"/>
        <pt x="510" y="-268" on="0"/>
        <pt x="510" y="-289" on="1"/>
        <pt x="510" y="-337" on="0"/>
        <pt x="573" y="-393" on="0"/>
        <pt x="618" y="-393" on="1"/>
        <pt x="709" y="-393" on="0"/>
        <pt x="782" y="-208" on="0"/>
        <pt x="782" y="-14" on="1"/>
        <pt x="782" y="92" on="0"/>
        <pt x="740" y="288" on="0"/>
        <pt x="670" y="475" on="0"/>
        <pt x="577" y="655" on="0"/>
        <pt x="526" y="745" on="1"/>
        <pt x="527" y="651" on="0"/>
        <pt x="540" y="459" on="0"/>
        <pt x="563" y="271" on="0"/>
        <pt x="596" y="90" on="0"/>
      </contour>
    </TTGlyph>
    <TTGlyph name="Eogonek" xMin="41" yMin="-391" xMax="993" yMax="1464">
      <contour>
        <pt x="993" y="-295" on="1"/>
        <pt x="972" y="-297" on="0"/>
        <pt x="920" y="-327" on="0"/>
        <pt x="859" y="-362" on="0"/>
        <pt x="790" y="-391" on="0"/>
        <pt x="752" y="-391" on="1"/>
        <pt x="715" y="-391" on="0"/>
        <pt x="653" y="-362" on="0"/>
        <pt x="609" y="-312" on="0"/>
        <pt x="584" y="-247" on="0"/>
        <pt x="584" y="-211" on="1"/>
        <pt x="584" y="-190" on="0"/>
        <pt x="603" y="-134" on="0"/>
        <pt x="633" y="-74" on="0"/>
        <pt x="670" y="-13" on="0"/>
        <pt x="688" y="12" on="1"/>
        <pt x="643" y="14" on="0"/>
        <pt x="548" y="14" on="0"/>
        <pt x="494" y="14" on="1"/>
        <pt x="456" y="14" on="0"/>
        <pt x="351" y="12" on="0"/>
        <pt x="230" y="4" on="0"/>
        <pt x="102" y="-11" on="0"/>
        <pt x="41" y="-23" on="1"/>
        <pt x="63" y="22" on="0"/>
        <pt x="95" y="159" on="0"/>
        <pt x="116" y="313" on="0"/>
        <pt x="128" y="473" on="0"/>
        <pt x="134" y="611" on="0"/>
        <pt x="135" y="712" on="0"/>
        <pt x="135" y="731" on="1"/>
        <pt x="135" y="735" on="0"/>
        <pt x="134" y="789" on="0"/>
        <pt x="132" y="875" on="0"/>
        <pt x="128" y="986" on="0"/>
        <pt x="121" y="1106" on="0"/>
        <pt x="110" y="1228" on="0"/>
        <pt x="95" y="1337" on="0"/>
        <pt x="76" y="1424" on="0"/>
        <pt x="63" y="1450" on="1"/>
        <pt x="161" y="1436" on="0"/>
        <pt x="351" y="1423" on="0"/>
        <pt x="440" y="1423" on="1"/>
        <pt x="549" y="1423" on="0"/>
        <pt x="739" y="1435" on="0"/>
        <pt x="810" y="1443" on="1"/>
        <pt x="893" y="1452" on="0"/>
        <pt x="961" y="1464" on="1"/>
        <pt x="961" y="995" on="1"/>
        <pt x="903" y="1049" on="0"/>
        <pt x="797" y="1107" on="0"/>
        <pt x="756" y="1121" on="1"/>
        <pt x="708" y="1137" on="0"/>
        <pt x="666" y="1139" on="1"/>
        <pt x="616" y="1139" on="0"/>
        <pt x="553" y="1114" on="0"/>
        <pt x="518" y="1075" on="0"/>
        <pt x="506" y="1026" on="0"/>
        <pt x="506" y="1001" on="1"/>
        <pt x="506" y="975" on="0"/>
        <pt x="521" y="923" on="0"/>
        <pt x="553" y="881" on="0"/>
        <pt x="604" y="854" on="0"/>
        <pt x="639" y="854" on="1"/>
        <pt x="666" y="854" on="0"/>
        <pt x="712" y="879" on="0"/>
        <pt x="746" y="909" on="0"/>
        <pt x="768" y="937" on="0"/>
        <pt x="770" y="940" on="1"/>
        <pt x="770" y="535" on="1"/>
        <pt x="754" y="573" on="0"/>
        <pt x="711" y="617" on="0"/>
        <pt x="670" y="638" on="0"/>
        <pt x="637" y="643" on="0"/>
        <pt x="631" y="643" on="1"/>
        <pt x="566" y="643" on="0"/>
        <pt x="502" y="563" on="0"/>
        <pt x="502" y="500" on="1"/>
        <pt x="502" y="454" on="0"/>
        <pt x="523" y="390" on="0"/>
        <pt x="558" y="350" on="0"/>
        <pt x="605" y="332" on="0"/>
        <pt x="631" y="332" on="1"/>
        <pt x="671" y="332" on="0"/>
        <pt x="763" y="368" on="0"/>
        <pt x="848" y="428" on="0"/>
        <pt x="919" y="505" on="0"/>
        <pt x="940" y="545" on="1"/>
        <pt x="993" y="-14" on="1"/>
        <pt x="948" y="-5" on="0"/>
        <pt x="856" y="5" on="0"/>
        <pt x="805" y="8" on="1"/>
        <pt x="791" y="-15" on="0"/>
        <pt x="763" y="-67" on="0"/>
        <pt x="741" y="-117" on="0"/>
        <pt x="727" y="-161" on="0"/>
        <pt x="727" y="-176" on="1"/>
        <pt x="727" y="-198" on="0"/>
        <pt x="754" y="-219" on="0"/>
        <pt x="774" y="-219" on="1"/>
        <pt x="792" y="-219" on="0"/>
        <pt x="821" y="-199" on="0"/>
        <pt x="844" y="-170" on="0"/>
        <pt x="861" y="-137" on="0"/>
        <pt x="866" y="-123" on="1"/>
        <pt x="875" y="-146" on="0"/>
        <pt x="901" y="-195" on="0"/>
        <pt x="934" y="-241" on="0"/>
        <pt x="972" y="-281" on="0"/>
      </contour>
    </TTGlyph>
    <TTGlyph name="Eth" xMin="23" yMin="-23" xMax="1245" yMax="1464">
      <contour>
        <pt x="1245" y="709" on="1"/>
        <pt x="1245" y="546" on="0"/>
        <pt x="1173" y="312" on="0"/>
        <pt x="1055" y="149" on="0"/>
        <pt x="905" y="50" on="0"/>
        <pt x="750" y="-5" on="0"/>
        <pt x="602" y="-23" on="0"/>
        <pt x="545" y="-23" on="1"/>
        <pt x="498" y="-23" on="0"/>
        <pt x="353" y="-10" on="0"/>
        <pt x="266" y="-10" on="1"/>
        <pt x="215" y="-10" on="0"/>
        <pt x="92" y="-14" on="0"/>
        <pt x="23" y="-20" on="1"/>
        <pt x="56" y="40" on="0"/>
        <pt x="102" y="196" on="0"/>
        <pt x="134" y="361" on="0"/>
        <pt x="152" y="524" on="0"/>
        <pt x="158" y="592" on="1"/>
        <pt x="127" y="586" on="0"/>
        <pt x="63" y="570" on="0"/>
        <pt x="23" y="559" on="1"/>
        <pt x="27" y="571" on="0"/>
        <pt x="33" y="607" on="0"/>
        <pt x="36" y="645" on="0"/>
        <pt x="37" y="681" on="0"/>
        <pt x="37" y="692" on="1"/>
        <pt x="37" y="743" on="0"/>
        <pt x="29" y="844" on="0"/>
        <pt x="23" y="895" on="1"/>
        <pt x="60" y="879" on="0"/>
        <pt x="130" y="856" on="0"/>
        <pt x="164" y="850" on="1"/>
        <pt x="163" y="887" on="0"/>
        <pt x="158" y="992" on="0"/>
        <pt x="148" y="1111" on="0"/>
        <pt x="131" y="1235" on="0"/>
        <pt x="106" y="1347" on="0"/>
        <pt x="72" y="1438" on="0"/>
        <pt x="49" y="1464" on="1"/>
        <pt x="123" y="1452" on="0"/>
        <pt x="256" y="1444" on="0"/>
        <pt x="307" y="1444" on="1"/>
        <pt x="352" y="1444" on="0"/>
        <pt x="412" y="1446" on="0"/>
        <pt x="455" y="1448" on="0"/>
        <pt x="485" y="1452" on="0"/>
        <pt x="518" y="1454" on="0"/>
        <pt x="559" y="1456" on="0"/>
        <pt x="590" y="1456" on="1"/>
        <pt x="658" y="1456" on="0"/>
        <pt x="809" y="1437" on="0"/>
        <pt x="954" y="1381" on="0"/>
        <pt x="1086" y="1279" on="0"/>
        <pt x="1186" y="1113" on="0"/>
        <pt x="1245" y="874" on="0"/>
      </contour>
      <contour>
        <pt x="662" y="895" on="1"/>
        <pt x="654" y="850" on="0"/>
        <pt x="647" y="764" on="0"/>
        <pt x="647" y="719" on="1"/>
        <pt x="647" y="676" on="0"/>
        <pt x="654" y="588" on="0"/>
        <pt x="662" y="545" on="1"/>
        <pt x="633" y="560" on="0"/>
        <pt x="577" y="582" on="0"/>
        <pt x="551" y="588" on="1"/>
        <pt x="554" y="502" on="0"/>
        <pt x="569" y="385" on="0"/>
        <pt x="594" y="315" on="0"/>
        <pt x="628" y="285" on="0"/>
        <pt x="649" y="285" on="1"/>
        <pt x="698" y="285" on="0"/>
        <pt x="756" y="499" on="0"/>
        <pt x="756" y="731" on="1"/>
        <pt x="756" y="848" on="0"/>
        <pt x="742" y="1004" on="0"/>
        <pt x="715" y="1099" on="0"/>
        <pt x="675" y="1139" on="0"/>
        <pt x="649" y="1139" on="1"/>
        <pt x="611" y="1139" on="0"/>
        <pt x="560" y="1007" on="0"/>
        <pt x="551" y="858" on="1"/>
        <pt x="580" y="864" on="0"/>
        <pt x="636" y="883" on="0"/>
      </contour>
    </TTGlyph>
    <TTGlyph name="Euro" xMin="33" yMin="209" xMax="989" yMax="1206">
      <contour>
        <pt x="989" y="930" on="1"/>
        <pt x="989" y="896" on="0"/>
        <pt x="966" y="828" on="0"/>
        <pt x="923" y="773" on="0"/>
        <pt x="860" y="739" on="0"/>
        <pt x="821" y="739" on="1"/>
        <pt x="786" y="739" on="0"/>
        <pt x="735" y="763" on="0"/>
        <pt x="702" y="803" on="0"/>
        <pt x="686" y="854" on="0"/>
        <pt x="686" y="881" on="1"/>
        <pt x="686" y="907" on="0"/>
        <pt x="701" y="956" on="0"/>
        <pt x="715" y="975" on="1"/>
        <pt x="720" y="962" on="0"/>
        <pt x="733" y="949" on="0"/>
        <pt x="740" y="946" on="1"/>
        <pt x="748" y="942" on="0"/>
        <pt x="756" y="942" on="1"/>
        <pt x="780" y="942" on="0"/>
        <pt x="793" y="962" on="0"/>
        <pt x="795" y="975" on="1"/>
        <pt x="795" y="989" on="0"/>
        <pt x="772" y="1016" on="0"/>
        <pt x="748" y="1016" on="1"/>
        <pt x="738" y="1016" on="0"/>
        <pt x="690" y="1004" on="0"/>
        <pt x="640" y="955" on="0"/>
        <pt x="602" y="855" on="0"/>
        <pt x="602" y="768" on="1"/>
        <pt x="602" y="708" on="0"/>
        <pt x="636" y="634" on="0"/>
        <pt x="685" y="592" on="0"/>
        <pt x="739" y="578" on="0"/>
        <pt x="758" y="578" on="1"/>
        <pt x="774" y="578" on="0"/>
        <pt x="825" y="589" on="0"/>
        <pt x="877" y="621" on="0"/>
        <pt x="920" y="678" on="0"/>
        <pt x="928" y="723" on="1"/>
        <pt x="951" y="691" on="0"/>
        <pt x="975" y="603" on="0"/>
        <pt x="975" y="555" on="1"/>
        <pt x="975" y="489" on="0"/>
        <pt x="926" y="364" on="0"/>
        <pt x="838" y="268" on="0"/>
        <pt x="713" y="209" on="0"/>
        <pt x="637" y="209" on="1"/>
        <pt x="577" y="209" on="0"/>
        <pt x="476" y="250" on="0"/>
        <pt x="395" y="322" on="0"/>
        <pt x="334" y="419" on="0"/>
        <pt x="315" y="475" on="1"/>
        <pt x="244" y="473" on="0"/>
        <pt x="101" y="459" on="0"/>
        <pt x="33" y="442" on="1"/>
        <pt x="46" y="466" on="0"/>
        <pt x="64" y="524" on="0"/>
        <pt x="75" y="584" on="0"/>
        <pt x="82" y="644" on="0"/>
        <pt x="84" y="670" on="1"/>
        <pt x="102" y="661" on="0"/>
        <pt x="150" y="647" on="0"/>
        <pt x="204" y="638" on="0"/>
        <pt x="260" y="632" on="0"/>
        <pt x="287" y="631" on="1"/>
        <pt x="285" y="640" on="0"/>
        <pt x="285" y="658" on="0"/>
        <pt x="285" y="668" on="1"/>
        <pt x="285" y="688" on="0"/>
        <pt x="291" y="728" on="0"/>
        <pt x="291" y="748" on="1"/>
        <pt x="241" y="744" on="0"/>
        <pt x="142" y="731" on="0"/>
        <pt x="94" y="719" on="1"/>
        <pt x="109" y="740" on="0"/>
        <pt x="126" y="796" on="0"/>
        <pt x="137" y="857" on="0"/>
        <pt x="143" y="919" on="0"/>
        <pt x="147" y="946" on="1"/>
        <pt x="182" y="929" on="0"/>
        <pt x="283" y="912" on="0"/>
        <pt x="334" y="907" on="1"/>
        <pt x="358" y="968" on="0"/>
        <pt x="431" y="1077" on="0"/>
        <pt x="525" y="1159" on="0"/>
        <pt x="639" y="1206" on="0"/>
        <pt x="705" y="1206" on="1"/>
        <pt x="762" y="1206" on="0"/>
        <pt x="848" y="1179" on="0"/>
        <pt x="911" y="1135" on="0"/>
        <pt x="953" y="1078" on="0"/>
        <pt x="978" y="1016" on="0"/>
        <pt x="989" y="956" on="0"/>
      </contour>
    </TTGlyph>
    <TTGlyph name="F" xMin="39" yMin="-31" xMax="999" yMax="1464">
      <contour>
        <pt x="999" y="995" on="1"/>
        <pt x="950" y="1048" on="0"/>
        <pt x="842" y="1107" on="0"/>
        <pt x="750" y="1134" on="0"/>
        <pt x="688" y="1139" on="0"/>
        <pt x="684" y="1139" on="1"/>
        <pt x="634" y="1139" on="0"/>
        <pt x="572" y="1114" on="0"/>
        <pt x="537" y="1075" on="0"/>
        <pt x="524" y="1026" on="0"/>
        <pt x="524" y="1001" on="1"/>
        <pt x="524" y="977" on="0"/>
        <pt x="535" y="925" on="0"/>
        <pt x="561" y="882" on="0"/>
        <pt x="605" y="854" on="0"/>
        <pt x="639" y="854" on="1"/>
        <pt x="641" y="854" on="0"/>
        <pt x="669" y="855" on="0"/>
        <pt x="711" y="870" on="0"/>
        <pt x="762" y="907" on="0"/>
        <pt x="788" y="942" on="1"/>
        <pt x="788" y="535" on="1"/>
        <pt x="767" y="573" on="0"/>
        <pt x="717" y="617" on="0"/>
        <pt x="672" y="638" on="0"/>
        <pt x="637" y="643" on="0"/>
        <pt x="631" y="643" on="1"/>
        <pt x="598" y="643" on="0"/>
        <pt x="555" y="621" on="0"/>
        <pt x="530" y="582" on="0"/>
        <pt x="520" y="527" on="0"/>
        <pt x="520" y="494" on="1"/>
        <pt x="523" y="417" on="0"/>
        <pt x="535" y="335" on="1"/>
        <pt x="540" y="300" on="0"/>
        <pt x="556" y="222" on="0"/>
        <pt x="580" y="139" on="0"/>
        <pt x="612" y="56" on="0"/>
        <pt x="633" y="16" on="1"/>
        <pt x="611" y="17" on="0"/>
        <pt x="585" y="19" on="1"/>
        <pt x="562" y="21" on="0"/>
        <pt x="501" y="23" on="0"/>
        <pt x="463" y="23" on="1"/>
        <pt x="418" y="23" on="0"/>
        <pt x="312" y="18" on="0"/>
        <pt x="202" y="6" on="0"/>
        <pt x="90" y="-15" on="0"/>
        <pt x="39" y="-31" on="1"/>
        <pt x="61" y="14" on="0"/>
        <pt x="93" y="152" on="0"/>
        <pt x="114" y="308" on="0"/>
        <pt x="126" y="470" on="0"/>
        <pt x="132" y="609" on="0"/>
        <pt x="133" y="712" on="0"/>
        <pt x="133" y="731" on="1"/>
        <pt x="133" y="735" on="0"/>
        <pt x="132" y="789" on="0"/>
        <pt x="130" y="875" on="0"/>
        <pt x="126" y="986" on="0"/>
        <pt x="119" y="1106" on="0"/>
        <pt x="108" y="1228" on="0"/>
        <pt x="93" y="1337" on="0"/>
        <pt x="74" y="1424" on="0"/>
        <pt x="61" y="1450" on="1"/>
        <pt x="157" y="1430" on="0"/>
        <pt x="356" y="1413" on="0"/>
        <pt x="453" y="1413" on="1"/>
        <pt x="564" y="1413" on="0"/>
        <pt x="762" y="1428" on="0"/>
        <pt x="837" y="1438" on="1"/>
        <pt x="925" y="1449" on="0"/>
        <pt x="999" y="1464" on="1"/>
      </contour>
    </TTGlyph>
    <TTGlyph name="G" xMin="41" yMin="-55" xMax="1188" yMax="1483">
      <contour>
        <pt x="1188" y="752" on="1"/>
        <pt x="1106" y="549" on="0"/>
        <pt x="1106" y="358" on="1"/>
        <pt x="1106" y="266" on="0"/>
        <pt x="1140" y="79" on="0"/>
        <pt x="1176" y="-18" on="1"/>
        <pt x="1119" y="-4" on="0"/>
        <pt x="1021" y="10" on="0"/>
        <pt x="973" y="10" on="1"/>
        <pt x="922" y="10" on="0"/>
        <pt x="816" y="-8" on="0"/>
        <pt x="754" y="-27" on="1"/>
        <pt x="795" y="133" on="1"/>
        <pt x="775" y="101" on="0"/>
        <pt x="719" y="34" on="0"/>
        <pt x="642" y="-20" on="0"/>
        <pt x="543" y="-55" on="0"/>
        <pt x="479" y="-55" on="1"/>
        <pt x="383" y="-55" on="0"/>
        <pt x="222" y="37" on="0"/>
        <pt x="106" y="211" on="0"/>
        <pt x="41" y="464" on="0"/>
        <pt x="41" y="625" on="1"/>
        <pt x="41" y="732" on="0"/>
        <pt x="81" y="943" on="0"/>
        <pt x="157" y="1134" on="0"/>
        <pt x="269" y="1297" on="0"/>
        <pt x="411" y="1416" on="0"/>
        <pt x="584" y="1483" on="0"/>
        <pt x="684" y="1483" on="1"/>
        <pt x="775" y="1483" on="0"/>
        <pt x="911" y="1446" on="0"/>
        <pt x="1011" y="1385" on="0"/>
        <pt x="1076" y="1306" on="0"/>
        <pt x="1114" y="1220" on="0"/>
        <pt x="1130" y="1135" on="0"/>
        <pt x="1130" y="1098" on="1"/>
        <pt x="1130" y="1045" on="0"/>
        <pt x="1093" y="947" on="0"/>
        <pt x="1027" y="873" on="0"/>
        <pt x="937" y="829" on="0"/>
        <pt x="883" y="829" on="1"/>
        <pt x="827" y="829" on="0"/>
        <pt x="745" y="863" on="0"/>
        <pt x="691" y="918" on="0"/>
        <pt x="664" y="986" on="0"/>
        <pt x="664" y="1020" on="1"/>
        <pt x="664" y="1049" on="0"/>
        <pt x="684" y="1109" on="0"/>
        <pt x="702" y="1135" on="1"/>
        <pt x="708" y="1114" on="0"/>
        <pt x="730" y="1091" on="0"/>
        <pt x="741" y="1086" on="1"/>
        <pt x="753" y="1080" on="0"/>
        <pt x="768" y="1079" on="1"/>
        <pt x="802" y="1079" on="0"/>
        <pt x="831" y="1113" on="0"/>
        <pt x="831" y="1135" on="1"/>
        <pt x="831" y="1145" on="0"/>
        <pt x="822" y="1166" on="0"/>
        <pt x="804" y="1184" on="0"/>
        <pt x="775" y="1196" on="0"/>
        <pt x="754" y="1196" on="1"/>
        <pt x="740" y="1196" on="0"/>
        <pt x="691" y="1185" on="0"/>
        <pt x="634" y="1153" on="0"/>
        <pt x="576" y="1094" on="0"/>
        <pt x="528" y="996" on="0"/>
        <pt x="498" y="854" on="0"/>
        <pt x="498" y="756" on="1"/>
        <pt x="498" y="675" on="0"/>
        <pt x="525" y="553" on="0"/>
        <pt x="573" y="471" on="0"/>
        <pt x="639" y="430" on="0"/>
        <pt x="678" y="430" on="1"/>
        <pt x="715" y="430" on="0"/>
        <pt x="763" y="468" on="0"/>
        <pt x="791" y="522" on="0"/>
        <pt x="801" y="580" on="0"/>
        <pt x="801" y="600" on="1"/>
        <pt x="801" y="601" on="0"/>
        <pt x="798" y="627" on="0"/>
        <pt x="782" y="661" on="0"/>
        <pt x="746" y="697" on="0"/>
        <pt x="713" y="709" on="1"/>
        <pt x="831" y="709" on="0"/>
        <pt x="1069" y="730" on="0"/>
      </contour>
    </TTGlyph>
    <TTGlyph name="Gbreve" xMin="41" yMin="-55" xMax="1188" yMax="1938">
      <component glyphName="G" x="0" y="0" flags="0x204"/>
      <component glyphName="breve" x="326" y="207" flags="0x4"/>
    </TTGlyph>
    <TTGlyph name="Gcircumflex" xMin="41" yMin="-55" xMax="1188" yMax="1980">
      <component glyphName="G" x="0" y="0" flags="0x204"/>
      <component glyphName="circumflex" x="354" y="213" flags="0x4"/>
    </TTGlyph>
    <TTGlyph name="Gcommaaccent" xMin="41" yMin="-470" xMax="1188" yMax="1483">
      <component glyphName="G" x="0" y="0" flags="0x204"/>
      <component glyphName="uni0326" x="477" y="-32" flags="0x4"/>
    </TTGlyph>
    <TTGlyph name="Gdotaccent" xMin="41" yMin="-55" xMax="1188" yMax="1866">
      <component glyphName="G" x="0" y="0" flags="0x204"/>
      <component glyphName="dotaccent" x="543" y="209" flags="0x4"/>
    </TTGlyph>
    <TTGlyph name="H" xMin="37" yMin="-59" xMax="1251" yMax="1481">
      <contour>
        <pt x="612" y="6" on="1"/>
        <pt x="593" y="8" on="0"/>
        <pt x="568" y="10" on="1"/>
        <pt x="547" y="12" on="0"/>
        <pt x="485" y="14" on="0"/>
        <pt x="446" y="14" on="1"/>
        <pt x="371" y="14" on="0"/>
        <pt x="162" y="0" on="0"/>
        <pt x="37" y="-20" on="1"/>
        <pt x="59" y="25" on="0"/>
        <pt x="91" y="163" on="0"/>
        <pt x="112" y="320" on="0"/>
        <pt x="124" y="482" on="0"/>
        <pt x="130" y="622" on="0"/>
        <pt x="131" y="724" on="0"/>
        <pt x="131" y="743" on="1"/>
        <pt x="131" y="747" on="0"/>
        <pt x="130" y="801" on="0"/>
        <pt x="128" y="887" on="0"/>
        <pt x="124" y="998" on="0"/>
        <pt x="117" y="1118" on="0"/>
        <pt x="106" y="1240" on="0"/>
        <pt x="91" y="1348" on="0"/>
        <pt x="72" y="1435" on="0"/>
        <pt x="59" y="1460" on="1"/>
        <pt x="156" y="1443" on="0"/>
        <pt x="328" y="1430" on="0"/>
        <pt x="399" y="1430" on="1"/>
        <pt x="448" y="1430" on="0"/>
        <pt x="528" y="1434" on="0"/>
        <pt x="556" y="1437" on="1"/>
        <pt x="589" y="1440" on="0"/>
        <pt x="614" y="1444" on="1"/>
        <pt x="569" y="1319" on="0"/>
        <pt x="532" y="1092" on="0"/>
        <pt x="532" y="1006" on="1"/>
        <pt x="532" y="896" on="0"/>
        <pt x="590" y="793" on="0"/>
        <pt x="641" y="793" on="1"/>
        <pt x="704" y="793" on="0"/>
        <pt x="756" y="922" on="0"/>
        <pt x="756" y="1036" on="1"/>
        <pt x="756" y="1098" on="0"/>
        <pt x="744" y="1224" on="0"/>
        <pt x="721" y="1340" on="0"/>
        <pt x="690" y="1442" on="0"/>
        <pt x="672" y="1481" on="1"/>
        <pt x="772" y="1462" on="0"/>
        <pt x="946" y="1450" on="0"/>
        <pt x="1014" y="1450" on="1"/>
        <pt x="1060" y="1450" on="0"/>
        <pt x="1132" y="1454" on="0"/>
        <pt x="1158" y="1456" on="1"/>
        <pt x="1188" y="1459" on="0"/>
        <pt x="1210" y="1462" on="1"/>
        <pt x="1199" y="1406" on="0"/>
        <pt x="1180" y="1264" on="0"/>
        <pt x="1166" y="1101" on="0"/>
        <pt x="1159" y="919" on="0"/>
        <pt x="1159" y="823" on="1"/>
        <pt x="1159" y="714" on="0"/>
        <pt x="1169" y="489" on="0"/>
        <pt x="1192" y="269" on="0"/>
        <pt x="1227" y="60" on="0"/>
        <pt x="1251" y="-33" on="1"/>
        <pt x="1232" y="-31" on="0"/>
        <pt x="1207" y="-29" on="1"/>
        <pt x="1186" y="-27" on="0"/>
        <pt x="1124" y="-25" on="0"/>
        <pt x="1085" y="-25" on="1"/>
        <pt x="1010" y="-25" on="0"/>
        <pt x="801" y="-39" on="0"/>
        <pt x="676" y="-59" on="1"/>
        <pt x="690" y="-31" on="0"/>
        <pt x="716" y="57" on="0"/>
        <pt x="736" y="159" on="0"/>
        <pt x="748" y="268" on="0"/>
        <pt x="748" y="317" on="1"/>
        <pt x="748" y="411" on="0"/>
        <pt x="695" y="508" on="0"/>
        <pt x="647" y="508" on="1"/>
        <pt x="605" y="508" on="0"/>
        <pt x="553" y="430" on="0"/>
        <pt x="553" y="346" on="1"/>
        <pt x="553" y="307" on="0"/>
        <pt x="563" y="221" on="0"/>
        <pt x="579" y="133" on="0"/>
        <pt x="601" y="46" on="0"/>
      </contour>
    </TTGlyph>
    <TTGlyph name="Hbar" xMin="27" yMin="-59" xMax="1255" yMax="1481">
      <contour>
        <pt x="1255" y="1241" on="1"/>
        <pt x="1247" y="1196" on="0"/>
        <pt x="1239" y="1110" on="0"/>
        <pt x="1239" y="1065" on="1"/>
        <pt x="1239" y="1022" on="0"/>
        <pt x="1247" y="934" on="0"/>
        <pt x="1255" y="891" on="1"/>
        <pt x="1238" y="899" on="0"/>
        <pt x="1190" y="913" on="0"/>
        <pt x="1159" y="918" on="1"/>
        <pt x="1159" y="823" on="1"/>
        <pt x="1159" y="714" on="0"/>
        <pt x="1169" y="489" on="0"/>
        <pt x="1192" y="269" on="0"/>
        <pt x="1227" y="60" on="0"/>
        <pt x="1251" y="-33" on="1"/>
        <pt x="1232" y="-31" on="0"/>
        <pt x="1207" y="-29" on="1"/>
        <pt x="1186" y="-27" on="0"/>
        <pt x="1124" y="-25" on="0"/>
        <pt x="1085" y="-25" on="1"/>
        <pt x="1010" y="-25" on="0"/>
        <pt x="801" y="-39" on="0"/>
        <pt x="676" y="-59" on="1"/>
        <pt x="690" y="-31" on="0"/>
        <pt x="716" y="57" on="0"/>
        <pt x="736" y="159" on="0"/>
        <pt x="748" y="268" on="0"/>
        <pt x="748" y="317" on="1"/>
        <pt x="748" y="411" on="0"/>
        <pt x="695" y="508" on="0"/>
        <pt x="647" y="508" on="1"/>
        <pt x="605" y="508" on="0"/>
        <pt x="553" y="430" on="0"/>
        <pt x="553" y="346" on="1"/>
        <pt x="553" y="307" on="0"/>
        <pt x="563" y="221" on="0"/>
        <pt x="579" y="133" on="0"/>
        <pt x="601" y="46" on="0"/>
        <pt x="612" y="6" on="1"/>
        <pt x="593" y="8" on="0"/>
        <pt x="568" y="10" on="1"/>
        <pt x="547" y="12" on="0"/>
        <pt x="485" y="14" on="0"/>
        <pt x="446" y="14" on="1"/>
        <pt x="371" y="14" on="0"/>
        <pt x="162" y="0" on="0"/>
        <pt x="37" y="-20" on="1"/>
        <pt x="59" y="25" on="0"/>
        <pt x="91" y="163" on="0"/>
        <pt x="112" y="320" on="0"/>
        <pt x="124" y="482" on="0"/>
        <pt x="130" y="622" on="0"/>
        <pt x="131" y="724" on="0"/>
        <pt x="131" y="743" on="1"/>
        <pt x="131" y="746" on="0"/>
        <pt x="130" y="775" on="0"/>
        <pt x="129" y="823" on="0"/>
        <pt x="128" y="887" on="0"/>
        <pt x="127" y="924" on="1"/>
        <pt x="96" y="919" on="0"/>
        <pt x="47" y="910" on="0"/>
        <pt x="27" y="905" on="1"/>
        <pt x="31" y="917" on="0"/>
        <pt x="37" y="953" on="0"/>
        <pt x="40" y="991" on="0"/>
        <pt x="41" y="1027" on="0"/>
        <pt x="41" y="1038" on="1"/>
        <pt x="41" y="1089" on="0"/>
        <pt x="33" y="1190" on="0"/>
        <pt x="27" y="1241" on="1"/>
        <pt x="56" y="1228" on="0"/>
        <pt x="109" y="1219" on="1"/>
        <pt x="101" y="1297" on="0"/>
        <pt x="76" y="1426" on="0"/>
        <pt x="59" y="1460" on="1"/>
        <pt x="156" y="1443" on="0"/>
        <pt x="328" y="1430" on="0"/>
        <pt x="399" y="1430" on="1"/>
        <pt x="448" y="1430" on="0"/>
        <pt x="528" y="1434" on="0"/>
        <pt x="556" y="1437" on="1"/>
        <pt x="589" y="1440" on="0"/>
        <pt x="614" y="1444" on="1"/>
        <pt x="590" y="1375" on="0"/>
        <pt x="556" y="1244" on="0"/>
        <pt x="547" y="1182" on="1"/>
        <pt x="639" y="1182" on="1"/>
        <pt x="656" y="1182" on="0"/>
        <pt x="712" y="1182" on="0"/>
        <pt x="748" y="1184" on="1"/>
        <pt x="737" y="1270" on="0"/>
        <pt x="698" y="1427" on="0"/>
        <pt x="672" y="1481" on="1"/>
        <pt x="772" y="1462" on="0"/>
        <pt x="946" y="1450" on="0"/>
        <pt x="1014" y="1450" on="1"/>
        <pt x="1060" y="1450" on="0"/>
        <pt x="1132" y="1454" on="0"/>
        <pt x="1158" y="1456" on="1"/>
        <pt x="1188" y="1459" on="0"/>
        <pt x="1210" y="1462" on="1"/>
        <pt x="1199" y="1411" on="0"/>
        <pt x="1182" y="1290" on="0"/>
        <pt x="1176" y="1219" on="1"/>
        <pt x="1200" y="1224" on="0"/>
        <pt x="1241" y="1235" on="0"/>
      </contour>
      <contour>
        <pt x="641" y="793" on="1"/>
        <pt x="692" y="793" on="0"/>
        <pt x="744" y="877" on="0"/>
        <pt x="752" y="952" on="1"/>
        <pt x="726" y="954" on="0"/>
        <pt x="681" y="954" on="0"/>
        <pt x="666" y="954" on="1"/>
        <pt x="640" y="954" on="0"/>
        <pt x="573" y="952" on="0"/>
        <pt x="535" y="952" on="1"/>
        <pt x="541" y="871" on="0"/>
        <pt x="596" y="793" on="0"/>
      </contour>
    </TTGlyph>
    <TTGlyph name="Hcircumflex" xMin="37" yMin="-59" xMax="1251" yMax="1970">
      <component glyphName="H" x="0" y="0" flags="0x204"/>
      <component glyphName="circumflex" x="299" y="203" flags="0x4"/>
    </TTGlyph>
    <TTGlyph name="I" xMin="37" yMin="-20" xMax="633" yMax="1460">
      <contour>
        <pt x="633" y="6" on="1"/>
        <pt x="612" y="8" on="0"/>
        <pt x="586" y="10" on="1"/>
        <pt x="563" y="12" on="0"/>
        <pt x="499" y="14" on="0"/>
        <pt x="457" y="14" on="1"/>
        <pt x="376" y="14" on="0"/>
        <pt x="162" y="0" on="0"/>
        <pt x="37" y="-20" on="1"/>
        <pt x="59" y="25" on="0"/>
        <pt x="91" y="163" on="0"/>
        <pt x="112" y="320" on="0"/>
        <pt x="124" y="482" on="0"/>
        <pt x="130" y="622" on="0"/>
        <pt x="131" y="724" on="0"/>
        <pt x="131" y="743" on="1"/>
        <pt x="131" y="747" on="0"/>
        <pt x="130" y="801" on="0"/>
        <pt x="128" y="887" on="0"/>
        <pt x="124" y="998" on="0"/>
        <pt x="117" y="1118" on="0"/>
        <pt x="106" y="1240" on="0"/>
        <pt x="91" y="1348" on="0"/>
        <pt x="72" y="1435" on="0"/>
        <pt x="59" y="1460" on="1"/>
        <pt x="160" y="1442" on="0"/>
        <pt x="329" y="1430" on="0"/>
        <pt x="397" y="1430" on="1"/>
        <pt x="442" y="1430" on="0"/>
        <pt x="514" y="1434" on="0"/>
        <pt x="539" y="1436" on="1"/>
        <pt x="568" y="1439" on="0"/>
        <pt x="590" y="1442" on="1"/>
        <pt x="578" y="1386" on="0"/>
        <pt x="560" y="1249" on="0"/>
        <pt x="546" y="1094" on="0"/>
        <pt x="539" y="924" on="0"/>
        <pt x="539" y="834" on="1"/>
        <pt x="539" y="730" on="0"/>
        <pt x="549" y="515" on="0"/>
        <pt x="572" y="303" on="0"/>
        <pt x="607" y="99" on="0"/>
      </contour>
    </TTGlyph>
    <TTGlyph name="IJ" xMin="37" yMin="-70" xMax="1798" yMax="1464">
      <component glyphName="I" x="0" y="0" flags="0x4"/>
      <component glyphName="J" x="672" y="0" flags="0x4"/>
    </TTGlyph>
    <TTGlyph name="Iacute" xMin="37" yMin="-20" xMax="772" yMax="2007">
      <component glyphName="I" x="0" y="0" flags="0x204"/>
      <component glyphName="acute" x="242" y="238" flags="0x4"/>
    </TTGlyph>
    <TTGlyph name="Ibreve" xMin="20" yMin="-20" xMax="649" yMax="1901">
      <component glyphName="I" x="0" y="0" flags="0x204"/>
      <component glyphName="breve" x="20" y="170" flags="0x4"/>
    </TTGlyph>
    <TTGlyph name="Icircumflex" xMin="-5" yMin="-20" xMax="679" yMax="1955">
      <component glyphName="I" x="0" y="0" flags="0x204"/>
      <component glyphName="circumflex" x="-5" y="188" flags="0x4"/>
    </TTGlyph>
    <TTGlyph name="Idieresis" xMin="-28" yMin="-20" xMax="701" yMax="1850">
      <component glyphName="I" x="0" y="0" flags="0x204"/>
      <component glyphName="dieresis" x="-28" y="193" flags="0x4"/>
    </TTGlyph>
    <TTGlyph name="Idotaccent" xMin="37" yMin="-20" xMax="633" yMax="1829">
      <component glyphName="I" x="0" y="0" flags="0x204"/>
      <component glyphName="dotaccent" x="172" y="172" flags="0x4"/>
    </TTGlyph>
    <TTGlyph name="Igrave" xMin="-103" yMin="-20" xMax="633" yMax="2031">
      <component glyphName="I" x="0" y="0" flags="0x204"/>
      <component glyphName="grave" x="-103" y="262" flags="0x4"/>
    </TTGlyph>
    <TTGlyph name="Imacron" xMin="37" yMin="-20" xMax="633" yMax="1751">
      <component glyphName="I" x="0" y="0" flags="0x204"/>
      <component glyphName="macron" x="41" y="190" flags="0x4"/>
    </TTGlyph>
    <TTGlyph name="Iogonek" xMin="37" yMin="-391" xMax="633" yMax="1460">
      <contour>
        <pt x="578" y="-295" on="1"/>
        <pt x="556" y="-297" on="0"/>
        <pt x="504" y="-327" on="0"/>
        <pt x="443" y="-362" on="0"/>
        <pt x="374" y="-391" on="0"/>
        <pt x="336" y="-391" on="1"/>
        <pt x="299" y="-391" on="0"/>
        <pt x="238" y="-362" on="0"/>
        <pt x="193" y="-312" on="0"/>
        <pt x="168" y="-247" on="0"/>
        <pt x="168" y="-211" on="1"/>
        <pt x="168" y="-190" on="0"/>
        <pt x="186" y="-136" on="0"/>
        <pt x="215" y="-78" on="0"/>
        <pt x="250" y="-19" on="0"/>
        <pt x="268" y="6" on="1"/>
        <pt x="214" y="3" on="0"/>
        <pt x="99" y="-9" on="0"/>
        <pt x="37" y="-20" on="1"/>
        <pt x="59" y="25" on="0"/>
        <pt x="91" y="163" on="0"/>
        <pt x="112" y="320" on="0"/>
        <pt x="124" y="482" on="0"/>
        <pt x="130" y="622" on="0"/>
        <pt x="131" y="724" on="0"/>
        <pt x="131" y="743" on="1"/>
        <pt x="131" y="747" on="0"/>
        <pt x="130" y="801" on="0"/>
        <pt x="128" y="887" on="0"/>
        <pt x="124" y="998" on="0"/>
        <pt x="117" y="1118" on="0"/>
        <pt x="106" y="1240" on="0"/>
        <pt x="91" y="1348" on="0"/>
        <pt x="72" y="1435" on="0"/>
        <pt x="59" y="1460" on="1"/>
        <pt x="160" y="1442" on="0"/>
        <pt x="329" y="1430" on="0"/>
        <pt x="397" y="1430" on="1"/>
        <pt x="442" y="1430" on="0"/>
        <pt x="514" y="1434" on="0"/>
        <pt x="539" y="1436" on="1"/>
        <pt x="568" y="1439" on="0"/>
        <pt x="590" y="1442" on="1"/>
        <pt x="578" y="1386" on="0"/>
        <pt x="560" y="1249" on="0"/>
        <pt x="546" y="1094" on="0"/>
        <pt x="539" y="924" on="0"/>
        <pt x="539" y="834" on="1"/>
        <pt x="539" y="730" on="0"/>
        <pt x="549" y="515" on="0"/>
        <pt x="572" y="303" on="0"/>
        <pt x="607" y="99" on="0"/>
        <pt x="633" y="6" on="1"/>
        <pt x="612" y="8" on="0"/>
        <pt x="586" y="10" on="1"/>
        <pt x="563" y="12" on="0"/>
        <pt x="499" y="14" on="0"/>
        <pt x="457" y="14" on="1"/>
        <pt x="441" y="14" on="0"/>
        <pt x="408" y="14" on="0"/>
        <pt x="391" y="12" on="1"/>
        <pt x="377" y="-10" on="0"/>
        <pt x="349" y="-63" on="0"/>
        <pt x="326" y="-116" on="0"/>
        <pt x="311" y="-161" on="0"/>
        <pt x="311" y="-176" on="1"/>
        <pt x="311" y="-198" on="0"/>
        <pt x="338" y="-219" on="0"/>
        <pt x="358" y="-219" on="1"/>
        <pt x="376" y="-219" on="0"/>
        <pt x="405" y="-199" on="0"/>
        <pt x="428" y="-170" on="0"/>
        <pt x="445" y="-137" on="0"/>
        <pt x="451" y="-123" on="1"/>
        <pt x="459" y="-146" on="0"/>
        <pt x="485" y="-195" on="0"/>
        <pt x="518" y="-241" on="0"/>
        <pt x="557" y="-281" on="0"/>
      </contour>
    </TTGlyph>
    <TTGlyph name="Itilde" xMin="-40" yMin="-20" xMax="716" yMax="1856">
      <component glyphName="I" x="0" y="0" flags="0x204"/>
      <component glyphName="tilde" x="-40" y="201" flags="0x4"/>
    </TTGlyph>
    <TTGlyph name="J" xMin="-4" yMin="-70" xMax="1126" yMax="1464">
      <contour>
        <pt x="1126" y="1436" on="1"/>
        <pt x="1113" y="1404" on="0"/>
        <pt x="1094" y="1322" on="0"/>
        <pt x="1079" y="1232" on="0"/>
        <pt x="1068" y="1138" on="0"/>
        <pt x="1065" y="1094" on="1"/>
        <pt x="1057" y="990" on="0"/>
        <pt x="1055" y="879" on="1"/>
        <pt x="1055" y="810" on="0"/>
        <pt x="1054" y="656" on="0"/>
        <pt x="1043" y="496" on="0"/>
        <pt x="1016" y="339" on="0"/>
        <pt x="961" y="195" on="0"/>
        <pt x="874" y="72" on="0"/>
        <pt x="742" y="-19" on="0"/>
        <pt x="561" y="-70" on="0"/>
        <pt x="440" y="-70" on="1"/>
        <pt x="334" y="-70" on="0"/>
        <pt x="169" y="0" on="0"/>
        <pt x="55" y="116" on="0"/>
        <pt x="-4" y="268" on="0"/>
        <pt x="-4" y="350" on="1"/>
        <pt x="-4" y="425" on="0"/>
        <pt x="44" y="543" on="0"/>
        <pt x="122" y="624" on="0"/>
        <pt x="222" y="666" on="0"/>
        <pt x="274" y="666" on="1"/>
        <pt x="347" y="666" on="0"/>
        <pt x="476" y="580" on="0"/>
        <pt x="510" y="492" on="1"/>
        <pt x="498" y="503" on="0"/>
        <pt x="469" y="514" on="0"/>
        <pt x="457" y="514" on="1"/>
        <pt x="440" y="514" on="0"/>
        <pt x="408" y="499" on="0"/>
        <pt x="384" y="472" on="0"/>
        <pt x="369" y="437" on="0"/>
        <pt x="369" y="416" on="1"/>
        <pt x="369" y="392" on="0"/>
        <pt x="386" y="353" on="0"/>
        <pt x="416" y="326" on="0"/>
        <pt x="455" y="311" on="0"/>
        <pt x="477" y="311" on="1"/>
        <pt x="523" y="311" on="0"/>
        <pt x="586" y="358" on="0"/>
        <pt x="624" y="454" on="0"/>
        <pt x="641" y="600" on="0"/>
        <pt x="641" y="700" on="1"/>
        <pt x="641" y="767" on="0"/>
        <pt x="636" y="916" on="0"/>
        <pt x="626" y="1066" on="0"/>
        <pt x="610" y="1209" on="0"/>
        <pt x="587" y="1334" on="0"/>
        <pt x="559" y="1434" on="0"/>
        <pt x="541" y="1464" on="1"/>
        <pt x="577" y="1451" on="0"/>
        <pt x="627" y="1441" on="1"/>
        <pt x="670" y="1433" on="0"/>
        <pt x="798" y="1419" on="0"/>
        <pt x="883" y="1419" on="1"/>
        <pt x="937" y="1419" on="0"/>
        <pt x="1057" y="1426" on="0"/>
      </contour>
    </TTGlyph>
    <TTGlyph name="Jcircumflex" xMin="-4" yMin="-70" xMax="1190" yMax="1925">
      <component glyphName="J" x="0" y="0" flags="0x204"/>
      <component glyphName="circumflex" x="506" y="158" flags="0x4"/>
    </TTGlyph>
    <TTGlyph name="K" xMin="12" yMin="-59" xMax="1227" yMax="1442">
      <contour>
        <pt x="1227" y="-35" on="1"/>
        <pt x="1159" y="-30" on="0"/>
        <pt x="1045" y="-27" on="0"/>
        <pt x="995" y="-27" on="1"/>
        <pt x="904" y="-27" on="0"/>
        <pt x="779" y="-37" on="0"/>
        <pt x="740" y="-43" on="1"/>
        <pt x="694" y="-50" on="0"/>
        <pt x="666" y="-59" on="1"/>
        <pt x="670" y="-28" on="0"/>
        <pt x="678" y="29" on="0"/>
        <pt x="683" y="85" on="0"/>
        <pt x="686" y="141" on="0"/>
        <pt x="686" y="172" on="1"/>
        <pt x="686" y="283" on="0"/>
        <pt x="669" y="432" on="0"/>
        <pt x="637" y="530" on="0"/>
        <pt x="591" y="592" on="0"/>
        <pt x="563" y="616" on="1"/>
        <pt x="561" y="571" on="0"/>
        <pt x="559" y="487" on="0"/>
        <pt x="559" y="440" on="1"/>
        <pt x="559" y="393" on="0"/>
        <pt x="563" y="293" on="0"/>
        <pt x="573" y="180" on="0"/>
        <pt x="593" y="53" on="0"/>
        <pt x="608" y="-20" on="1"/>
        <pt x="570" y="-17" on="0"/>
        <pt x="523" y="-13" on="1"/>
        <pt x="483" y="-11" on="0"/>
        <pt x="373" y="-6" on="0"/>
        <pt x="307" y="-6" on="1"/>
        <pt x="241" y="-6" on="0"/>
        <pt x="93" y="-12" on="0"/>
        <pt x="12" y="-20" on="1"/>
        <pt x="36" y="10" on="0"/>
        <pt x="75" y="106" on="0"/>
        <pt x="105" y="221" on="0"/>
        <pt x="126" y="347" on="0"/>
        <pt x="134" y="408" on="1"/>
        <pt x="152" y="551" on="0"/>
        <pt x="158" y="713" on="1"/>
        <pt x="158" y="798" on="0"/>
        <pt x="154" y="978" on="0"/>
        <pt x="138" y="1157" on="0"/>
        <pt x="107" y="1331" on="0"/>
        <pt x="80" y="1409" on="1"/>
        <pt x="122" y="1406" on="0"/>
        <pt x="204" y="1401" on="0"/>
        <pt x="246" y="1401" on="1"/>
        <pt x="443" y="1401" on="0"/>
        <pt x="633" y="1442" on="1"/>
        <pt x="589" y="1312" on="0"/>
        <pt x="551" y="1057" on="0"/>
        <pt x="551" y="930" on="1"/>
        <pt x="551" y="899" on="0"/>
        <pt x="552" y="838" on="0"/>
        <pt x="555" y="807" on="1"/>
        <pt x="640" y="915" on="0"/>
        <pt x="731" y="1123" on="0"/>
        <pt x="731" y="1223" on="1"/>
        <pt x="731" y="1274" on="0"/>
        <pt x="708" y="1371" on="0"/>
        <pt x="682" y="1419" on="1"/>
        <pt x="732" y="1414" on="0"/>
        <pt x="831" y="1409" on="0"/>
        <pt x="881" y="1409" on="1"/>
        <pt x="967" y="1409" on="0"/>
        <pt x="1139" y="1425" on="0"/>
        <pt x="1227" y="1442" on="1"/>
        <pt x="1210" y="1416" on="0"/>
        <pt x="1182" y="1357" on="0"/>
        <pt x="1159" y="1294" on="0"/>
        <pt x="1140" y="1230" on="0"/>
        <pt x="1133" y="1201" on="1"/>
        <pt x="1116" y="1132" on="0"/>
        <pt x="1106" y="1061" on="1"/>
        <pt x="1095" y="991" on="0"/>
        <pt x="1069" y="928" on="1"/>
        <pt x="1058" y="901" on="0"/>
        <pt x="1026" y="844" on="0"/>
        <pt x="984" y="791" on="0"/>
        <pt x="931" y="744" on="0"/>
        <pt x="897" y="727" on="1"/>
        <pt x="967" y="698" on="0"/>
        <pt x="1042" y="612" on="0"/>
        <pt x="1080" y="503" on="0"/>
        <pt x="1096" y="374" on="0"/>
        <pt x="1108" y="303" on="1"/>
        <pt x="1119" y="243" on="0"/>
        <pt x="1136" y="183" on="1"/>
        <pt x="1150" y="132" on="0"/>
        <pt x="1195" y="14" on="0"/>
      </contour>
    </TTGlyph>
    <TTGlyph name="Kcommaaccent" xMin="12" yMin="-438" xMax="1227" yMax="1442">
      <component glyphName="K" x="0" y="0" flags="0x204"/>
      <component glyphName="uni0326" x="440" y="0" flags="0x4"/>
    </TTGlyph>
    <TTGlyph name="L" xMin="41" yMin="-31" xMax="952" yMax="1450">
      <contour>
        <pt x="952" y="-14" on="1"/>
        <pt x="917" y="-6" on="0"/>
        <pt x="822" y="6" on="0"/>
        <pt x="719" y="12" on="0"/>
        <pt x="618" y="15" on="0"/>
        <pt x="537" y="16" on="0"/>
        <pt x="485" y="16" on="0"/>
        <pt x="483" y="16" on="1"/>
        <pt x="421" y="15" on="0"/>
        <pt x="349" y="10" on="1"/>
        <pt x="287" y="5" on="0"/>
        <pt x="128" y="-14" on="0"/>
        <pt x="41" y="-31" on="1"/>
        <pt x="61" y="46" on="0"/>
        <pt x="91" y="237" on="0"/>
        <pt x="111" y="451" on="0"/>
        <pt x="121" y="679" on="0"/>
        <pt x="121" y="793" on="1"/>
        <pt x="121" y="887" on="0"/>
        <pt x="114" y="1070" on="0"/>
        <pt x="99" y="1238" on="0"/>
        <pt x="78" y="1388" on="0"/>
        <pt x="63" y="1450" on="1"/>
        <pt x="167" y="1431" on="0"/>
        <pt x="336" y="1419" on="0"/>
        <pt x="401" y="1419" on="1"/>
        <pt x="442" y="1419" on="0"/>
        <pt x="506" y="1422" on="0"/>
        <pt x="528" y="1424" on="1"/>
        <pt x="554" y="1427" on="0"/>
        <pt x="573" y="1430" on="1"/>
        <pt x="551" y="1358" on="0"/>
        <pt x="513" y="1190" on="0"/>
        <pt x="486" y="1013" on="0"/>
        <pt x="471" y="835" on="0"/>
        <pt x="471" y="754" on="1"/>
        <pt x="471" y="651" on="0"/>
        <pt x="497" y="504" on="0"/>
        <pt x="548" y="411" on="0"/>
        <pt x="621" y="367" on="0"/>
        <pt x="668" y="367" on="1"/>
        <pt x="731" y="367" on="0"/>
        <pt x="854" y="458" on="0"/>
        <pt x="899" y="545" on="1"/>
      </contour>
    </TTGlyph>
    <TTGlyph name="Lacute" xMin="41" yMin="-31" xMax="952" yMax="1972">
      <component glyphName="L" x="0" y="0" flags="0x204"/>
      <component glyphName="acute" x="211" y="203" flags="0x4"/>
    </TTGlyph>
    <TTGlyph name="Lcaron" xMin="41" yMin="-31" xMax="952" yMax="1483">
      <component glyphName="L" x="0" y="0" flags="0x4"/>
      <component glyphName="uni0315" x="618" y="-239" flags="0x4"/>
    </TTGlyph>
    <TTGlyph name="Lcommaaccent" xMin="41" yMin="-438" xMax="952" yMax="1450">
      <component glyphName="L" x="0" y="0" flags="0x204"/>
      <component glyphName="uni0326" x="309" y="0" flags="0x4"/>
    </TTGlyph>
    <TTGlyph name="Ldot" xMin="41" yMin="-31" xMax="1366" yMax="1450">
      <component glyphName="L" x="0" y="0" flags="0x4"/>
      <component glyphName="periodcentered" x="907" y="0" flags="0x4"/>
    </TTGlyph>
    <TTGlyph name="Lslash" xMin="0" yMin="-31" xMax="1016" yMax="1450">
      <contour>
        <pt x="729" y="1112" on="1"/>
        <pt x="720" y="1056" on="0"/>
        <pt x="715" y="956" on="0"/>
        <pt x="715" y="905" on="1"/>
        <pt x="715" y="854" on="0"/>
        <pt x="720" y="757" on="0"/>
        <pt x="729" y="709" on="1"/>
        <pt x="712" y="714" on="0"/>
        <pt x="676" y="717" on="0"/>
        <pt x="657" y="717" on="1"/>
        <pt x="597" y="717" on="0"/>
        <pt x="535" y="700" on="1"/>
        <pt x="538" y="607" on="0"/>
        <pt x="570" y="480" on="0"/>
        <pt x="621" y="402" on="0"/>
        <pt x="690" y="367" on="0"/>
        <pt x="731" y="367" on="1"/>
        <pt x="794" y="367" on="0"/>
        <pt x="918" y="458" on="0"/>
        <pt x="963" y="545" on="1"/>
        <pt x="1016" y="-14" on="1"/>
        <pt x="981" y="-6" on="0"/>
        <pt x="886" y="6" on="0"/>
        <pt x="783" y="12" on="0"/>
        <pt x="682" y="15" on="0"/>
        <pt x="601" y="16" on="0"/>
        <pt x="549" y="16" on="0"/>
        <pt x="547" y="16" on="1"/>
        <pt x="484" y="15" on="0"/>
        <pt x="412" y="10" on="1"/>
        <pt x="350" y="5" on="0"/>
        <pt x="192" y="-14" on="0"/>
        <pt x="104" y="-31" on="1"/>
        <pt x="133" y="84" on="0"/>
        <pt x="172" y="391" on="0"/>
        <pt x="180" y="561" on="1"/>
        <pt x="134" y="538" on="0"/>
        <pt x="43" y="484" on="0"/>
        <pt x="0" y="453" on="1"/>
        <pt x="4" y="468" on="0"/>
        <pt x="10" y="511" on="0"/>
        <pt x="13" y="557" on="0"/>
        <pt x="14" y="599" on="0"/>
        <pt x="14" y="612" on="1"/>
        <pt x="14" y="671" on="0"/>
        <pt x="5" y="784" on="0"/>
        <pt x="0" y="838" on="1"/>
        <pt x="8" y="836" on="0"/>
        <pt x="26" y="836" on="0"/>
        <pt x="37" y="836" on="1"/>
        <pt x="104" y="836" on="0"/>
        <pt x="184" y="854" on="1"/>
        <pt x="182" y="940" on="0"/>
        <pt x="174" y="1105" on="0"/>
        <pt x="160" y="1258" on="0"/>
        <pt x="140" y="1394" on="0"/>
        <pt x="127" y="1450" on="1"/>
        <pt x="230" y="1431" on="0"/>
        <pt x="400" y="1419" on="0"/>
        <pt x="465" y="1419" on="1"/>
        <pt x="506" y="1419" on="0"/>
        <pt x="568" y="1422" on="0"/>
        <pt x="591" y="1424" on="1"/>
        <pt x="617" y="1427" on="0"/>
        <pt x="637" y="1430" on="1"/>
        <pt x="606" y="1336" on="0"/>
        <pt x="561" y="1107" on="0"/>
        <pt x="549" y="989" on="1"/>
        <pt x="600" y="1017" on="0"/>
        <pt x="694" y="1078" on="0"/>
      </contour>
    </TTGlyph>
    <TTGlyph name="M" xMin="39" yMin="-20" xMax="1485" yMax="1460">
      <contour>
        <pt x="604" y="6" on="1"/>
        <pt x="587" y="8" on="0"/>
        <pt x="562" y="10" on="1"/>
        <pt x="541" y="12" on="0"/>
        <pt x="480" y="14" on="0"/>
        <pt x="442" y="14" on="1"/>
        <pt x="368" y="14" on="0"/>
        <pt x="164" y="0" on="0"/>
        <pt x="39" y="-20" on="1"/>
        <pt x="92" y="203" on="0"/>
        <pt x="133" y="631" on="0"/>
        <pt x="133" y="829" on="1"/>
        <pt x="133" y="1009" on="0"/>
        <pt x="105" y="1326" on="0"/>
        <pt x="82" y="1460" on="1"/>
        <pt x="182" y="1442" on="0"/>
        <pt x="341" y="1430" on="0"/>
        <pt x="399" y="1430" on="1"/>
        <pt x="439" y="1430" on="0"/>
        <pt x="500" y="1434" on="0"/>
        <pt x="520" y="1436" on="1"/>
        <pt x="544" y="1439" on="0"/>
        <pt x="561" y="1442" on="1"/>
        <pt x="595" y="1246" on="0"/>
        <pt x="697" y="863" on="0"/>
        <pt x="772" y="670" on="1"/>
        <pt x="835" y="865" on="0"/>
        <pt x="909" y="1256" on="0"/>
        <pt x="922" y="1460" on="1"/>
        <pt x="930" y="1442" on="1"/>
        <pt x="922" y="1460" on="1"/>
        <pt x="1022" y="1442" on="0"/>
        <pt x="1186" y="1430" on="0"/>
        <pt x="1249" y="1430" on="1"/>
        <pt x="1291" y="1430" on="0"/>
        <pt x="1355" y="1434" on="0"/>
        <pt x="1378" y="1436" on="1"/>
        <pt x="1404" y="1439" on="0"/>
        <pt x="1423" y="1442" on="1"/>
        <pt x="1402" y="1342" on="0"/>
        <pt x="1380" y="1069" on="0"/>
        <pt x="1380" y="913" on="1"/>
        <pt x="1380" y="802" on="0"/>
        <pt x="1392" y="567" on="0"/>
        <pt x="1417" y="334" on="0"/>
        <pt x="1457" y="108" on="0"/>
        <pt x="1485" y="6" on="1"/>
        <pt x="1465" y="8" on="0"/>
        <pt x="1439" y="10" on="1"/>
        <pt x="1416" y="12" on="0"/>
        <pt x="1354" y="14" on="0"/>
        <pt x="1313" y="14" on="1"/>
        <pt x="1235" y="14" on="0"/>
        <pt x="1024" y="0" on="0"/>
        <pt x="899" y="-20" on="1"/>
        <pt x="924" y="30" on="0"/>
        <pt x="957" y="186" on="0"/>
        <pt x="978" y="362" on="0"/>
        <pt x="989" y="537" on="0"/>
        <pt x="991" y="606" on="1"/>
        <pt x="962" y="544" on="0"/>
        <pt x="908" y="416" on="0"/>
        <pt x="851" y="271" on="0"/>
        <pt x="789" y="103" on="0"/>
        <pt x="752" y="0" on="1"/>
        <pt x="714" y="103" on="0"/>
        <pt x="652" y="271" on="0"/>
        <pt x="597" y="415" on="0"/>
        <pt x="544" y="544" on="0"/>
        <pt x="516" y="608" on="1"/>
        <pt x="525" y="450" on="0"/>
        <pt x="567" y="143" on="0"/>
      </contour>
    </TTGlyph>
    <TTGlyph name="N" xMin="37" yMin="-20" xMax="1284" yMax="1460">
      <contour>
        <pt x="618" y="6" on="1"/>
        <pt x="599" y="8" on="0"/>
        <pt x="573" y="10" on="1"/>
        <pt x="551" y="12" on="0"/>
        <pt x="489" y="14" on="0"/>
        <pt x="449" y="14" on="1"/>
        <pt x="371" y="14" on="0"/>
        <pt x="162" y="0" on="0"/>
        <pt x="37" y="-20" on="1"/>
        <pt x="59" y="25" on="0"/>
        <pt x="91" y="163" on="0"/>
        <pt x="112" y="320" on="0"/>
        <pt x="124" y="482" on="0"/>
        <pt x="130" y="622" on="0"/>
        <pt x="131" y="724" on="0"/>
        <pt x="131" y="743" on="1"/>
        <pt x="131" y="747" on="0"/>
        <pt x="130" y="801" on="0"/>
        <pt x="128" y="887" on="0"/>
        <pt x="124" y="998" on="0"/>
        <pt x="117" y="1118" on="0"/>
        <pt x="106" y="1240" on="0"/>
        <pt x="91" y="1348" on="0"/>
        <pt x="72" y="1435" on="0"/>
        <pt x="59" y="1460" on="1"/>
        <pt x="160" y="1442" on="0"/>
        <pt x="326" y="1430" on="0"/>
        <pt x="391" y="1430" on="1"/>
        <pt x="435" y="1430" on="0"/>
        <pt x="504" y="1434" on="0"/>
        <pt x="527" y="1436" on="1"/>
        <pt x="554" y="1439" on="0"/>
        <pt x="575" y="1442" on="1"/>
        <pt x="618" y="1230" on="0"/>
        <pt x="728" y="868" on="0"/>
        <pt x="797" y="713" on="1"/>
        <pt x="797" y="754" on="1"/>
        <pt x="794" y="917" on="0"/>
        <pt x="786" y="1058" on="1"/>
        <pt x="782" y="1118" on="0"/>
        <pt x="772" y="1240" on="0"/>
        <pt x="757" y="1348" on="0"/>
        <pt x="738" y="1435" on="0"/>
        <pt x="725" y="1460" on="1"/>
        <pt x="825" y="1442" on="0"/>
        <pt x="994" y="1430" on="0"/>
        <pt x="1059" y="1430" on="1"/>
        <pt x="1103" y="1430" on="0"/>
        <pt x="1172" y="1434" on="0"/>
        <pt x="1195" y="1436" on="1"/>
        <pt x="1222" y="1439" on="0"/>
        <pt x="1243" y="1442" on="1"/>
        <pt x="1231" y="1386" on="0"/>
        <pt x="1213" y="1248" on="0"/>
        <pt x="1199" y="1092" on="0"/>
        <pt x="1192" y="920" on="0"/>
        <pt x="1192" y="829" on="1"/>
        <pt x="1192" y="726" on="0"/>
        <pt x="1202" y="513" on="0"/>
        <pt x="1225" y="302" on="0"/>
        <pt x="1260" y="99" on="0"/>
        <pt x="1284" y="6" on="1"/>
        <pt x="1266" y="8" on="0"/>
        <pt x="1241" y="10" on="1"/>
        <pt x="1220" y="12" on="0"/>
        <pt x="1160" y="14" on="0"/>
        <pt x="1122" y="14" on="1"/>
        <pt x="1050" y="14" on="0"/>
        <pt x="862" y="0" on="0"/>
        <pt x="754" y="-20" on="1"/>
        <pt x="754" y="83" on="0"/>
        <pt x="721" y="280" on="0"/>
        <pt x="661" y="471" on="0"/>
        <pt x="577" y="655" on="0"/>
        <pt x="526" y="745" on="1"/>
        <pt x="527" y="651" on="0"/>
        <pt x="540" y="459" on="0"/>
        <pt x="563" y="271" on="0"/>
        <pt x="596" y="90" on="0"/>
      </contour>
    </TTGlyph>
    <TTGlyph name="Nacute" xMin="37" yMin="-20" xMax="1284" yMax="2013">
      <component glyphName="N" x="0" y="0" flags="0x204"/>
      <component glyphName="acute" x="520" y="244" flags="0x4"/>
    </TTGlyph>
    <TTGlyph name="Ncaron" xMin="37" yMin="-20" xMax="1284" yMax="1964">
      <component glyphName="N" x="0" y="0" flags="0x204"/>
      <component glyphName="caron" x="319" y="197" flags="0x4"/>
    </TTGlyph>
    <TTGlyph name="Ncommaaccent" xMin="37" yMin="-438" xMax="1284" yMax="1460">
      <component glyphName="N" x="0" y="0" flags="0x204"/>
      <component glyphName="uni0326" x="547" y="0" flags="0x4"/>
    </TTGlyph>
    <TTGlyph name="Ntilde" xMin="37" yMin="-20" xMax="1284" yMax="1854">
      <component glyphName="N" x="0" y="0" flags="0x204"/>
      <component glyphName="tilde" x="289" y="199" flags="0x4"/>
    </TTGlyph>
    <TTGlyph name="O" xMin="41" yMin="-63" xMax="1163" yMax="1481">
      <contour>
        <pt x="1163" y="670" on="1"/>
        <pt x="1163" y="518" on="0"/>
        <pt x="1095" y="251" on="0"/>
        <pt x="957" y="52" on="0"/>
        <pt x="746" y="-63" on="0"/>
        <pt x="602" y="-63" on="1"/>
        <pt x="459" y="-63" on="0"/>
        <pt x="248" y="52" on="0"/>
        <pt x="109" y="251" on="0"/>
        <pt x="41" y="518" on="0"/>
        <pt x="41" y="670" on="1"/>
        <pt x="41" y="782" on="0"/>
        <pt x="83" y="990" on="0"/>
        <pt x="157" y="1170" on="0"/>
        <pt x="261" y="1318" on="0"/>
        <pt x="386" y="1423" on="0"/>
        <pt x="527" y="1481" on="0"/>
        <pt x="602" y="1481" on="1"/>
        <pt x="728" y="1481" on="0"/>
        <pt x="935" y="1358" on="0"/>
        <pt x="1082" y="1140" on="0"/>
        <pt x="1163" y="844" on="0"/>
      </contour>
      <contour>
        <pt x="754" y="756" on="1"/>
        <pt x="754" y="831" on="0"/>
        <pt x="730" y="958" on="0"/>
        <pt x="689" y="1051" on="0"/>
        <pt x="633" y="1104" on="0"/>
        <pt x="602" y="1104" on="1"/>
        <pt x="572" y="1104" on="0"/>
        <pt x="518" y="1041" on="0"/>
        <pt x="477" y="941" on="0"/>
        <pt x="453" y="817" on="0"/>
        <pt x="453" y="756" on="1"/>
        <pt x="453" y="697" on="0"/>
        <pt x="474" y="596" on="0"/>
        <pt x="512" y="522" on="0"/>
        <pt x="567" y="479" on="0"/>
        <pt x="602" y="479" on="1"/>
        <pt x="636" y="479" on="0"/>
        <pt x="693" y="522" on="0"/>
        <pt x="732" y="596" on="0"/>
        <pt x="754" y="697" on="0"/>
      </contour>
    </TTGlyph>
    <TTGlyph name="OE" xMin="41" yMin="-63" xMax="1657" yMax="1481">
      <contour>
        <pt x="1657" y="-14" on="1"/>
        <pt x="1605" y="-4" on="0"/>
        <pt x="1496" y="7" on="0"/>
        <pt x="1375" y="13" on="0"/>
        <pt x="1239" y="14" on="0"/>
        <pt x="1161" y="14" on="1"/>
        <pt x="1136" y="14" on="0"/>
        <pt x="1069" y="13" on="0"/>
        <pt x="991" y="10" on="0"/>
        <pt x="906" y="4" on="0"/>
        <pt x="862" y="0" on="1"/>
        <pt x="808" y="-29" on="0"/>
        <pt x="677" y="-63" on="0"/>
        <pt x="602" y="-63" on="1"/>
        <pt x="459" y="-63" on="0"/>
        <pt x="248" y="52" on="0"/>
        <pt x="109" y="251" on="0"/>
        <pt x="41" y="518" on="0"/>
        <pt x="41" y="670" on="1"/>
        <pt x="41" y="782" on="0"/>
        <pt x="83" y="990" on="0"/>
        <pt x="157" y="1170" on="0"/>
        <pt x="261" y="1318" on="0"/>
        <pt x="386" y="1423" on="0"/>
        <pt x="527" y="1481" on="0"/>
        <pt x="602" y="1481" on="1"/>
        <pt x="652" y="1481" on="0"/>
        <pt x="743" y="1460" on="0"/>
        <pt x="786" y="1442" on="1"/>
        <pt x="868" y="1431" on="0"/>
        <pt x="1029" y="1423" on="0"/>
        <pt x="1106" y="1423" on="1"/>
        <pt x="1215" y="1423" on="0"/>
        <pt x="1404" y="1435" on="0"/>
        <pt x="1474" y="1443" on="1"/>
        <pt x="1556" y="1452" on="0"/>
        <pt x="1624" y="1464" on="1"/>
        <pt x="1624" y="995" on="1"/>
        <pt x="1566" y="1049" on="0"/>
        <pt x="1460" y="1107" on="0"/>
        <pt x="1419" y="1121" on="1"/>
        <pt x="1371" y="1137" on="0"/>
        <pt x="1329" y="1139" on="1"/>
        <pt x="1279" y="1139" on="0"/>
        <pt x="1217" y="1114" on="0"/>
        <pt x="1182" y="1075" on="0"/>
        <pt x="1169" y="1026" on="0"/>
        <pt x="1169" y="1001" on="1"/>
        <pt x="1169" y="975" on="0"/>
        <pt x="1184" y="923" on="0"/>
        <pt x="1217" y="881" on="0"/>
        <pt x="1267" y="854" on="0"/>
        <pt x="1303" y="854" on="1"/>
        <pt x="1330" y="854" on="0"/>
        <pt x="1375" y="879" on="0"/>
        <pt x="1410" y="909" on="0"/>
        <pt x="1431" y="937" on="0"/>
        <pt x="1434" y="940" on="1"/>
        <pt x="1434" y="535" on="1"/>
        <pt x="1418" y="573" on="0"/>
        <pt x="1375" y="617" on="0"/>
        <pt x="1334" y="638" on="0"/>
        <pt x="1300" y="643" on="0"/>
        <pt x="1294" y="643" on="1"/>
        <pt x="1229" y="643" on="0"/>
        <pt x="1165" y="563" on="0"/>
        <pt x="1165" y="500" on="1"/>
        <pt x="1165" y="454" on="0"/>
        <pt x="1186" y="390" on="0"/>
        <pt x="1221" y="350" on="0"/>
        <pt x="1268" y="332" on="0"/>
        <pt x="1294" y="332" on="1"/>
        <pt x="1335" y="332" on="0"/>
        <pt x="1426" y="368" on="0"/>
        <pt x="1512" y="428" on="0"/>
        <pt x="1583" y="505" on="0"/>
        <pt x="1604" y="545" on="1"/>
      </contour>
      <contour>
        <pt x="754" y="756" on="1"/>
        <pt x="754" y="831" on="0"/>
        <pt x="730" y="958" on="0"/>
        <pt x="689" y="1051" on="0"/>
        <pt x="633" y="1104" on="0"/>
        <pt x="602" y="1104" on="1"/>
        <pt x="572" y="1104" on="0"/>
        <pt x="518" y="1041" on="0"/>
        <pt x="477" y="941" on="0"/>
        <pt x="453" y="817" on="0"/>
        <pt x="453" y="756" on="1"/>
        <pt x="453" y="697" on="0"/>
        <pt x="474" y="596" on="0"/>
        <pt x="512" y="522" on="0"/>
        <pt x="567" y="479" on="0"/>
        <pt x="602" y="479" on="1"/>
        <pt x="636" y="479" on="0"/>
        <pt x="693" y="522" on="0"/>
        <pt x="732" y="596" on="0"/>
        <pt x="754" y="697" on="0"/>
      </contour>
    </TTGlyph>
    <TTGlyph name="Oacute" xMin="41" yMin="-63" xMax="1163" yMax="2045">
      <component glyphName="O" x="0" y="0" flags="0x204"/>
      <component glyphName="acute" x="580" y="276" flags="0x4"/>
    </TTGlyph>
    <TTGlyph name="Obreve" xMin="41" yMin="-63" xMax="1163" yMax="1930">
      <component glyphName="O" x="0" y="0" flags="0x204"/>
      <component glyphName="breve" x="289" y="199" flags="0x4"/>
    </TTGlyph>
    <TTGlyph name="Ocircumflex" xMin="41" yMin="-63" xMax="1163" yMax="1996">
      <component glyphName="O" x="0" y="0" flags="0x204"/>
      <component glyphName="circumflex" x="260" y="229" flags="0x4"/>
    </TTGlyph>
    <TTGlyph name="Odieresis" xMin="41" yMin="-63" xMax="1163" yMax="1856">
      <component glyphName="O" x="0" y="0" flags="0x204"/>
      <component glyphName="dieresis" x="238" y="199" flags="0x4"/>
    </TTGlyph>
    <TTGlyph name="Ograve" xMin="41" yMin="-63" xMax="1163" yMax="2048">
      <component glyphName="O" x="0" y="0" flags="0x204"/>
      <component glyphName="grave" x="162" y="279" flags="0x4"/>
    </TTGlyph>
    <TTGlyph name="Ohungarumlaut" xMin="41" yMin="-63" xMax="1214" yMax="2023">
      <component glyphName="O" x="0" y="0" flags="0x204"/>
      <component glyphName="hungarumlaut" x="274" y="254" flags="0x4"/>
    </TTGlyph>
    <TTGlyph name="Omacron" xMin="41" yMin="-63" xMax="1163" yMax="1764">
      <component glyphName="O" x="0" y="0" flags="0x204"/>
      <component glyphName="macron" x="309" y="203" flags="0x4"/>
    </TTGlyph>
    <TTGlyph name="Oslash" xMin="41" yMin="-117" xMax="1163" yMax="1540">
      <contour>
        <pt x="1128" y="1540" on="1"/>
        <pt x="1090" y="1481" on="0"/>
        <pt x="1014" y="1356" on="0"/>
        <pt x="977" y="1290" on="1"/>
        <pt x="1021" y="1236" on="0"/>
        <pt x="1090" y="1100" on="0"/>
        <pt x="1138" y="942" on="0"/>
        <pt x="1163" y="765" on="0"/>
        <pt x="1163" y="670" on="1"/>
        <pt x="1163" y="518" on="0"/>
        <pt x="1095" y="251" on="0"/>
        <pt x="957" y="52" on="0"/>
        <pt x="746" y="-63" on="0"/>
        <pt x="602" y="-63" on="1"/>
        <pt x="528" y="-63" on="0"/>
        <pt x="400" y="-31" on="0"/>
        <pt x="346" y="-2" on="1"/>
        <pt x="291" y="-117" on="1"/>
        <pt x="273" y="-111" on="0"/>
        <pt x="227" y="-102" on="0"/>
        <pt x="176" y="-96" on="0"/>
        <pt x="121" y="-94" on="0"/>
        <pt x="96" y="-94" on="1"/>
        <pt x="53" y="-94" on="1"/>
        <pt x="85" y="-48" on="0"/>
        <pt x="157" y="62" on="0"/>
        <pt x="195" y="127" on="1"/>
        <pt x="116" y="229" on="0"/>
        <pt x="41" y="508" on="0"/>
        <pt x="41" y="670" on="1"/>
        <pt x="41" y="782" on="0"/>
        <pt x="83" y="990" on="0"/>
        <pt x="157" y="1170" on="0"/>
        <pt x="261" y="1318" on="0"/>
        <pt x="386" y="1423" on="0"/>
        <pt x="527" y="1481" on="0"/>
        <pt x="602" y="1481" on="1"/>
        <pt x="664" y="1481" on="0"/>
        <pt x="776" y="1449" on="0"/>
        <pt x="827" y="1421" on="1"/>
        <pt x="841" y="1452" on="0"/>
        <pt x="869" y="1512" on="0"/>
        <pt x="883" y="1540" on="1"/>
        <pt x="892" y="1536" on="0"/>
        <pt x="920" y="1532" on="0"/>
        <pt x="951" y="1529" on="0"/>
        <pt x="980" y="1528" on="0"/>
        <pt x="991" y="1528" on="1"/>
        <pt x="1005" y="1528" on="0"/>
        <pt x="1040" y="1530" on="0"/>
        <pt x="1078" y="1533" on="0"/>
        <pt x="1114" y="1538" on="0"/>
      </contour>
      <contour>
        <pt x="453" y="756" on="1"/>
        <pt x="453" y="725" on="0"/>
        <pt x="458" y="668" on="0"/>
        <pt x="463" y="643" on="1"/>
        <pt x="515" y="751" on="0"/>
        <pt x="618" y="968" on="0"/>
        <pt x="666" y="1071" on="1"/>
        <pt x="636" y="1104" on="0"/>
        <pt x="602" y="1104" on="1"/>
        <pt x="572" y="1104" on="0"/>
        <pt x="518" y="1041" on="0"/>
        <pt x="477" y="941" on="0"/>
        <pt x="453" y="817" on="0"/>
      </contour>
      <contour>
        <pt x="754" y="756" on="1"/>
        <pt x="754" y="807" on="0"/>
        <pt x="748" y="854" on="1"/>
        <pt x="703" y="761" on="0"/>
        <pt x="617" y="576" on="0"/>
        <pt x="573" y="483" on="1"/>
        <pt x="580" y="480" on="0"/>
        <pt x="594" y="479" on="0"/>
        <pt x="602" y="479" on="1"/>
        <pt x="636" y="479" on="0"/>
        <pt x="693" y="522" on="0"/>
        <pt x="732" y="596" on="0"/>
        <pt x="754" y="697" on="0"/>
      </contour>
    </TTGlyph>
    <TTGlyph name="Oslashacute" xMin="41" yMin="-117" xMax="1163" yMax="2041">
      <component glyphName="Oslash" x="0" y="0" flags="0x204"/>
      <component glyphName="acute" x="496" y="272" flags="0x4"/>
    </TTGlyph>
    <TTGlyph name="Otilde" xMin="41" yMin="-63" xMax="1163" yMax="1868">
      <component glyphName="O" x="0" y="0" flags="0x204"/>
      <component glyphName="tilde" x="223" y="213" flags="0x4"/>
    </TTGlyph>
    <TTGlyph name="P" xMin="43" yMin="-25" xMax="1100" yMax="1458">
      <contour>
        <pt x="1100" y="874" on="1"/>
        <pt x="1100" y="768" on="0"/>
        <pt x="1033" y="599" on="0"/>
        <pt x="923" y="480" on="0"/>
        <pt x="781" y="416" on="0"/>
        <pt x="705" y="416" on="1"/>
        <pt x="663" y="416" on="0"/>
        <pt x="581" y="435" on="0"/>
        <pt x="541" y="457" on="1"/>
        <pt x="550" y="383" on="0"/>
        <pt x="570" y="305" on="1"/>
        <pt x="587" y="238" on="0"/>
        <pt x="650" y="73" on="0"/>
        <pt x="702" y="-6" on="1"/>
        <pt x="600" y="5" on="0"/>
        <pt x="437" y="14" on="0"/>
        <pt x="371" y="14" on="1"/>
        <pt x="282" y="14" on="0"/>
        <pt x="161" y="2" on="0"/>
        <pt x="123" y="-6" on="1"/>
        <pt x="79" y="-15" on="0"/>
        <pt x="53" y="-25" on="1"/>
        <pt x="78" y="52" on="0"/>
        <pt x="114" y="234" on="0"/>
        <pt x="138" y="432" on="0"/>
        <pt x="150" y="639" on="0"/>
        <pt x="150" y="741" on="1"/>
        <pt x="150" y="852" on="0"/>
        <pt x="136" y="1065" on="0"/>
        <pt x="109" y="1252" on="0"/>
        <pt x="69" y="1406" on="0"/>
        <pt x="43" y="1458" on="1"/>
        <pt x="91" y="1443" on="0"/>
        <pt x="196" y="1430" on="0"/>
        <pt x="250" y="1430" on="1"/>
        <pt x="299" y="1430" on="0"/>
        <pt x="398" y="1439" on="0"/>
        <pt x="494" y="1449" on="0"/>
        <pt x="584" y="1458" on="0"/>
        <pt x="623" y="1458" on="1"/>
        <pt x="665" y="1458" on="0"/>
        <pt x="768" y="1436" on="0"/>
        <pt x="874" y="1383" on="0"/>
        <pt x="974" y="1295" on="0"/>
        <pt x="1052" y="1165" on="0"/>
        <pt x="1099" y="989" on="0"/>
      </contour>
      <contour>
        <pt x="530" y="711" on="1"/>
        <pt x="555" y="735" on="0"/>
        <pt x="620" y="804" on="0"/>
        <pt x="678" y="885" on="0"/>
        <pt x="717" y="971" on="0"/>
        <pt x="717" y="1010" on="1"/>
        <pt x="717" y="1055" on="0"/>
        <pt x="666" y="1108" on="0"/>
        <pt x="635" y="1108" on="1"/>
        <pt x="607" y="1108" on="0"/>
        <pt x="570" y="1070" on="0"/>
        <pt x="546" y="1009" on="0"/>
        <pt x="534" y="934" on="0"/>
        <pt x="528" y="861" on="0"/>
        <pt x="528" y="798" on="0"/>
        <pt x="528" y="780" on="1"/>
        <pt x="528" y="763" on="0"/>
        <pt x="528" y="729" on="0"/>
      </contour>
    </TTGlyph>
    <TTGlyph name="Q" xMin="41" yMin="-387" xMax="1163" yMax="1481">
      <contour>
        <pt x="1163" y="670" on="1"/>
        <pt x="1163" y="574" on="0"/>
        <pt x="1136" y="395" on="0"/>
        <pt x="1081" y="238" on="0"/>
        <pt x="998" y="106" on="0"/>
        <pt x="942" y="57" on="1"/>
        <pt x="1021" y="-86" on="0"/>
        <pt x="1159" y="-203" on="1"/>
        <pt x="979" y="-261" on="0"/>
        <pt x="844" y="-387" on="1"/>
        <pt x="819" y="-202" on="0"/>
        <pt x="752" y="-43" on="1"/>
        <pt x="717" y="-52" on="0"/>
        <pt x="642" y="-63" on="0"/>
        <pt x="602" y="-63" on="1"/>
        <pt x="459" y="-63" on="0"/>
        <pt x="248" y="52" on="0"/>
        <pt x="109" y="251" on="0"/>
        <pt x="41" y="518" on="0"/>
        <pt x="41" y="670" on="1"/>
        <pt x="41" y="782" on="0"/>
        <pt x="83" y="990" on="0"/>
        <pt x="157" y="1170" on="0"/>
        <pt x="261" y="1318" on="0"/>
        <pt x="386" y="1423" on="0"/>
        <pt x="527" y="1481" on="0"/>
        <pt x="602" y="1481" on="1"/>
        <pt x="728" y="1481" on="0"/>
        <pt x="935" y="1358" on="0"/>
        <pt x="1082" y="1140" on="0"/>
        <pt x="1163" y="844" on="0"/>
      </contour>
      <contour>
        <pt x="754" y="756" on="1"/>
        <pt x="754" y="831" on="0"/>
        <pt x="730" y="958" on="0"/>
        <pt x="689" y="1051" on="0"/>
        <pt x="633" y="1104" on="0"/>
        <pt x="602" y="1104" on="1"/>
        <pt x="572" y="1104" on="0"/>
        <pt x="518" y="1041" on="0"/>
        <pt x="477" y="941" on="0"/>
        <pt x="453" y="817" on="0"/>
        <pt x="453" y="756" on="1"/>
        <pt x="453" y="697" on="0"/>
        <pt x="474" y="596" on="0"/>
        <pt x="512" y="522" on="0"/>
        <pt x="567" y="479" on="0"/>
        <pt x="602" y="479" on="1"/>
        <pt x="636" y="479" on="0"/>
        <pt x="693" y="522" on="0"/>
        <pt x="732" y="596" on="0"/>
        <pt x="754" y="697" on="0"/>
      </contour>
    </TTGlyph>
    <TTGlyph name="R" xMin="10" yMin="-41" xMax="1225" yMax="1458">
      <contour>
        <pt x="1225" y="-16" on="1"/>
        <pt x="1160" y="-11" on="0"/>
        <pt x="1047" y="-8" on="0"/>
        <pt x="999" y="-8" on="1"/>
        <pt x="905" y="-8" on="0"/>
        <pt x="779" y="-19" on="0"/>
        <pt x="739" y="-25" on="1"/>
        <pt x="692" y="-32" on="0"/>
        <pt x="664" y="-41" on="1"/>
        <pt x="668" y="-10" on="0"/>
        <pt x="676" y="44" on="0"/>
        <pt x="681" y="95" on="0"/>
        <pt x="684" y="146" on="0"/>
        <pt x="684" y="174" on="1"/>
        <pt x="684" y="284" on="0"/>
        <pt x="667" y="430" on="0"/>
        <pt x="635" y="528" on="0"/>
        <pt x="589" y="588" on="0"/>
        <pt x="561" y="612" on="1"/>
        <pt x="559" y="567" on="0"/>
        <pt x="557" y="483" on="0"/>
        <pt x="557" y="436" on="1"/>
        <pt x="557" y="390" on="0"/>
        <pt x="561" y="290" on="0"/>
        <pt x="571" y="178" on="0"/>
        <pt x="591" y="51" on="0"/>
        <pt x="606" y="-23" on="1"/>
        <pt x="605" y="-19" on="0"/>
        <pt x="555" y="-9" on="0"/>
        <pt x="471" y="-1" on="0"/>
        <pt x="362" y="4" on="0"/>
        <pt x="303" y="4" on="1"/>
        <pt x="226" y="4" on="0"/>
        <pt x="72" y="-7" on="0"/>
        <pt x="10" y="-23" on="1"/>
        <pt x="34" y="8" on="0"/>
        <pt x="73" y="103" on="0"/>
        <pt x="103" y="217" on="0"/>
        <pt x="124" y="343" on="0"/>
        <pt x="132" y="404" on="1"/>
        <pt x="150" y="547" on="0"/>
        <pt x="156" y="709" on="1"/>
        <pt x="156" y="749" on="0"/>
        <pt x="157" y="871" on="0"/>
        <pt x="152" y="1015" on="0"/>
        <pt x="141" y="1167" on="0"/>
        <pt x="116" y="1307" on="0"/>
        <pt x="76" y="1423" on="0"/>
        <pt x="45" y="1458" on="1"/>
        <pt x="117" y="1447" on="0"/>
        <pt x="253" y="1440" on="0"/>
        <pt x="301" y="1440" on="1"/>
        <pt x="343" y="1440" on="0"/>
        <pt x="414" y="1444" on="0"/>
        <pt x="484" y="1448" on="0"/>
        <pt x="560" y="1452" on="0"/>
        <pt x="606" y="1452" on="1"/>
        <pt x="669" y="1452" on="0"/>
        <pt x="797" y="1439" on="0"/>
        <pt x="914" y="1406" on="0"/>
        <pt x="1015" y="1349" on="0"/>
        <pt x="1090" y="1262" on="0"/>
        <pt x="1133" y="1140" on="0"/>
        <pt x="1133" y="1059" on="1"/>
        <pt x="1133" y="1014" on="0"/>
        <pt x="1110" y="924" on="0"/>
        <pt x="1058" y="837" on="0"/>
        <pt x="975" y="758" on="0"/>
        <pt x="915" y="725" on="1"/>
        <pt x="986" y="696" on="0"/>
        <pt x="1059" y="610" on="0"/>
        <pt x="1091" y="500" on="0"/>
        <pt x="1094" y="371" on="0"/>
        <pt x="1096" y="301" on="1"/>
        <pt x="1100" y="226" on="0"/>
        <pt x="1115" y="162" on="1"/>
        <pt x="1121" y="135" on="0"/>
        <pt x="1140" y="79" on="0"/>
        <pt x="1167" y="31" on="0"/>
        <pt x="1202" y="-7" on="0"/>
      </contour>
      <contour>
        <pt x="561" y="846" on="1"/>
        <pt x="583" y="862" on="0"/>
        <pt x="638" y="911" on="0"/>
        <pt x="685" y="970" on="0"/>
        <pt x="717" y="1036" on="0"/>
        <pt x="717" y="1069" on="1"/>
        <pt x="717" y="1101" on="0"/>
        <pt x="680" y="1141" on="0"/>
        <pt x="657" y="1141" on="1"/>
        <pt x="625" y="1141" on="0"/>
        <pt x="587" y="1082" on="0"/>
        <pt x="566" y="1002" on="0"/>
        <pt x="559" y="921" on="0"/>
        <pt x="559" y="899" on="1"/>
        <pt x="559" y="887" on="0"/>
        <pt x="559" y="860" on="0"/>
      </contour>
    </TTGlyph>
    <TTGlyph name="Racute" xMin="10" yMin="-41" xMax="1225" yMax="2002">
      <component glyphName="R" x="0" y="0" flags="0x204"/>
      <component glyphName="acute" x="508" y="233" flags="0x4"/>
    </TTGlyph>
    <TTGlyph name="Rcaron" xMin="10" yMin="-41" xMax="1225" yMax="1947">
      <component glyphName="R" x="0" y="0" flags="0x204"/>
      <component glyphName="caron" x="252" y="180" flags="0x4"/>
    </TTGlyph>
    <TTGlyph name="Rcommaaccent" xMin="10" yMin="-438" xMax="1225" yMax="1458">
      <component glyphName="R" x="0" y="0" flags="0x204"/>
      <component glyphName="uni0326" x="473" y="0" flags="0x4"/>
    </TTGlyph>
    <TTGlyph name="S" xMin="37" yMin="-92" xMax="1126" yMax="1487">
      <contour>
        <pt x="1073" y="1141" on="1"/>
        <pt x="1073" y="1091" on="0"/>
        <pt x="1036" y="1010" on="0"/>
        <pt x="970" y="952" on="0"/>
        <pt x="881" y="920" on="0"/>
        <pt x="829" y="920" on="1"/>
        <pt x="772" y="920" on="0"/>
        <pt x="691" y="948" on="0"/>
        <pt x="636" y="991" on="0"/>
        <pt x="604" y="1044" on="0"/>
        <pt x="587" y="1094" on="0"/>
        <pt x="582" y="1136" on="0"/>
        <pt x="582" y="1147" on="1"/>
        <pt x="594" y="1127" on="0"/>
        <pt x="626" y="1116" on="0"/>
        <pt x="637" y="1116" on="1"/>
        <pt x="665" y="1116" on="0"/>
        <pt x="688" y="1146" on="0"/>
        <pt x="688" y="1163" on="1"/>
        <pt x="688" y="1174" on="0"/>
        <pt x="679" y="1198" on="0"/>
        <pt x="656" y="1219" on="0"/>
        <pt x="617" y="1233" on="0"/>
        <pt x="588" y="1233" on="1"/>
        <pt x="568" y="1233" on="0"/>
        <pt x="526" y="1218" on="0"/>
        <pt x="491" y="1187" on="0"/>
        <pt x="469" y="1141" on="0"/>
        <pt x="469" y="1110" on="1"/>
        <pt x="469" y="1080" on="0"/>
        <pt x="494" y="1021" on="0"/>
        <pt x="537" y="969" on="0"/>
        <pt x="596" y="927" on="0"/>
        <pt x="631" y="913" on="1"/>
        <pt x="686" y="890" on="0"/>
        <pt x="803" y="846" on="0"/>
        <pt x="913" y="794" on="0"/>
        <pt x="1010" y="727" on="0"/>
        <pt x="1083" y="635" on="0"/>
        <pt x="1126" y="512" on="0"/>
        <pt x="1126" y="430" on="1"/>
        <pt x="1126" y="313" on="0"/>
        <pt x="1031" y="120" on="0"/>
        <pt x="872" y="-17" on="0"/>
        <pt x="663" y="-92" on="0"/>
        <pt x="549" y="-92" on="1"/>
        <pt x="446" y="-92" on="0"/>
        <pt x="260" y="-31" on="0"/>
        <pt x="120" y="75" on="0"/>
        <pt x="37" y="218" on="0"/>
        <pt x="37" y="301" on="1"/>
        <pt x="37" y="362" on="0"/>
        <pt x="77" y="454" on="0"/>
        <pt x="148" y="515" on="0"/>
        <pt x="243" y="545" on="0"/>
        <pt x="297" y="545" on="1"/>
        <pt x="339" y="545" on="0"/>
        <pt x="420" y="527" on="0"/>
        <pt x="491" y="492" on="0"/>
        <pt x="548" y="442" on="0"/>
        <pt x="565" y="410" on="1"/>
        <pt x="544" y="416" on="0"/>
        <pt x="528" y="416" on="1"/>
        <pt x="501" y="416" on="0"/>
        <pt x="469" y="384" on="0"/>
        <pt x="469" y="352" on="1"/>
        <pt x="469" y="335" on="0"/>
        <pt x="485" y="306" on="0"/>
        <pt x="510" y="284" on="0"/>
        <pt x="543" y="272" on="0"/>
        <pt x="561" y="272" on="1"/>
        <pt x="581" y="272" on="0"/>
        <pt x="615" y="289" on="0"/>
        <pt x="641" y="317" on="0"/>
        <pt x="655" y="351" on="0"/>
        <pt x="655" y="369" on="1"/>
        <pt x="655" y="404" on="0"/>
        <pt x="612" y="476" on="0"/>
        <pt x="571" y="504" on="1"/>
        <pt x="493" y="552" on="0"/>
        <pt x="355" y="622" on="0"/>
        <pt x="239" y="685" on="0"/>
        <pt x="146" y="749" on="0"/>
        <pt x="81" y="833" on="0"/>
        <pt x="47" y="946" on="0"/>
        <pt x="47" y="1026" on="1"/>
        <pt x="47" y="1122" on="0"/>
        <pt x="121" y="1290" on="0"/>
        <pt x="262" y="1415" on="0"/>
        <pt x="466" y="1487" on="0"/>
        <pt x="596" y="1487" on="1"/>
        <pt x="727" y="1487" on="0"/>
        <pt x="909" y="1424" on="0"/>
        <pt x="1022" y="1324" on="0"/>
        <pt x="1073" y="1201" on="0"/>
      </contour>
    </TTGlyph>
    <TTGlyph name="Sacute" xMin="37" yMin="-92" xMax="1126" yMax="2041">
      <component glyphName="S" x="0" y="0" flags="0x204"/>
      <component glyphName="acute" x="489" y="272" flags="0x4"/>
    </TTGlyph>
    <TTGlyph name="Scaron" xMin="37" yMin="-92" xMax="1126" yMax="1974">
      <component glyphName="S" x="0" y="0" flags="0x204"/>
      <component glyphName="caron" x="240" y="207" flags="0x4"/>
    </TTGlyph>
    <TTGlyph name="Scedilla" xMin="37" yMin="-508" xMax="1126" yMax="1487">
      <contour>
        <pt x="741" y="-319" on="1"/>
        <pt x="741" y="-365" on="0"/>
        <pt x="712" y="-429" on="0"/>
        <pt x="661" y="-471" on="0"/>
        <pt x="595" y="-495" on="0"/>
        <pt x="522" y="-506" on="0"/>
        <pt x="445" y="-508" on="0"/>
        <pt x="410" y="-508" on="1"/>
        <pt x="415" y="-486" on="0"/>
        <pt x="420" y="-443" on="0"/>
        <pt x="420" y="-418" on="1"/>
        <pt x="420" y="-399" on="0"/>
        <pt x="416" y="-359" on="0"/>
        <pt x="410" y="-342" on="1"/>
        <pt x="416" y="-348" on="0"/>
        <pt x="442" y="-358" on="0"/>
        <pt x="472" y="-365" on="0"/>
        <pt x="501" y="-369" on="0"/>
        <pt x="510" y="-369" on="1"/>
        <pt x="538" y="-369" on="0"/>
        <pt x="582" y="-343" on="0"/>
        <pt x="582" y="-311" on="1"/>
        <pt x="582" y="-295" on="0"/>
        <pt x="565" y="-272" on="0"/>
        <pt x="540" y="-258" on="0"/>
        <pt x="509" y="-252" on="0"/>
        <pt x="496" y="-252" on="1"/>
        <pt x="479" y="-252" on="0"/>
        <pt x="443" y="-256" on="0"/>
        <pt x="426" y="-262" on="1"/>
        <pt x="489" y="-88" on="1"/>
        <pt x="396" y="-80" on="0"/>
        <pt x="231" y="-14" on="0"/>
        <pt x="108" y="90" on="0"/>
        <pt x="37" y="224" on="0"/>
        <pt x="37" y="301" on="1"/>
        <pt x="37" y="362" on="0"/>
        <pt x="77" y="454" on="0"/>
        <pt x="148" y="515" on="0"/>
        <pt x="243" y="545" on="0"/>
        <pt x="297" y="545" on="1"/>
        <pt x="339" y="545" on="0"/>
        <pt x="420" y="527" on="0"/>
        <pt x="491" y="492" on="0"/>
        <pt x="548" y="442" on="0"/>
        <pt x="565" y="410" on="1"/>
        <pt x="544" y="416" on="0"/>
        <pt x="528" y="416" on="1"/>
        <pt x="501" y="416" on="0"/>
        <pt x="469" y="384" on="0"/>
        <pt x="469" y="352" on="1"/>
        <pt x="469" y="335" on="0"/>
        <pt x="485" y="306" on="0"/>
        <pt x="510" y="284" on="0"/>
        <pt x="543" y="272" on="0"/>
        <pt x="561" y="272" on="1"/>
        <pt x="581" y="272" on="0"/>
        <pt x="615" y="289" on="0"/>
        <pt x="641" y="317" on="0"/>
        <pt x="655" y="351" on="0"/>
        <pt x="655" y="369" on="1"/>
        <pt x="655" y="404" on="0"/>
        <pt x="612" y="476" on="0"/>
        <pt x="571" y="504" on="1"/>
        <pt x="493" y="552" on="0"/>
        <pt x="355" y="622" on="0"/>
        <pt x="239" y="685" on="0"/>
        <pt x="146" y="749" on="0"/>
        <pt x="81" y="833" on="0"/>
        <pt x="47" y="946" on="0"/>
        <pt x="47" y="1026" on="1"/>
        <pt x="47" y="1122" on="0"/>
        <pt x="121" y="1290" on="0"/>
        <pt x="262" y="1415" on="0"/>
        <pt x="466" y="1487" on="0"/>
        <pt x="596" y="1487" on="1"/>
        <pt x="727" y="1487" on="0"/>
        <pt x="909" y="1424" on="0"/>
        <pt x="1022" y="1324" on="0"/>
        <pt x="1073" y="1201" on="0"/>
        <pt x="1073" y="1141" on="1"/>
        <pt x="1073" y="1091" on="0"/>
        <pt x="1036" y="1010" on="0"/>
        <pt x="970" y="952" on="0"/>
        <pt x="881" y="920" on="0"/>
        <pt x="829" y="920" on="1"/>
        <pt x="772" y="920" on="0"/>
        <pt x="691" y="948" on="0"/>
        <pt x="636" y="991" on="0"/>
        <pt x="604" y="1044" on="0"/>
        <pt x="587" y="1094" on="0"/>
        <pt x="582" y="1136" on="0"/>
        <pt x="582" y="1147" on="1"/>
        <pt x="594" y="1127" on="0"/>
        <pt x="626" y="1116" on="0"/>
        <pt x="637" y="1116" on="1"/>
        <pt x="665" y="1116" on="0"/>
        <pt x="688" y="1146" on="0"/>
        <pt x="688" y="1163" on="1"/>
        <pt x="688" y="1174" on="0"/>
        <pt x="679" y="1198" on="0"/>
        <pt x="656" y="1219" on="0"/>
        <pt x="617" y="1233" on="0"/>
        <pt x="588" y="1233" on="1"/>
        <pt x="568" y="1233" on="0"/>
        <pt x="526" y="1218" on="0"/>
        <pt x="491" y="1187" on="0"/>
        <pt x="469" y="1141" on="0"/>
        <pt x="469" y="1110" on="1"/>
        <pt x="469" y="1080" on="0"/>
        <pt x="494" y="1021" on="0"/>
        <pt x="537" y="969" on="0"/>
        <pt x="596" y="927" on="0"/>
        <pt x="631" y="913" on="1"/>
        <pt x="686" y="890" on="0"/>
        <pt x="803" y="846" on="0"/>
        <pt x="913" y="794" on="0"/>
        <pt x="1010" y="727" on="0"/>
        <pt x="1083" y="635" on="0"/>
        <pt x="1126" y="512" on="0"/>
        <pt x="1126" y="430" on="1"/>
        <pt x="1126" y="319" on="0"/>
        <pt x="1040" y="134" on="0"/>
        <pt x="895" y="-2" on="0"/>
        <pt x="702" y="-83" on="0"/>
        <pt x="594" y="-90" on="1"/>
        <pt x="578" y="-156" on="1"/>
        <pt x="615" y="-156" on="0"/>
        <pt x="675" y="-180" on="0"/>
        <pt x="718" y="-223" on="0"/>
        <pt x="741" y="-283" on="0"/>
      </contour>
    </TTGlyph>
    <TTGlyph name="Scircumflex" xMin="37" yMin="-92" xMax="1126" yMax="1986">
      <component glyphName="S" x="0" y="0" flags="0x204"/>
      <component glyphName="circumflex" x="233" y="219" flags="0x4"/>
    </TTGlyph>
    <TTGlyph name="T" xMin="31" yMin="-14" xMax="1094" yMax="1458">
      <contour>
        <pt x="838" y="4" on="1"/>
        <pt x="815" y="6" on="0"/>
        <pt x="785" y="8" on="1"/>
        <pt x="759" y="10" on="0"/>
        <pt x="689" y="12" on="0"/>
        <pt x="645" y="12" on="1"/>
        <pt x="571" y="12" on="0"/>
        <pt x="386" y="1" on="0"/>
        <pt x="283" y="-14" on="1"/>
        <pt x="318" y="134" on="0"/>
        <pt x="354" y="408" on="0"/>
        <pt x="363" y="515" on="1"/>
        <pt x="373" y="640" on="0"/>
        <pt x="375" y="750" on="1"/>
        <pt x="375" y="797" on="0"/>
        <pt x="373" y="853" on="1"/>
        <pt x="371" y="901" on="0"/>
        <pt x="365" y="1028" on="0"/>
        <pt x="360" y="1102" on="1"/>
        <pt x="313" y="1057" on="0"/>
        <pt x="220" y="954" on="0"/>
        <pt x="134" y="843" on="0"/>
        <pt x="59" y="729" on="0"/>
        <pt x="31" y="674" on="1"/>
        <pt x="55" y="1438" on="1"/>
        <pt x="149" y="1427" on="0"/>
        <pt x="358" y="1415" on="0"/>
        <pt x="467" y="1415" on="1"/>
        <pt x="623" y="1415" on="0"/>
        <pt x="929" y="1437" on="0"/>
        <pt x="1057" y="1458" on="1"/>
        <pt x="1094" y="686" on="1"/>
        <pt x="1022" y="823" on="0"/>
        <pt x="847" y="1064" on="0"/>
        <pt x="748" y="1145" on="1"/>
        <pt x="740" y="1077" on="0"/>
        <pt x="733" y="928" on="0"/>
        <pt x="733" y="850" on="1"/>
        <pt x="733" y="749" on="0"/>
        <pt x="746" y="536" on="0"/>
        <pt x="771" y="320" on="0"/>
        <pt x="811" y="106" on="0"/>
      </contour>
    </TTGlyph>
    <TTGlyph name="Tbar" xMin="31" yMin="-14" xMax="1094" yMax="1458">
      <contour>
        <pt x="969" y="682" on="1"/>
        <pt x="961" y="637" on="0"/>
        <pt x="952" y="551" on="0"/>
        <pt x="952" y="506" on="1"/>
        <pt x="952" y="420" on="0"/>
        <pt x="969" y="332" on="1"/>
        <pt x="927" y="353" on="0"/>
        <pt x="820" y="379" on="0"/>
        <pt x="764" y="385" on="1"/>
        <pt x="788" y="189" on="0"/>
        <pt x="838" y="4" on="1"/>
        <pt x="815" y="6" on="0"/>
        <pt x="785" y="8" on="1"/>
        <pt x="759" y="10" on="0"/>
        <pt x="689" y="12" on="0"/>
        <pt x="645" y="12" on="1"/>
        <pt x="571" y="12" on="0"/>
        <pt x="386" y="1" on="0"/>
        <pt x="283" y="-14" on="1"/>
        <pt x="307" y="92" on="0"/>
        <pt x="339" y="292" on="0"/>
        <pt x="350" y="383" on="1"/>
        <pt x="298" y="377" on="0"/>
        <pt x="198" y="358" on="0"/>
        <pt x="150" y="346" on="1"/>
        <pt x="154" y="358" on="0"/>
        <pt x="160" y="394" on="0"/>
        <pt x="163" y="432" on="0"/>
        <pt x="164" y="468" on="0"/>
        <pt x="164" y="479" on="1"/>
        <pt x="164" y="530" on="0"/>
        <pt x="156" y="631" on="0"/>
        <pt x="150" y="682" on="1"/>
        <pt x="195" y="663" on="0"/>
        <pt x="311" y="639" on="0"/>
        <pt x="371" y="633" on="1"/>
        <pt x="373" y="659" on="0"/>
        <pt x="373" y="701" on="0"/>
        <pt x="374" y="717" on="1"/>
        <pt x="374" y="735" on="0"/>
        <pt x="375" y="750" on="1"/>
        <pt x="375" y="797" on="0"/>
        <pt x="373" y="853" on="1"/>
        <pt x="371" y="901" on="0"/>
        <pt x="365" y="1028" on="0"/>
        <pt x="360" y="1102" on="1"/>
        <pt x="313" y="1057" on="0"/>
        <pt x="220" y="954" on="0"/>
        <pt x="134" y="843" on="0"/>
        <pt x="59" y="729" on="0"/>
        <pt x="31" y="674" on="1"/>
        <pt x="55" y="1438" on="1"/>
        <pt x="149" y="1427" on="0"/>
        <pt x="358" y="1415" on="0"/>
        <pt x="467" y="1415" on="1"/>
        <pt x="623" y="1415" on="0"/>
        <pt x="929" y="1437" on="0"/>
        <pt x="1057" y="1458" on="1"/>
        <pt x="1094" y="686" on="1"/>
        <pt x="1022" y="823" on="0"/>
        <pt x="847" y="1064" on="0"/>
        <pt x="748" y="1145" on="1"/>
        <pt x="740" y="1077" on="0"/>
        <pt x="733" y="928" on="0"/>
        <pt x="733" y="850" on="1"/>
        <pt x="733" y="744" on="0"/>
        <pt x="739" y="633" on="1"/>
        <pt x="804" y="639" on="0"/>
        <pt x="927" y="662" on="0"/>
      </contour>
    </TTGlyph>
    <TTGlyph name="Tcaron" xMin="31" yMin="-14" xMax="1094" yMax="1919">
      <component glyphName="T" x="0" y="0" flags="0x204"/>
      <component glyphName="caron" x="217" y="152" flags="0x4"/>
    </TTGlyph>
    <TTGlyph name="Tcommaaccent" xMin="31" yMin="-438" xMax="1094" yMax="1458">
      <component glyphName="T" x="0" y="0" flags="0x204"/>
      <component glyphName="uni0326" x="410" y="0" flags="0x4"/>
    </TTGlyph>
    <TTGlyph name="Thorn" xMin="37" yMin="-20" xMax="1094" yMax="1460">
      <contour>
        <pt x="524" y="485" on="1"/>
        <pt x="549" y="509" on="0"/>
        <pt x="614" y="579" on="0"/>
        <pt x="672" y="660" on="0"/>
        <pt x="711" y="745" on="0"/>
        <pt x="711" y="784" on="1"/>
        <pt x="711" y="806" on="0"/>
        <pt x="697" y="843" on="0"/>
        <pt x="674" y="869" on="0"/>
        <pt x="644" y="883" on="0"/>
        <pt x="629" y="883" on="1"/>
        <pt x="601" y="883" on="0"/>
        <pt x="564" y="845" on="0"/>
        <pt x="540" y="784" on="0"/>
        <pt x="528" y="709" on="0"/>
        <pt x="522" y="636" on="0"/>
        <pt x="522" y="573" on="0"/>
        <pt x="522" y="555" on="1"/>
        <pt x="522" y="538" on="0"/>
        <pt x="522" y="504" on="0"/>
      </contour>
      <contour>
        <pt x="633" y="6" on="1"/>
        <pt x="612" y="8" on="0"/>
        <pt x="586" y="10" on="1"/>
        <pt x="563" y="12" on="0"/>
        <pt x="499" y="14" on="0"/>
        <pt x="457" y="14" on="1"/>
        <pt x="376" y="14" on="0"/>
        <pt x="162" y="0" on="0"/>
        <pt x="37" y="-20" on="1"/>
        <pt x="59" y="25" on="0"/>
        <pt x="91" y="163" on="0"/>
        <pt x="112" y="320" on="0"/>
        <pt x="124" y="482" on="0"/>
        <pt x="130" y="622" on="0"/>
        <pt x="131" y="724" on="0"/>
        <pt x="131" y="743" on="1"/>
        <pt x="131" y="747" on="0"/>
        <pt x="130" y="801" on="0"/>
        <pt x="128" y="887" on="0"/>
        <pt x="124" y="998" on="0"/>
        <pt x="117" y="1118" on="0"/>
        <pt x="106" y="1240" on="0"/>
        <pt x="91" y="1348" on="0"/>
        <pt x="72" y="1435" on="0"/>
        <pt x="59" y="1460" on="1"/>
        <pt x="160" y="1442" on="0"/>
        <pt x="329" y="1430" on="0"/>
        <pt x="397" y="1430" on="1"/>
        <pt x="442" y="1430" on="0"/>
        <pt x="514" y="1434" on="0"/>
        <pt x="539" y="1436" on="1"/>
        <pt x="568" y="1439" on="0"/>
        <pt x="590" y="1442" on="1"/>
        <pt x="581" y="1395" on="0"/>
        <pt x="563" y="1286" on="0"/>
        <pt x="557" y="1223" on="1"/>
        <pt x="569" y="1229" on="0"/>
        <pt x="604" y="1234" on="0"/>
        <pt x="638" y="1234" on="0"/>
        <pt x="665" y="1233" on="0"/>
        <pt x="668" y="1233" on="1"/>
        <pt x="709" y="1233" on="0"/>
        <pt x="804" y="1215" on="0"/>
        <pt x="898" y="1169" on="0"/>
        <pt x="986" y="1091" on="0"/>
        <pt x="1054" y="970" on="0"/>
        <pt x="1094" y="802" on="0"/>
        <pt x="1094" y="690" on="1"/>
        <pt x="1094" y="581" on="0"/>
        <pt x="1025" y="397" on="0"/>
        <pt x="910" y="264" on="0"/>
        <pt x="762" y="190" on="0"/>
        <pt x="684" y="190" on="1"/>
        <pt x="659" y="190" on="0"/>
        <pt x="613" y="199" on="0"/>
        <pt x="588" y="207" on="1"/>
        <pt x="597" y="154" on="0"/>
        <pt x="619" y="54" on="0"/>
      </contour>
    </TTGlyph>
    <TTGlyph name="U" xMin="16" yMin="-70" xMax="1167" yMax="1460">
      <contour>
        <pt x="1167" y="1442" on="1"/>
        <pt x="1144" y="1327" on="0"/>
        <pt x="1116" y="1005" on="0"/>
        <pt x="1116" y="821" on="1"/>
        <pt x="1116" y="795" on="0"/>
        <pt x="1117" y="746" on="0"/>
        <pt x="1119" y="694" on="0"/>
        <pt x="1120" y="638" on="0"/>
        <pt x="1120" y="606" on="1"/>
        <pt x="1120" y="539" on="0"/>
        <pt x="1109" y="387" on="0"/>
        <pt x="1071" y="237" on="0"/>
        <pt x="1001" y="98" on="0"/>
        <pt x="884" y="-7" on="0"/>
        <pt x="712" y="-70" on="0"/>
        <pt x="592" y="-70" on="1"/>
        <pt x="479" y="-70" on="0"/>
        <pt x="316" y="-19" on="0"/>
        <pt x="203" y="70" on="0"/>
        <pt x="133" y="190" on="0"/>
        <pt x="95" y="329" on="0"/>
        <pt x="82" y="479" on="0"/>
        <pt x="82" y="553" on="1"/>
        <pt x="82" y="586" on="0"/>
        <pt x="83" y="631" on="0"/>
        <pt x="85" y="668" on="0"/>
        <pt x="87" y="706" on="0"/>
        <pt x="89" y="758" on="0"/>
        <pt x="90" y="832" on="0"/>
        <pt x="90" y="887" on="1"/>
        <pt x="90" y="954" on="0"/>
        <pt x="85" y="1124" on="0"/>
        <pt x="69" y="1289" on="0"/>
        <pt x="40" y="1426" on="0"/>
        <pt x="16" y="1460" on="1"/>
        <pt x="117" y="1442" on="0"/>
        <pt x="294" y="1430" on="0"/>
        <pt x="369" y="1430" on="1"/>
        <pt x="417" y="1430" on="0"/>
        <pt x="495" y="1434" on="0"/>
        <pt x="523" y="1436" on="1"/>
        <pt x="556" y="1439" on="0"/>
        <pt x="580" y="1442" on="1"/>
        <pt x="567" y="1380" on="0"/>
        <pt x="541" y="1226" on="0"/>
        <pt x="521" y="1050" on="0"/>
        <pt x="508" y="856" on="0"/>
        <pt x="508" y="756" on="1"/>
        <pt x="508" y="631" on="0"/>
        <pt x="517" y="475" on="0"/>
        <pt x="537" y="388" on="0"/>
        <pt x="569" y="356" on="0"/>
        <pt x="592" y="356" on="1"/>
        <pt x="623" y="356" on="0"/>
        <pt x="666" y="395" on="0"/>
        <pt x="695" y="488" on="0"/>
        <pt x="708" y="640" on="0"/>
        <pt x="709" y="754" on="1"/>
        <pt x="707" y="917" on="0"/>
        <pt x="699" y="1058" on="1"/>
        <pt x="696" y="1118" on="0"/>
        <pt x="685" y="1240" on="0"/>
        <pt x="670" y="1348" on="0"/>
        <pt x="650" y="1435" on="0"/>
        <pt x="637" y="1460" on="1"/>
        <pt x="737" y="1442" on="0"/>
        <pt x="907" y="1430" on="0"/>
        <pt x="975" y="1430" on="1"/>
        <pt x="1020" y="1430" on="0"/>
        <pt x="1091" y="1434" on="0"/>
        <pt x="1116" y="1436" on="1"/>
        <pt x="1145" y="1439" on="0"/>
      </contour>
    </TTGlyph>
    <TTGlyph name="Uacute" xMin="16" yMin="-70" xMax="1167" yMax="2031">
      <component glyphName="U" x="0" y="0" flags="0x204"/>
      <component glyphName="acute" x="524" y="262" flags="0x4"/>
    </TTGlyph>
    <TTGlyph name="Ubreve" xMin="16" yMin="-70" xMax="1167" yMax="1919">
      <component glyphName="U" x="0" y="0" flags="0x204"/>
      <component glyphName="breve" x="285" y="188" flags="0x4"/>
    </TTGlyph>
    <TTGlyph name="Ucircumflex" xMin="16" yMin="-70" xMax="1167" yMax="1966">
      <component glyphName="U" x="0" y="0" flags="0x204"/>
      <component glyphName="circumflex" x="281" y="199" flags="0x4"/>
    </TTGlyph>
    <TTGlyph name="Udieresis" xMin="16" yMin="-70" xMax="1167" yMax="1845">
      <component glyphName="U" x="0" y="0" flags="0x204"/>
      <component glyphName="dieresis" x="227" y="188" flags="0x4"/>
    </TTGlyph>
    <TTGlyph name="Ugrave" xMin="16" yMin="-70" xMax="1167" yMax="2013">
      <component glyphName="U" x="0" y="0" flags="0x204"/>
      <component glyphName="grave" x="172" y="244" flags="0x4"/>
    </TTGlyph>
    <TTGlyph name="Uhungarumlaut" xMin="16" yMin="-70" xMax="1223" yMax="1994">
      <component glyphName="U" x="0" y="0" flags="0x204"/>
      <component glyphName="hungarumlaut" x="283" y="225" flags="0x4"/>
    </TTGlyph>
    <TTGlyph name="Umacron" xMin="16" yMin="-70" xMax="1167" yMax="1754">
      <component glyphName="U" x="0" y="0" flags="0x204"/>
      <component glyphName="macron" x="305" y="193" flags="0x4"/>
    </TTGlyph>
    <TTGlyph name="Uogonek" xMin="16" yMin="-442" xMax="1167" yMax="1460">
      <contour>
        <pt x="868" y="-346" on="1"/>
        <pt x="847" y="-348" on="0"/>
        <pt x="795" y="-378" on="0"/>
        <pt x="734" y="-413" on="0"/>
        <pt x="665" y="-442" on="0"/>
        <pt x="627" y="-442" on="1"/>
        <pt x="590" y="-442" on="0"/>
        <pt x="528" y="-413" on="0"/>
        <pt x="484" y="-363" on="0"/>
        <pt x="459" y="-298" on="0"/>
        <pt x="459" y="-262" on="1"/>
        <pt x="459" y="-244" on="0"/>
        <pt x="473" y="-197" on="0"/>
        <pt x="497" y="-145" on="0"/>
        <pt x="527" y="-92" on="0"/>
        <pt x="543" y="-68" on="1"/>
        <pt x="441" y="-62" on="0"/>
        <pt x="294" y="-6" on="0"/>
        <pt x="192" y="85" on="0"/>
        <pt x="129" y="202" on="0"/>
        <pt x="94" y="337" on="0"/>
        <pt x="82" y="481" on="0"/>
        <pt x="82" y="553" on="1"/>
        <pt x="82" y="586" on="0"/>
        <pt x="83" y="631" on="0"/>
        <pt x="85" y="668" on="0"/>
        <pt x="87" y="706" on="0"/>
        <pt x="89" y="758" on="0"/>
        <pt x="90" y="832" on="0"/>
        <pt x="90" y="887" on="1"/>
        <pt x="90" y="954" on="0"/>
        <pt x="85" y="1124" on="0"/>
        <pt x="69" y="1289" on="0"/>
        <pt x="40" y="1426" on="0"/>
        <pt x="16" y="1460" on="1"/>
        <pt x="117" y="1442" on="0"/>
        <pt x="294" y="1430" on="0"/>
        <pt x="369" y="1430" on="1"/>
        <pt x="417" y="1430" on="0"/>
        <pt x="495" y="1434" on="0"/>
        <pt x="523" y="1436" on="1"/>
        <pt x="556" y="1439" on="0"/>
        <pt x="580" y="1442" on="1"/>
        <pt x="567" y="1380" on="0"/>
        <pt x="541" y="1226" on="0"/>
        <pt x="521" y="1050" on="0"/>
        <pt x="508" y="856" on="0"/>
        <pt x="508" y="756" on="1"/>
        <pt x="508" y="631" on="0"/>
        <pt x="517" y="475" on="0"/>
        <pt x="537" y="388" on="0"/>
        <pt x="569" y="356" on="0"/>
        <pt x="592" y="356" on="1"/>
        <pt x="623" y="356" on="0"/>
        <pt x="666" y="395" on="0"/>
        <pt x="695" y="488" on="0"/>
        <pt x="708" y="640" on="0"/>
        <pt x="709" y="754" on="1"/>
        <pt x="707" y="917" on="0"/>
        <pt x="699" y="1058" on="1"/>
        <pt x="696" y="1118" on="0"/>
        <pt x="685" y="1240" on="0"/>
        <pt x="670" y="1348" on="0"/>
        <pt x="650" y="1435" on="0"/>
        <pt x="637" y="1460" on="1"/>
        <pt x="737" y="1442" on="0"/>
        <pt x="907" y="1430" on="0"/>
        <pt x="975" y="1430" on="1"/>
        <pt x="1020" y="1430" on="0"/>
        <pt x="1091" y="1434" on="0"/>
        <pt x="1116" y="1436" on="1"/>
        <pt x="1145" y="1439" on="0"/>
        <pt x="1167" y="1442" on="1"/>
        <pt x="1144" y="1327" on="0"/>
        <pt x="1116" y="1005" on="0"/>
        <pt x="1116" y="821" on="1"/>
        <pt x="1116" y="795" on="0"/>
        <pt x="1117" y="746" on="0"/>
        <pt x="1119" y="694" on="0"/>
        <pt x="1120" y="638" on="0"/>
        <pt x="1120" y="606" on="1"/>
        <pt x="1120" y="542" on="0"/>
        <pt x="1110" y="399" on="0"/>
        <pt x="1077" y="257" on="0"/>
        <pt x="1017" y="123" on="0"/>
        <pt x="916" y="17" on="0"/>
        <pt x="769" y="-56" on="0"/>
        <pt x="666" y="-66" on="1"/>
        <pt x="654" y="-87" on="0"/>
        <pt x="631" y="-133" on="0"/>
        <pt x="613" y="-177" on="0"/>
        <pt x="602" y="-214" on="0"/>
        <pt x="602" y="-227" on="1"/>
        <pt x="602" y="-249" on="0"/>
        <pt x="629" y="-270" on="0"/>
        <pt x="649" y="-270" on="1"/>
        <pt x="667" y="-270" on="0"/>
        <pt x="696" y="-250" on="0"/>
        <pt x="719" y="-221" on="0"/>
        <pt x="736" y="-188" on="0"/>
        <pt x="741" y="-174" on="1"/>
        <pt x="750" y="-197" on="0"/>
        <pt x="776" y="-246" on="0"/>
        <pt x="809" y="-292" on="0"/>
        <pt x="847" y="-332" on="0"/>
      </contour>
    </TTGlyph>
    <TTGlyph name="Uring" xMin="16" yMin="-70" xMax="1167" yMax="1980">
      <component glyphName="U" x="0" y="0" flags="0x204"/>
      <component glyphName="ring" x="356" y="350" flags="0x4"/>
    </TTGlyph>
    <TTGlyph name="Utilde" xMin="16" yMin="-70" xMax="1167" yMax="1850">
      <component glyphName="U" x="0" y="0" flags="0x204"/>
      <component glyphName="tilde" x="221" y="195" flags="0x4"/>
    </TTGlyph>
    <TTGlyph name="V" xMin="-53" yMin="-12" xMax="1221" yMax="1450">
      <contour>
        <pt x="1221" y="1450" on="1"/>
        <pt x="1159" y="1270" on="0"/>
        <pt x="1063" y="909" on="0"/>
        <pt x="988" y="547" on="0"/>
        <pt x="931" y="184" on="0"/>
        <pt x="909" y="2" on="1"/>
        <pt x="857" y="7" on="0"/>
        <pt x="745" y="10" on="0"/>
        <pt x="686" y="10" on="1"/>
        <pt x="593" y="10" on="0"/>
        <pt x="409" y="-1" on="0"/>
        <pt x="326" y="-12" on="1"/>
        <pt x="301" y="171" on="0"/>
        <pt x="232" y="534" on="0"/>
        <pt x="140" y="896" on="0"/>
        <pt x="21" y="1255" on="0"/>
        <pt x="-53" y="1434" on="1"/>
        <pt x="7" y="1426" on="0"/>
        <pt x="126" y="1417" on="0"/>
        <pt x="186" y="1417" on="1"/>
        <pt x="273" y="1417" on="0"/>
        <pt x="443" y="1433" on="0"/>
        <pt x="528" y="1450" on="1"/>
        <pt x="523" y="1391" on="0"/>
        <pt x="520" y="1276" on="0"/>
        <pt x="520" y="1219" on="1"/>
        <pt x="520" y="1027" on="0"/>
        <pt x="566" y="663" on="0"/>
        <pt x="612" y="485" on="1"/>
        <pt x="650" y="640" on="0"/>
        <pt x="686" y="945" on="0"/>
        <pt x="686" y="1098" on="1"/>
        <pt x="686" y="1274" on="0"/>
        <pt x="662" y="1450" on="1"/>
        <pt x="731" y="1441" on="0"/>
        <pt x="869" y="1434" on="0"/>
        <pt x="940" y="1434" on="1"/>
        <pt x="1009" y="1434" on="0"/>
        <pt x="1149" y="1441" on="0"/>
      </contour>
    </TTGlyph>
    <TTGlyph name="W" xMin="0" yMin="-20" xMax="1487" yMax="1460">
      <contour>
        <pt x="596" y="1460" on="1"/>
        <pt x="562" y="1270" on="0"/>
        <pt x="539" y="935" on="0"/>
        <pt x="539" y="780" on="1"/>
        <pt x="591" y="895" on="0"/>
        <pt x="692" y="1142" on="0"/>
        <pt x="741" y="1276" on="1"/>
        <pt x="792" y="1128" on="0"/>
        <pt x="894" y="874" on="0"/>
        <pt x="954" y="758" on="1"/>
        <pt x="954" y="850" on="1"/>
        <pt x="954" y="1006" on="0"/>
        <pt x="925" y="1308" on="0"/>
        <pt x="891" y="1444" on="1"/>
        <pt x="895" y="1441" on="0"/>
        <pt x="935" y="1432" on="0"/>
        <pt x="1000" y="1425" on="0"/>
        <pt x="1086" y="1419" on="0"/>
        <pt x="1137" y="1419" on="1"/>
        <pt x="1215" y="1419" on="0"/>
        <pt x="1396" y="1437" on="0"/>
        <pt x="1487" y="1460" on="1"/>
        <pt x="1465" y="1416" on="0"/>
        <pt x="1425" y="1267" on="0"/>
        <pt x="1390" y="1077" on="0"/>
        <pt x="1362" y="853" on="0"/>
        <pt x="1342" y="614" on="0"/>
        <pt x="1331" y="370" on="0"/>
        <pt x="1331" y="254" on="1"/>
        <pt x="1331" y="180" on="0"/>
        <pt x="1336" y="43" on="0"/>
        <pt x="1341" y="-20" on="1"/>
        <pt x="1241" y="-3" on="0"/>
        <pt x="1085" y="10" on="0"/>
        <pt x="1026" y="10" on="1"/>
        <pt x="988" y="10" on="0"/>
        <pt x="930" y="6" on="0"/>
        <pt x="910" y="4" on="1"/>
        <pt x="887" y="1" on="0"/>
        <pt x="870" y="-2" on="1"/>
        <pt x="858" y="87" on="0"/>
        <pt x="832" y="257" on="0"/>
        <pt x="798" y="412" on="0"/>
        <pt x="754" y="549" on="0"/>
        <pt x="723" y="606" on="1"/>
        <pt x="700" y="541" on="0"/>
        <pt x="667" y="403" on="0"/>
        <pt x="645" y="249" on="0"/>
        <pt x="635" y="77" on="0"/>
        <pt x="635" y="-20" on="1"/>
        <pt x="535" y="-3" on="0"/>
        <pt x="376" y="10" on="0"/>
        <pt x="319" y="10" on="1"/>
        <pt x="280" y="10" on="0"/>
        <pt x="222" y="6" on="0"/>
        <pt x="202" y="4" on="1"/>
        <pt x="179" y="1" on="0"/>
        <pt x="164" y="-2" on="1"/>
        <pt x="170" y="109" on="0"/>
        <pt x="170" y="231" on="1"/>
        <pt x="170" y="345" on="0"/>
        <pt x="160" y="581" on="0"/>
        <pt x="140" y="812" on="0"/>
        <pt x="111" y="1032" on="0"/>
        <pt x="74" y="1225" on="0"/>
        <pt x="27" y="1386" on="0"/>
        <pt x="0" y="1444" on="1"/>
        <pt x="29" y="1436" on="0"/>
        <pt x="68" y="1431" on="1"/>
        <pt x="101" y="1426" on="0"/>
        <pt x="194" y="1419" on="0"/>
        <pt x="252" y="1419" on="1"/>
        <pt x="324" y="1419" on="0"/>
        <pt x="499" y="1437" on="0"/>
      </contour>
    </TTGlyph>
    <TTGlyph name="Wacute" xMin="0" yMin="-20" xMax="1487" yMax="1972">
      <component glyphName="W" x="0" y="0" flags="0x204"/>
      <component glyphName="acute" x="639" y="203" flags="0x4"/>
    </TTGlyph>
    <TTGlyph name="Wcircumflex" xMin="0" yMin="-20" xMax="1487" yMax="1919">
      <component glyphName="W" x="0" y="0" flags="0x204"/>
      <component glyphName="circumflex" x="420" y="152" flags="0x4"/>
    </TTGlyph>
    <TTGlyph name="Wdieresis" xMin="0" yMin="-20" xMax="1487" yMax="1831">
      <component glyphName="W" x="0" y="0" flags="0x204"/>
      <component glyphName="dieresis" x="383" y="174" flags="0x4"/>
    </TTGlyph>
    <TTGlyph name="Wgrave" xMin="0" yMin="-20" xMax="1487" yMax="1980">
      <component glyphName="W" x="0" y="0" flags="0x204"/>
      <component glyphName="grave" x="326" y="211" flags="0x4"/>
    </TTGlyph>
    <TTGlyph name="X" xMin="-25" yMin="-20" xMax="1278" yMax="1460">
      <contour>
        <pt x="1278" y="1460" on="1"/>
        <pt x="1224" y="1398" on="0"/>
        <pt x="1123" y="1234" on="0"/>
        <pt x="1022" y="1043" on="0"/>
        <pt x="919" y="833" on="0"/>
        <pt x="864" y="725" on="1"/>
        <pt x="912" y="633" on="0"/>
        <pt x="1006" y="445" on="0"/>
        <pt x="1105" y="262" on="0"/>
        <pt x="1214" y="87" on="0"/>
        <pt x="1278" y="6" on="1"/>
        <pt x="1260" y="7" on="0"/>
        <pt x="1235" y="9" on="1"/>
        <pt x="1214" y="10" on="0"/>
        <pt x="1152" y="12" on="0"/>
        <pt x="1114" y="12" on="1"/>
        <pt x="1039" y="12" on="0"/>
        <pt x="836" y="0" on="0"/>
        <pt x="719" y="-20" on="1"/>
        <pt x="712" y="19" on="0"/>
        <pt x="687" y="126" on="0"/>
        <pt x="658" y="240" on="0"/>
        <pt x="628" y="351" on="0"/>
        <pt x="616" y="395" on="1"/>
        <pt x="598" y="347" on="0"/>
        <pt x="563" y="235" on="0"/>
        <pt x="531" y="124" on="0"/>
        <pt x="507" y="20" on="0"/>
        <pt x="500" y="-20" on="1"/>
        <pt x="381" y="0" on="0"/>
        <pt x="188" y="12" on="0"/>
        <pt x="119" y="12" on="1"/>
        <pt x="84" y="12" on="0"/>
        <pt x="30" y="10" on="0"/>
        <pt x="12" y="9" on="1"/>
        <pt x="-10" y="7" on="0"/>
        <pt x="-25" y="6" on="1"/>
        <pt x="38" y="87" on="0"/>
        <pt x="145" y="261" on="0"/>
        <pt x="242" y="442" on="0"/>
        <pt x="335" y="627" on="0"/>
        <pt x="383" y="719" on="1"/>
        <pt x="342" y="800" on="0"/>
        <pt x="261" y="968" on="0"/>
        <pt x="166" y="1151" on="0"/>
        <pt x="50" y="1349" on="0"/>
        <pt x="-25" y="1460" on="1"/>
        <pt x="88" y="1442" on="0"/>
        <pt x="270" y="1430" on="0"/>
        <pt x="338" y="1430" on="1"/>
        <pt x="381" y="1430" on="0"/>
        <pt x="447" y="1433" on="0"/>
        <pt x="470" y="1435" on="1"/>
        <pt x="496" y="1437" on="0"/>
        <pt x="516" y="1440" on="1"/>
        <pt x="522" y="1401" on="0"/>
        <pt x="546" y="1299" on="0"/>
        <pt x="576" y="1190" on="0"/>
        <pt x="610" y="1078" on="0"/>
        <pt x="627" y="1028" on="1"/>
        <pt x="647" y="1079" on="0"/>
        <pt x="682" y="1189" on="0"/>
        <pt x="710" y="1297" on="0"/>
        <pt x="731" y="1398" on="0"/>
        <pt x="737" y="1440" on="1"/>
        <pt x="757" y="1437" on="0"/>
        <pt x="783" y="1435" on="1"/>
        <pt x="806" y="1433" on="0"/>
        <pt x="871" y="1430" on="0"/>
        <pt x="913" y="1430" on="1"/>
        <pt x="983" y="1430" on="0"/>
        <pt x="1165" y="1442" on="0"/>
      </contour>
    </TTGlyph>
    <TTGlyph name="Y" xMin="-6" yMin="-49" xMax="1118" yMax="1454">
      <contour>
        <pt x="1118" y="1419" on="1"/>
        <pt x="1105" y="1387" on="0"/>
        <pt x="1085" y="1305" on="0"/>
        <pt x="1070" y="1215" on="0"/>
        <pt x="1060" y="1120" on="0"/>
        <pt x="1057" y="1076" on="1"/>
        <pt x="1049" y="971" on="0"/>
        <pt x="1047" y="860" on="1"/>
        <pt x="1047" y="811" on="0"/>
        <pt x="1049" y="708" on="0"/>
        <pt x="1049" y="655" on="1"/>
        <pt x="1049" y="571" on="0"/>
        <pt x="1037" y="401" on="0"/>
        <pt x="997" y="245" on="0"/>
        <pt x="919" y="109" on="0"/>
        <pt x="786" y="9" on="0"/>
        <pt x="591" y="-49" on="0"/>
        <pt x="453" y="-49" on="1"/>
        <pt x="348" y="-49" on="0"/>
        <pt x="195" y="2" on="0"/>
        <pt x="96" y="89" on="0"/>
        <pt x="49" y="204" on="0"/>
        <pt x="49" y="268" on="1"/>
        <pt x="49" y="316" on="0"/>
        <pt x="89" y="400" on="0"/>
        <pt x="156" y="461" on="0"/>
        <pt x="243" y="496" on="0"/>
        <pt x="289" y="496" on="1"/>
        <pt x="348" y="496" on="0"/>
        <pt x="458" y="434" on="0"/>
        <pt x="500" y="365" on="1"/>
        <pt x="489" y="367" on="0"/>
        <pt x="468" y="369" on="0"/>
        <pt x="459" y="369" on="1"/>
        <pt x="387" y="369" on="0"/>
        <pt x="387" y="307" on="1"/>
        <pt x="387" y="278" on="0"/>
        <pt x="440" y="242" on="0"/>
        <pt x="485" y="242" on="1"/>
        <pt x="540" y="242" on="0"/>
        <pt x="607" y="300" on="0"/>
        <pt x="643" y="388" on="0"/>
        <pt x="655" y="493" on="0"/>
        <pt x="655" y="541" on="1"/>
        <pt x="655" y="584" on="1"/>
        <pt x="636" y="564" on="0"/>
        <pt x="584" y="541" on="0"/>
        <pt x="530" y="528" on="0"/>
        <pt x="480" y="524" on="0"/>
        <pt x="463" y="524" on="1"/>
        <pt x="403" y="524" on="0"/>
        <pt x="282" y="556" on="0"/>
        <pt x="183" y="644" on="0"/>
        <pt x="119" y="801" on="0"/>
        <pt x="115" y="926" on="1"/>
        <pt x="115" y="931" on="0"/>
        <pt x="114" y="998" on="0"/>
        <pt x="107" y="1097" on="0"/>
        <pt x="92" y="1215" on="0"/>
        <pt x="65" y="1329" on="0"/>
        <pt x="24" y="1426" on="0"/>
        <pt x="-6" y="1454" on="1"/>
        <pt x="100" y="1436" on="0"/>
        <pt x="267" y="1421" on="0"/>
        <pt x="330" y="1421" on="1"/>
        <pt x="379" y="1421" on="0"/>
        <pt x="452" y="1426" on="0"/>
        <pt x="476" y="1430" on="1"/>
        <pt x="504" y="1434" on="0"/>
        <pt x="524" y="1440" on="1"/>
        <pt x="519" y="1399" on="0"/>
        <pt x="508" y="1308" on="0"/>
        <pt x="499" y="1215" on="0"/>
        <pt x="494" y="1121" on="0"/>
        <pt x="494" y="1077" on="1"/>
        <pt x="494" y="1027" on="0"/>
        <pt x="502" y="940" on="0"/>
        <pt x="521" y="875" on="0"/>
        <pt x="552" y="838" on="0"/>
        <pt x="575" y="838" on="1"/>
        <pt x="603" y="838" on="0"/>
        <pt x="642" y="899" on="0"/>
        <pt x="666" y="998" on="0"/>
        <pt x="676" y="1122" on="0"/>
        <pt x="676" y="1184" on="1"/>
        <pt x="676" y="1256" on="0"/>
        <pt x="665" y="1387" on="0"/>
        <pt x="657" y="1427" on="1"/>
        <pt x="675" y="1420" on="0"/>
        <pt x="704" y="1416" on="1"/>
        <pt x="729" y="1411" on="0"/>
        <pt x="810" y="1405" on="0"/>
        <pt x="870" y="1405" on="1"/>
        <pt x="918" y="1405" on="0"/>
        <pt x="1041" y="1411" on="0"/>
      </contour>
    </TTGlyph>
    <TTGlyph name="Yacute" xMin="-6" yMin="-49" xMax="1118" yMax="1986">
      <component glyphName="Y" x="0" y="0" flags="0x204"/>
      <component glyphName="acute" x="483" y="217" flags="0x4"/>
    </TTGlyph>
    <TTGlyph name="Ycircumflex" xMin="-6" yMin="-49" xMax="1118" yMax="1929">
      <component glyphName="Y" x="0" y="0" flags="0x204"/>
      <component glyphName="circumflex" x="270" y="162" flags="0x4"/>
    </TTGlyph>
    <TTGlyph name="Ydieresis" xMin="-6" yMin="-49" xMax="1118" yMax="1839">
      <component glyphName="Y" x="0" y="0" flags="0x204"/>
      <component glyphName="dieresis" x="195" y="182" flags="0x4"/>
    </TTGlyph>
    <TTGlyph name="Ygrave" xMin="-6" yMin="-49" xMax="1118" yMax="1986">
      <component glyphName="Y" x="0" y="0" flags="0x204"/>
      <component glyphName="grave" x="162" y="217" flags="0x4"/>
    </TTGlyph>
    <TTGlyph name="Z" xMin="2" yMin="-20" xMax="1079" yMax="1460">
      <contour>
        <pt x="1079" y="1460" on="1"/>
        <pt x="1063" y="1401" on="0"/>
        <pt x="993" y="1240" on="0"/>
        <pt x="902" y="1049" on="0"/>
        <pt x="798" y="837" on="0"/>
        <pt x="698" y="620" on="0"/>
        <pt x="611" y="404" on="0"/>
        <pt x="582" y="305" on="1"/>
        <pt x="645" y="318" on="0"/>
        <pt x="769" y="352" on="0"/>
        <pt x="888" y="400" on="0"/>
        <pt x="1002" y="468" on="0"/>
        <pt x="1055" y="516" on="1"/>
        <pt x="1049" y="463" on="0"/>
        <pt x="1042" y="360" on="0"/>
        <pt x="1042" y="309" on="1"/>
        <pt x="1042" y="226" on="0"/>
        <pt x="1059" y="61" on="0"/>
        <pt x="1077" y="-20" on="1"/>
        <pt x="952" y="-2" on="0"/>
        <pt x="684" y="16" on="0"/>
        <pt x="547" y="16" on="1"/>
        <pt x="407" y="16" on="0"/>
        <pt x="132" y="-2" on="0"/>
        <pt x="2" y="-20" on="1"/>
        <pt x="128" y="288" on="0"/>
        <pt x="405" y="847" on="0"/>
        <pt x="559" y="1102" on="1"/>
        <pt x="434" y="1096" on="0"/>
        <pt x="177" y="1016" on="0"/>
        <pt x="55" y="948" on="1"/>
        <pt x="63" y="1004" on="0"/>
        <pt x="72" y="1111" on="0"/>
        <pt x="72" y="1163" on="1"/>
        <pt x="72" y="1236" on="0"/>
        <pt x="55" y="1377" on="0"/>
        <pt x="35" y="1446" on="1"/>
        <pt x="143" y="1434" on="0"/>
        <pt x="373" y="1421" on="0"/>
        <pt x="492" y="1421" on="1"/>
        <pt x="643" y="1421" on="0"/>
        <pt x="940" y="1442" on="0"/>
      </contour>
    </TTGlyph>
    <TTGlyph name="Zacute" xMin="2" yMin="-20" xMax="1079" yMax="1982">
      <component glyphName="Z" x="0" y="0" flags="0x204"/>
      <component glyphName="acute" x="459" y="213" flags="0x4"/>
    </TTGlyph>
    <TTGlyph name="Zcaron" xMin="2" yMin="-20" xMax="1079" yMax="1925">
      <component glyphName="Z" x="0" y="0" flags="0x204"/>
      <component glyphName="caron" x="199" y="158" flags="0x4"/>
    </TTGlyph>
    <TTGlyph name="Zdotaccent" xMin="2" yMin="-20" xMax="1079" yMax="1813">
      <component glyphName="Z" x="0" y="0" flags="0x204"/>
      <component glyphName="dotaccent" x="387" y="156" flags="0x4"/>
    </TTGlyph>
    <TTGlyph name="a" xMin="43" yMin="-55" xMax="1077" yMax="1147">
      <contour>
        <pt x="1077" y="-14" on="1"/>
        <pt x="1058" y="-12" on="0"/>
        <pt x="1033" y="-10" on="1"/>
        <pt x="1012" y="-8" on="0"/>
        <pt x="953" y="-6" on="0"/>
        <pt x="918" y="-6" on="1"/>
        <pt x="868" y="-6" on="0"/>
        <pt x="749" y="-14" on="0"/>
        <pt x="686" y="-25" on="1"/>
        <pt x="690" y="256" on="1"/>
        <pt x="652" y="107" on="0"/>
        <pt x="505" y="-55" on="0"/>
        <pt x="406" y="-55" on="1"/>
        <pt x="375" y="-55" on="0"/>
        <pt x="297" y="-39" on="0"/>
        <pt x="216" y="6" on="0"/>
        <pt x="139" y="86" on="0"/>
        <pt x="79" y="213" on="0"/>
        <pt x="43" y="394" on="0"/>
        <pt x="43" y="518" on="1"/>
        <pt x="43" y="686" on="0"/>
        <pt x="111" y="925" on="0"/>
        <pt x="217" y="1077" on="0"/>
        <pt x="345" y="1147" on="0"/>
        <pt x="406" y="1147" on="1"/>
        <pt x="458" y="1147" on="0"/>
        <pt x="543" y="1118" on="0"/>
        <pt x="609" y="1073" on="0"/>
        <pt x="657" y="1017" on="0"/>
        <pt x="672" y="989" on="1"/>
        <pt x="669" y="1023" on="0"/>
        <pt x="657" y="1100" on="0"/>
        <pt x="649" y="1141" on="1"/>
        <pt x="714" y="1128" on="0"/>
        <pt x="848" y="1120" on="0"/>
        <pt x="905" y="1120" on="1"/>
        <pt x="973" y="1120" on="0"/>
        <pt x="1015" y="1123" on="1"/>
        <pt x="1039" y="1124" on="0"/>
        <pt x="1059" y="1126" on="1"/>
        <pt x="1048" y="1076" on="0"/>
        <pt x="1030" y="952" on="0"/>
        <pt x="1017" y="811" on="0"/>
        <pt x="1010" y="656" on="0"/>
        <pt x="1010" y="575" on="1"/>
        <pt x="1010" y="424" on="0"/>
        <pt x="1040" y="120" on="0"/>
      </contour>
      <contour>
        <pt x="666" y="559" on="1"/>
        <pt x="666" y="721" on="1"/>
        <pt x="666" y="748" on="0"/>
        <pt x="660" y="804" on="0"/>
        <pt x="639" y="850" on="0"/>
        <pt x="599" y="879" on="0"/>
        <pt x="565" y="879" on="1"/>
        <pt x="529" y="879" on="0"/>
        <pt x="482" y="829" on="0"/>
        <pt x="453" y="742" on="0"/>
        <pt x="442" y="623" on="0"/>
        <pt x="442" y="553" on="1"/>
        <pt x="442" y="513" on="0"/>
        <pt x="453" y="431" on="0"/>
        <pt x="479" y="364" on="0"/>
        <pt x="523" y="322" on="0"/>
        <pt x="555" y="322" on="1"/>
        <pt x="591" y="322" on="0"/>
        <pt x="635" y="372" on="0"/>
        <pt x="658" y="446" on="0"/>
        <pt x="666" y="527" on="0"/>
      </contour>
    </TTGlyph>
    <TTGlyph name="aacute" xMin="43" yMin="-55" xMax="1077" yMax="1711">
      <component glyphName="a" x="0" y="0" flags="0x204"/>
      <component glyphName="acute" x="406" y="-58" flags="0x4"/>
    </TTGlyph>
    <TTGlyph name="abreve" xMin="43" yMin="-55" xMax="1077" yMax="1621">
      <component glyphName="a" x="0" y="0" flags="0x204"/>
      <component glyphName="breve" x="244" y="-110" flags="0x4"/>
    </TTGlyph>
    <TTGlyph name="acircumflex" xMin="43" yMin="-55" xMax="1077" yMax="1649">
      <component glyphName="a" x="0" y="0" flags="0x204"/>
      <component glyphName="circumflex" x="217" y="-118" flags="0x4"/>
    </TTGlyph>
    <TTGlyph name="acute" xMin="0" yMin="1257" xMax="530" yMax="1769">
      <contour>
        <pt x="199" y="1257" on="1"/>
        <pt x="0" y="1346" on="1"/>
        <pt x="61" y="1434" on="0"/>
        <pt x="114" y="1515" on="1"/>
        <pt x="136" y="1549" on="0"/>
        <pt x="183" y="1621" on="0"/>
        <pt x="224" y="1688" on="0"/>
        <pt x="258" y="1748" on="0"/>
        <pt x="268" y="1769" on="1"/>
        <pt x="299" y="1746" on="0"/>
        <pt x="388" y="1692" on="0"/>
        <pt x="430" y="1669" on="1"/>
        <pt x="478" y="1642" on="0"/>
        <pt x="530" y="1614" on="1"/>
      </contour>
    </TTGlyph>
    <TTGlyph name="adieresis" xMin="43" yMin="-55" xMax="1077" yMax="1537">
      <component glyphName="a" x="0" y="0" flags="0x204"/>
      <component glyphName="dieresis" x="195" y="-120" flags="0x4"/>
    </TTGlyph>
    <TTGlyph name="ae" xMin="43" yMin="-78" xMax="1712" yMax="1180">
      <contour>
        <pt x="1704" y="930" on="1"/>
        <pt x="1704" y="855" on="0"/>
        <pt x="1661" y="713" on="0"/>
        <pt x="1553" y="603" on="0"/>
        <pt x="1370" y="537" on="0"/>
        <pt x="1229" y="537" on="1"/>
        <pt x="1232" y="488" on="0"/>
        <pt x="1266" y="422" on="0"/>
        <pt x="1312" y="382" on="0"/>
        <pt x="1364" y="362" on="0"/>
        <pt x="1408" y="354" on="0"/>
        <pt x="1437" y="354" on="0"/>
        <pt x="1438" y="354" on="1"/>
        <pt x="1499" y="361" on="0"/>
        <pt x="1548" y="386" on="1"/>
        <pt x="1569" y="396" on="0"/>
        <pt x="1610" y="427" on="0"/>
        <pt x="1642" y="470" on="0"/>
        <pt x="1663" y="525" on="0"/>
        <pt x="1665" y="561" on="1"/>
        <pt x="1691" y="496" on="0"/>
        <pt x="1712" y="383" on="0"/>
        <pt x="1712" y="334" on="1"/>
        <pt x="1712" y="244" on="0"/>
        <pt x="1648" y="93" on="0"/>
        <pt x="1534" y="-17" on="0"/>
        <pt x="1377" y="-78" on="0"/>
        <pt x="1284" y="-78" on="1"/>
        <pt x="1207" y="-78" on="0"/>
        <pt x="1058" y="-31" on="0"/>
        <pt x="995" y="20" on="1"/>
        <pt x="1000" y="-3" on="0"/>
        <pt x="1010" y="-47" on="0"/>
        <pt x="1016" y="-70" on="1"/>
        <pt x="979" y="-59" on="0"/>
        <pt x="930" y="-49" on="1"/>
        <pt x="888" y="-41" on="0"/>
        <pt x="765" y="-27" on="0"/>
        <pt x="686" y="-25" on="1"/>
        <pt x="684" y="276" on="1"/>
        <pt x="670" y="199" on="0"/>
        <pt x="617" y="76" on="0"/>
        <pt x="544" y="-10" on="0"/>
        <pt x="455" y="-55" on="0"/>
        <pt x="406" y="-55" on="1"/>
        <pt x="375" y="-55" on="0"/>
        <pt x="297" y="-39" on="0"/>
        <pt x="216" y="6" on="0"/>
        <pt x="139" y="86" on="0"/>
        <pt x="79" y="213" on="0"/>
        <pt x="43" y="394" on="0"/>
        <pt x="43" y="518" on="1"/>
        <pt x="43" y="686" on="0"/>
        <pt x="111" y="925" on="0"/>
        <pt x="217" y="1077" on="0"/>
        <pt x="345" y="1147" on="0"/>
        <pt x="406" y="1147" on="1"/>
        <pt x="458" y="1147" on="0"/>
        <pt x="543" y="1118" on="0"/>
        <pt x="609" y="1073" on="0"/>
        <pt x="657" y="1017" on="0"/>
        <pt x="672" y="989" on="1"/>
        <pt x="669" y="1023" on="0"/>
        <pt x="657" y="1100" on="0"/>
        <pt x="649" y="1141" on="1"/>
        <pt x="714" y="1128" on="0"/>
        <pt x="848" y="1120" on="0"/>
        <pt x="905" y="1120" on="1"/>
        <pt x="973" y="1120" on="0"/>
        <pt x="1015" y="1123" on="1"/>
        <pt x="1039" y="1124" on="0"/>
        <pt x="1059" y="1126" on="1"/>
        <pt x="1054" y="1108" on="0"/>
        <pt x="1047" y="1065" on="0"/>
        <pt x="1042" y="1042" on="1"/>
        <pt x="1118" y="1111" on="0"/>
        <pt x="1307" y="1180" on="0"/>
        <pt x="1409" y="1180" on="1"/>
        <pt x="1467" y="1180" on="0"/>
        <pt x="1574" y="1154" on="0"/>
        <pt x="1656" y="1094" on="0"/>
        <pt x="1704" y="999" on="0"/>
      </contour>
      <contour>
        <pt x="666" y="559" on="1"/>
        <pt x="666" y="721" on="1"/>
        <pt x="666" y="748" on="0"/>
        <pt x="660" y="804" on="0"/>
        <pt x="639" y="850" on="0"/>
        <pt x="599" y="879" on="0"/>
        <pt x="565" y="879" on="1"/>
        <pt x="541" y="879" on="0"/>
        <pt x="507" y="841" on="0"/>
        <pt x="485" y="781" on="0"/>
        <pt x="471" y="707" on="0"/>
        <pt x="465" y="634" on="0"/>
        <pt x="463" y="571" on="0"/>
        <pt x="463" y="553" on="1"/>
        <pt x="463" y="526" on="0"/>
        <pt x="468" y="447" on="0"/>
        <pt x="486" y="374" on="0"/>
        <pt x="523" y="322" on="0"/>
        <pt x="555" y="322" on="1"/>
        <pt x="591" y="322" on="0"/>
        <pt x="635" y="372" on="0"/>
        <pt x="658" y="446" on="0"/>
        <pt x="666" y="527" on="0"/>
      </contour>
      <contour>
        <pt x="1391" y="768" on="1"/>
        <pt x="1438" y="814" on="0"/>
        <pt x="1438" y="854" on="1"/>
        <pt x="1438" y="877" on="0"/>
        <pt x="1405" y="905" on="0"/>
        <pt x="1380" y="905" on="1"/>
        <pt x="1363" y="905" on="0"/>
        <pt x="1325" y="889" on="0"/>
        <pt x="1305" y="872" on="1"/>
        <pt x="1283" y="852" on="0"/>
        <pt x="1266" y="826" on="1"/>
        <pt x="1251" y="803" on="0"/>
        <pt x="1227" y="740" on="0"/>
        <pt x="1225" y="702" on="1"/>
        <pt x="1262" y="703" on="0"/>
        <pt x="1323" y="724" on="0"/>
        <pt x="1345" y="736" on="1"/>
        <pt x="1371" y="750" on="0"/>
      </contour>
    </TTGlyph>
    <TTGlyph name="aeacute" xMin="43" yMin="-78" xMax="1712" yMax="1690">
      <component glyphName="ae" x="0" y="0" flags="0x204"/>
      <component glyphName="acute" x="760" y="-79" flags="0x4"/>
    </TTGlyph>
    <TTGlyph name="agrave" xMin="43" yMin="-55" xMax="1077" yMax="1721">
      <component glyphName="a" x="0" y="0" flags="0x204"/>
      <component glyphName="grave" x="141" y="-48" flags="0x4"/>
    </TTGlyph>
    <TTGlyph name="amacron" xMin="43" yMin="-55" xMax="1077" yMax="1445">
      <component glyphName="a" x="0" y="0" flags="0x204"/>
      <component glyphName="macron" x="264" y="-116" flags="0x4"/>
    </TTGlyph>
    <TTGlyph name="ampersand" xMin="16" yMin="-55" xMax="1479" yMax="1438">
      <contour>
        <pt x="1108" y="295" on="1"/>
        <pt x="1120" y="263" on="0"/>
        <pt x="1167" y="212" on="0"/>
        <pt x="1227" y="177" on="0"/>
        <pt x="1298" y="158" on="0"/>
        <pt x="1335" y="158" on="1"/>
        <pt x="1372" y="158" on="0"/>
        <pt x="1447" y="180" on="0"/>
        <pt x="1479" y="203" on="1"/>
        <pt x="1445" y="130" on="0"/>
        <pt x="1396" y="74" on="1"/>
        <pt x="1375" y="50" on="0"/>
        <pt x="1322" y="3" on="0"/>
        <pt x="1257" y="-33" on="0"/>
        <pt x="1181" y="-55" on="0"/>
        <pt x="1137" y="-55" on="1"/>
        <pt x="1065" y="-55" on="0"/>
        <pt x="959" y="-24" on="0"/>
        <pt x="874" y="25" on="0"/>
        <pt x="804" y="84" on="0"/>
        <pt x="770" y="113" on="1"/>
        <pt x="752" y="85" on="0"/>
        <pt x="671" y="28" on="0"/>
        <pt x="561" y="-19" on="0"/>
        <pt x="432" y="-49" on="0"/>
        <pt x="367" y="-49" on="1"/>
        <pt x="302" y="-49" on="0"/>
        <pt x="176" y="-12" on="0"/>
        <pt x="77" y="76" on="0"/>
        <pt x="16" y="220" on="0"/>
        <pt x="16" y="328" on="1"/>
        <pt x="16" y="428" on="0"/>
        <pt x="86" y="580" on="0"/>
        <pt x="196" y="695" on="0"/>
        <pt x="330" y="775" on="0"/>
        <pt x="395" y="803" on="1"/>
        <pt x="383" y="848" on="0"/>
        <pt x="373" y="931" on="0"/>
        <pt x="373" y="969" on="1"/>
        <pt x="373" y="1080" on="0"/>
        <pt x="455" y="1255" on="0"/>
        <pt x="588" y="1375" on="0"/>
        <pt x="760" y="1438" on="0"/>
        <pt x="850" y="1438" on="1"/>
        <pt x="922" y="1438" on="0"/>
        <pt x="1056" y="1404" on="0"/>
        <pt x="1159" y="1328" on="0"/>
        <pt x="1221" y="1205" on="0"/>
        <pt x="1221" y="1116" on="1"/>
        <pt x="1221" y="1049" on="0"/>
        <pt x="1184" y="943" on="0"/>
        <pt x="1120" y="859" on="0"/>
        <pt x="1036" y="798" on="0"/>
        <pt x="944" y="756" on="0"/>
        <pt x="848" y="733" on="0"/>
        <pt x="805" y="729" on="1"/>
        <pt x="814" y="703" on="0"/>
        <pt x="849" y="627" on="0"/>
        <pt x="895" y="546" on="0"/>
        <pt x="950" y="470" on="0"/>
        <pt x="979" y="444" on="1"/>
        <pt x="990" y="455" on="0"/>
        <pt x="1008" y="501" on="0"/>
        <pt x="1033" y="559" on="0"/>
        <pt x="1068" y="620" on="0"/>
        <pt x="1123" y="670" on="0"/>
        <pt x="1201" y="702" on="0"/>
        <pt x="1257" y="702" on="1"/>
        <pt x="1293" y="702" on="0"/>
        <pt x="1349" y="672" on="0"/>
        <pt x="1392" y="624" on="0"/>
        <pt x="1422" y="563" on="0"/>
        <pt x="1433" y="531" on="1"/>
        <pt x="1458" y="455" on="0"/>
        <pt x="1464" y="360" on="1"/>
        <pt x="1448" y="385" on="0"/>
        <pt x="1426" y="404" on="1"/>
        <pt x="1407" y="421" on="0"/>
        <pt x="1352" y="449" on="0"/>
        <pt x="1317" y="449" on="1"/>
        <pt x="1291" y="449" on="0"/>
        <pt x="1240" y="433" on="0"/>
        <pt x="1188" y="397" on="0"/>
        <pt x="1136" y="338" on="0"/>
      </contour>
      <contour>
        <pt x="817" y="1225" on="1"/>
        <pt x="789" y="1225" on="0"/>
        <pt x="754" y="1133" on="0"/>
        <pt x="754" y="1047" on="1"/>
        <pt x="754" y="1011" on="0"/>
        <pt x="760" y="929" on="0"/>
        <pt x="768" y="881" on="1"/>
        <pt x="797" y="888" on="0"/>
        <pt x="839" y="929" on="0"/>
        <pt x="865" y="983" on="0"/>
        <pt x="877" y="1047" on="0"/>
        <pt x="877" y="1079" on="1"/>
        <pt x="877" y="1108" on="0"/>
        <pt x="868" y="1161" on="0"/>
        <pt x="852" y="1201" on="0"/>
        <pt x="830" y="1225" on="0"/>
      </contour>
      <contour>
        <pt x="457" y="596" on="1"/>
        <pt x="437" y="554" on="0"/>
        <pt x="416" y="468" on="0"/>
        <pt x="416" y="428" on="1"/>
        <pt x="416" y="391" on="0"/>
        <pt x="434" y="327" on="0"/>
        <pt x="470" y="279" on="0"/>
        <pt x="525" y="252" on="0"/>
        <pt x="563" y="252" on="1"/>
        <pt x="577" y="252" on="0"/>
        <pt x="610" y="257" on="0"/>
        <pt x="627" y="262" on="1"/>
        <pt x="585" y="311" on="0"/>
        <pt x="529" y="403" on="0"/>
        <pt x="492" y="487" on="0"/>
        <pt x="468" y="563" on="0"/>
      </contour>
    </TTGlyph>
    <TTGlyph name="aogonek" xMin="43" yMin="-391" xMax="1128" yMax="1147">
      <contour>
        <pt x="1128" y="-295" on="1"/>
        <pt x="1107" y="-297" on="0"/>
        <pt x="1055" y="-327" on="0"/>
        <pt x="994" y="-362" on="0"/>
        <pt x="925" y="-391" on="0"/>
        <pt x="887" y="-391" on="1"/>
        <pt x="850" y="-391" on="0"/>
        <pt x="788" y="-362" on="0"/>
        <pt x="744" y="-312" on="0"/>
        <pt x="719" y="-247" on="0"/>
        <pt x="719" y="-211" on="1"/>
        <pt x="719" y="-192" on="0"/>
        <pt x="734" y="-143" on="0"/>
        <pt x="760" y="-89" on="0"/>
        <pt x="792" y="-34" on="0"/>
        <pt x="809" y="-8" on="1"/>
        <pt x="780" y="-11" on="0"/>
        <pt x="717" y="-18" on="0"/>
        <pt x="686" y="-25" on="1"/>
        <pt x="690" y="256" on="1"/>
        <pt x="652" y="107" on="0"/>
        <pt x="505" y="-55" on="0"/>
        <pt x="406" y="-55" on="1"/>
        <pt x="375" y="-55" on="0"/>
        <pt x="297" y="-39" on="0"/>
        <pt x="216" y="6" on="0"/>
        <pt x="139" y="86" on="0"/>
        <pt x="79" y="213" on="0"/>
        <pt x="43" y="394" on="0"/>
        <pt x="43" y="518" on="1"/>
        <pt x="43" y="686" on="0"/>
        <pt x="111" y="925" on="0"/>
        <pt x="217" y="1077" on="0"/>
        <pt x="345" y="1147" on="0"/>
        <pt x="406" y="1147" on="1"/>
        <pt x="458" y="1147" on="0"/>
        <pt x="543" y="1118" on="0"/>
        <pt x="609" y="1073" on="0"/>
        <pt x="657" y="1017" on="0"/>
        <pt x="672" y="989" on="1"/>
        <pt x="669" y="1023" on="0"/>
        <pt x="657" y="1100" on="0"/>
        <pt x="649" y="1141" on="1"/>
        <pt x="714" y="1128" on="0"/>
        <pt x="848" y="1120" on="0"/>
        <pt x="905" y="1120" on="1"/>
        <pt x="973" y="1120" on="0"/>
        <pt x="1015" y="1123" on="1"/>
        <pt x="1039" y="1124" on="0"/>
        <pt x="1059" y="1126" on="1"/>
        <pt x="1048" y="1076" on="0"/>
        <pt x="1030" y="952" on="0"/>
        <pt x="1017" y="811" on="0"/>
        <pt x="1010" y="656" on="0"/>
        <pt x="1010" y="575" on="1"/>
        <pt x="1010" y="424" on="0"/>
        <pt x="1040" y="120" on="0"/>
        <pt x="1077" y="-14" on="1"/>
        <pt x="1059" y="-12" on="0"/>
        <pt x="1037" y="-10" on="1"/>
        <pt x="1017" y="-8" on="0"/>
        <pt x="964" y="-6" on="0"/>
        <pt x="932" y="-6" on="1"/>
        <pt x="919" y="-29" on="0"/>
        <pt x="894" y="-77" on="0"/>
        <pt x="874" y="-123" on="0"/>
        <pt x="862" y="-163" on="0"/>
        <pt x="862" y="-176" on="1"/>
        <pt x="862" y="-198" on="0"/>
        <pt x="889" y="-219" on="0"/>
        <pt x="909" y="-219" on="1"/>
        <pt x="927" y="-219" on="0"/>
        <pt x="956" y="-199" on="0"/>
        <pt x="979" y="-170" on="0"/>
        <pt x="996" y="-137" on="0"/>
        <pt x="1001" y="-123" on="1"/>
        <pt x="1010" y="-146" on="0"/>
        <pt x="1036" y="-195" on="0"/>
        <pt x="1069" y="-241" on="0"/>
        <pt x="1107" y="-281" on="0"/>
      </contour>
      <contour>
        <pt x="666" y="721" on="1"/>
        <pt x="666" y="748" on="0"/>
        <pt x="660" y="804" on="0"/>
        <pt x="639" y="850" on="0"/>
        <pt x="599" y="879" on="0"/>
        <pt x="565" y="879" on="1"/>
        <pt x="529" y="879" on="0"/>
        <pt x="482" y="829" on="0"/>
        <pt x="453" y="742" on="0"/>
        <pt x="442" y="623" on="0"/>
        <pt x="442" y="553" on="1"/>
        <pt x="442" y="513" on="0"/>
        <pt x="453" y="431" on="0"/>
        <pt x="479" y="364" on="0"/>
        <pt x="523" y="322" on="0"/>
        <pt x="555" y="322" on="1"/>
        <pt x="591" y="322" on="0"/>
        <pt x="635" y="372" on="0"/>
        <pt x="658" y="446" on="0"/>
        <pt x="666" y="527" on="0"/>
        <pt x="666" y="559" on="1"/>
      </contour>
    </TTGlyph>
    <TTGlyph name="approxequal" xMin="37" yMin="238" xMax="1044" yMax="1237">
      <contour>
        <pt x="1044" y="1001" on="1"/>
        <pt x="1009" y="960" on="0"/>
        <pt x="944" y="889" on="0"/>
        <pt x="872" y="838" on="0"/>
        <pt x="786" y="809" on="0"/>
        <pt x="731" y="809" on="1"/>
        <pt x="685" y="809" on="0"/>
        <pt x="613" y="841" on="0"/>
        <pt x="556" y="880" on="0"/>
        <pt x="509" y="913" on="0"/>
        <pt x="487" y="913" on="1"/>
        <pt x="445" y="913" on="0"/>
        <pt x="392" y="882" on="0"/>
        <pt x="358" y="831" on="0"/>
        <pt x="338" y="764" on="0"/>
        <pt x="330" y="729" on="1"/>
        <pt x="312" y="768" on="0"/>
        <pt x="244" y="842" on="0"/>
        <pt x="162" y="907" on="0"/>
        <pt x="74" y="958" on="0"/>
        <pt x="37" y="975" on="1"/>
        <pt x="80" y="1020" on="0"/>
        <pt x="158" y="1097" on="0"/>
        <pt x="240" y="1154" on="0"/>
        <pt x="333" y="1186" on="0"/>
        <pt x="391" y="1186" on="1"/>
        <pt x="433" y="1186" on="0"/>
        <pt x="501" y="1153" on="0"/>
        <pt x="562" y="1114" on="0"/>
        <pt x="618" y="1081" on="0"/>
        <pt x="647" y="1081" on="1"/>
        <pt x="677" y="1081" on="0"/>
        <pt x="726" y="1110" on="0"/>
        <pt x="762" y="1155" on="0"/>
        <pt x="786" y="1211" on="0"/>
        <pt x="791" y="1237" on="1"/>
        <pt x="812" y="1210" on="0"/>
        <pt x="873" y="1141" on="0"/>
        <pt x="941" y="1074" on="0"/>
        <pt x="1012" y="1016" on="0"/>
      </contour>
      <contour>
        <pt x="1044" y="510" on="1"/>
        <pt x="1009" y="468" on="0"/>
        <pt x="944" y="398" on="0"/>
        <pt x="872" y="346" on="0"/>
        <pt x="786" y="317" on="0"/>
        <pt x="731" y="317" on="1"/>
        <pt x="685" y="317" on="0"/>
        <pt x="613" y="350" on="0"/>
        <pt x="556" y="389" on="0"/>
        <pt x="509" y="422" on="0"/>
        <pt x="487" y="422" on="1"/>
        <pt x="445" y="422" on="0"/>
        <pt x="392" y="391" on="0"/>
        <pt x="358" y="340" on="0"/>
        <pt x="338" y="273" on="0"/>
        <pt x="330" y="238" on="1"/>
        <pt x="312" y="277" on="0"/>
        <pt x="244" y="351" on="0"/>
        <pt x="162" y="415" on="0"/>
        <pt x="74" y="466" on="0"/>
        <pt x="37" y="483" on="1"/>
        <pt x="80" y="528" on="0"/>
        <pt x="158" y="605" on="0"/>
        <pt x="240" y="662" on="0"/>
        <pt x="333" y="694" on="0"/>
        <pt x="391" y="694" on="1"/>
        <pt x="433" y="694" on="0"/>
        <pt x="501" y="661" on="0"/>
        <pt x="562" y="622" on="0"/>
        <pt x="618" y="590" on="0"/>
        <pt x="647" y="590" on="1"/>
        <pt x="677" y="590" on="0"/>
        <pt x="726" y="619" on="0"/>
        <pt x="762" y="664" on="0"/>
        <pt x="786" y="719" on="0"/>
        <pt x="791" y="745" on="1"/>
        <pt x="812" y="718" on="0"/>
        <pt x="873" y="650" on="0"/>
        <pt x="941" y="583" on="0"/>
        <pt x="1012" y="525" on="0"/>
      </contour>
    </TTGlyph>
    <TTGlyph name="aring" xMin="43" yMin="-55" xMax="1077" yMax="1704">
      <component glyphName="a" x="0" y="0" flags="0x204"/>
      <component glyphName="ring" x="317" y="74" flags="0x4"/>
    </TTGlyph>
    <TTGlyph name="asciicircum" xMin="0" yMin="711" xMax="766" yMax="1440">
      <contour>
        <pt x="766" y="817" on="1"/>
        <pt x="730" y="806" on="0"/>
        <pt x="643" y="783" on="0"/>
        <pt x="553" y="758" on="0"/>
        <pt x="469" y="729" on="0"/>
        <pt x="436" y="711" on="1"/>
        <pt x="438" y="726" on="0"/>
        <pt x="440" y="757" on="0"/>
        <pt x="440" y="772" on="1"/>
        <pt x="440" y="787" on="0"/>
        <pt x="434" y="842" on="0"/>
        <pt x="424" y="909" on="0"/>
        <pt x="411" y="985" on="0"/>
        <pt x="404" y="1023" on="1"/>
        <pt x="388" y="1111" on="0"/>
        <pt x="369" y="1212" on="1"/>
        <pt x="368" y="1212" on="0"/>
        <pt x="358" y="1150" on="0"/>
        <pt x="343" y="1054" on="0"/>
        <pt x="326" y="937" on="0"/>
        <pt x="311" y="825" on="0"/>
        <pt x="301" y="734" on="0"/>
        <pt x="301" y="711" on="1"/>
        <pt x="269" y="726" on="0"/>
        <pt x="192" y="754" on="0"/>
        <pt x="112" y="779" on="0"/>
        <pt x="33" y="803" on="0"/>
        <pt x="0" y="813" on="1"/>
        <pt x="16" y="829" on="0"/>
        <pt x="52" y="899" on="0"/>
        <pt x="88" y="994" on="0"/>
        <pt x="122" y="1103" on="0"/>
        <pt x="138" y="1158" on="1"/>
        <pt x="175" y="1286" on="0"/>
        <pt x="211" y="1440" on="1"/>
        <pt x="227" y="1438" on="0"/>
        <pt x="272" y="1436" on="0"/>
        <pt x="320" y="1433" on="0"/>
        <pt x="366" y="1432" on="0"/>
        <pt x="383" y="1432" on="1"/>
        <pt x="396" y="1432" on="0"/>
        <pt x="436" y="1433" on="0"/>
        <pt x="479" y="1435" on="0"/>
        <pt x="519" y="1438" on="0"/>
        <pt x="532" y="1440" on="1"/>
        <pt x="572" y="1286" on="0"/>
        <pt x="612" y="1158" on="1"/>
        <pt x="629" y="1103" on="0"/>
        <pt x="668" y="994" on="0"/>
        <pt x="708" y="901" on="0"/>
        <pt x="748" y="832" on="0"/>
      </contour>
    </TTGlyph>
    <TTGlyph name="asciitilde" xMin="-2" yMin="463" xMax="1006" yMax="971">
      <contour>
        <pt x="1006" y="735" on="1"/>
        <pt x="970" y="694" on="0"/>
        <pt x="905" y="623" on="0"/>
        <pt x="833" y="572" on="0"/>
        <pt x="747" y="543" on="0"/>
        <pt x="692" y="543" on="1"/>
        <pt x="646" y="543" on="0"/>
        <pt x="574" y="575" on="0"/>
        <pt x="517" y="614" on="0"/>
        <pt x="470" y="647" on="0"/>
        <pt x="449" y="647" on="1"/>
        <pt x="407" y="647" on="0"/>
        <pt x="353" y="616" on="0"/>
        <pt x="319" y="565" on="0"/>
        <pt x="299" y="498" on="0"/>
        <pt x="291" y="463" on="1"/>
        <pt x="273" y="502" on="0"/>
        <pt x="205" y="576" on="0"/>
        <pt x="123" y="640" on="0"/>
        <pt x="35" y="692" on="0"/>
        <pt x="-2" y="709" on="1"/>
        <pt x="41" y="753" on="0"/>
        <pt x="119" y="830" on="0"/>
        <pt x="201" y="887" on="0"/>
        <pt x="294" y="920" on="0"/>
        <pt x="352" y="920" on="1"/>
        <pt x="394" y="920" on="0"/>
        <pt x="462" y="887" on="0"/>
        <pt x="523" y="848" on="0"/>
        <pt x="579" y="815" on="0"/>
        <pt x="608" y="815" on="1"/>
        <pt x="638" y="815" on="0"/>
        <pt x="687" y="844" on="0"/>
        <pt x="723" y="889" on="0"/>
        <pt x="747" y="945" on="0"/>
        <pt x="752" y="971" on="1"/>
        <pt x="773" y="944" on="0"/>
        <pt x="834" y="875" on="0"/>
        <pt x="902" y="808" on="0"/>
        <pt x="974" y="750" on="0"/>
      </contour>
    </TTGlyph>
    <TTGlyph name="asterisk" xMin="35" yMin="645" xMax="868" yMax="1454">
      <contour>
        <pt x="868" y="1096" on="1"/>
        <pt x="799" y="1094" on="0"/>
        <pt x="658" y="1070" on="0"/>
        <pt x="590" y="1055" on="1"/>
        <pt x="646" y="1020" on="0"/>
        <pt x="761" y="957" on="0"/>
        <pt x="821" y="928" on="1"/>
        <pt x="641" y="645" on="1"/>
        <pt x="626" y="679" on="0"/>
        <pt x="584" y="764" on="0"/>
        <pt x="535" y="848" on="0"/>
        <pt x="479" y="924" on="0"/>
        <pt x="451" y="950" on="1"/>
        <pt x="424" y="924" on="0"/>
        <pt x="378" y="849" on="0"/>
        <pt x="342" y="765" on="0"/>
        <pt x="316" y="680" on="0"/>
        <pt x="309" y="645" on="1"/>
        <pt x="100" y="866" on="1"/>
        <pt x="147" y="903" on="0"/>
        <pt x="234" y="986" on="0"/>
        <pt x="272" y="1032" on="1"/>
        <pt x="214" y="1038" on="0"/>
        <pt x="95" y="1047" on="0"/>
        <pt x="35" y="1049" on="1"/>
        <pt x="154" y="1378" on="1"/>
        <pt x="188" y="1327" on="0"/>
        <pt x="286" y="1231" on="0"/>
        <pt x="336" y="1196" on="1"/>
        <pt x="330" y="1255" on="0"/>
        <pt x="303" y="1372" on="0"/>
        <pt x="285" y="1427" on="1"/>
        <pt x="600" y="1454" on="1"/>
        <pt x="572" y="1394" on="0"/>
        <pt x="540" y="1253" on="0"/>
        <pt x="532" y="1188" on="1"/>
        <pt x="591" y="1226" on="0"/>
        <pt x="696" y="1324" on="0"/>
        <pt x="739" y="1378" on="1"/>
      </contour>
    </TTGlyph>
    <TTGlyph name="at" xMin="49" yMin="-80" xMax="1608" yMax="1204">
      <contour>
        <pt x="911" y="295" on="1"/>
        <pt x="901" y="239" on="0"/>
        <pt x="858" y="164" on="0"/>
        <pt x="801" y="118" on="0"/>
        <pt x="736" y="98" on="0"/>
        <pt x="705" y="98" on="1"/>
        <pt x="685" y="98" on="0"/>
        <pt x="636" y="108" on="0"/>
        <pt x="585" y="137" on="0"/>
        <pt x="536" y="187" on="0"/>
        <pt x="498" y="268" on="0"/>
        <pt x="475" y="384" on="0"/>
        <pt x="475" y="463" on="1"/>
        <pt x="475" y="570" on="0"/>
        <pt x="518" y="721" on="0"/>
        <pt x="585" y="817" on="0"/>
        <pt x="666" y="862" on="0"/>
        <pt x="705" y="862" on="1"/>
        <pt x="738" y="862" on="0"/>
        <pt x="792" y="843" on="0"/>
        <pt x="834" y="814" on="0"/>
        <pt x="864" y="779" on="0"/>
        <pt x="874" y="762" on="1"/>
        <pt x="872" y="784" on="0"/>
        <pt x="865" y="833" on="0"/>
        <pt x="860" y="858" on="1"/>
        <pt x="902" y="849" on="0"/>
        <pt x="986" y="844" on="0"/>
        <pt x="1024" y="844" on="1"/>
        <pt x="1044" y="844" on="0"/>
        <pt x="1079" y="845" on="0"/>
        <pt x="1093" y="846" on="1"/>
        <pt x="1109" y="847" on="0"/>
        <pt x="1122" y="848" on="1"/>
        <pt x="1107" y="785" on="0"/>
        <pt x="1090" y="603" on="0"/>
        <pt x="1090" y="500" on="1"/>
        <pt x="1090" y="452" on="0"/>
        <pt x="1101" y="365" on="0"/>
        <pt x="1126" y="299" on="0"/>
        <pt x="1168" y="260" on="0"/>
        <pt x="1200" y="260" on="1"/>
        <pt x="1216" y="260" on="0"/>
        <pt x="1254" y="272" on="0"/>
        <pt x="1286" y="317" on="0"/>
        <pt x="1307" y="404" on="0"/>
        <pt x="1307" y="479" on="1"/>
        <pt x="1307" y="597" on="0"/>
        <pt x="1244" y="804" on="0"/>
        <pt x="1127" y="958" on="0"/>
        <pt x="958" y="1047" on="0"/>
        <pt x="852" y="1047" on="1"/>
        <pt x="746" y="1047" on="0"/>
        <pt x="560" y="958" on="0"/>
        <pt x="422" y="805" on="0"/>
        <pt x="342" y="599" on="0"/>
        <pt x="342" y="481" on="1"/>
        <pt x="342" y="400" on="0"/>
        <pt x="375" y="241" on="0"/>
        <pt x="458" y="99" on="0"/>
        <pt x="601" y="-18" on="0"/>
        <pt x="711" y="-57" on="1"/>
        <pt x="641" y="-80" on="0"/>
        <pt x="488" y="-74" on="0"/>
        <pt x="341" y="-22" on="0"/>
        <pt x="208" y="73" on="0"/>
        <pt x="108" y="207" on="0"/>
        <pt x="49" y="378" on="0"/>
        <pt x="49" y="479" on="1"/>
        <pt x="49" y="611" on="0"/>
        <pt x="111" y="821" on="0"/>
        <pt x="221" y="982" on="0"/>
        <pt x="373" y="1097" on="0"/>
        <pt x="550" y="1170" on="0"/>
        <pt x="747" y="1204" on="0"/>
        <pt x="848" y="1204" on="1"/>
        <pt x="949" y="1204" on="0"/>
        <pt x="1141" y="1171" on="0"/>
        <pt x="1309" y="1100" on="0"/>
        <pt x="1450" y="990" on="0"/>
        <pt x="1552" y="837" on="0"/>
        <pt x="1608" y="639" on="0"/>
        <pt x="1608" y="516" on="1"/>
        <pt x="1608" y="417" on="0"/>
        <pt x="1567" y="274" on="0"/>
        <pt x="1501" y="174" on="0"/>
        <pt x="1415" y="112" on="0"/>
        <pt x="1324" y="78" on="0"/>
        <pt x="1236" y="66" on="0"/>
        <pt x="1200" y="66" on="1"/>
        <pt x="1127" y="66" on="0"/>
        <pt x="1023" y="106" on="0"/>
        <pt x="954" y="171" on="0"/>
        <pt x="917" y="253" on="0"/>
      </contour>
      <contour>
        <pt x="870" y="489" on="1"/>
        <pt x="870" y="590" on="1"/>
        <pt x="870" y="608" on="0"/>
        <pt x="866" y="643" on="0"/>
        <pt x="852" y="672" on="0"/>
        <pt x="828" y="690" on="0"/>
        <pt x="807" y="690" on="1"/>
        <pt x="784" y="690" on="0"/>
        <pt x="757" y="639" on="0"/>
        <pt x="744" y="571" on="0"/>
        <pt x="741" y="501" on="0"/>
        <pt x="741" y="483" on="1"/>
        <pt x="741" y="466" on="0"/>
        <pt x="744" y="416" on="0"/>
        <pt x="756" y="369" on="0"/>
        <pt x="780" y="336" on="0"/>
        <pt x="801" y="336" on="1"/>
        <pt x="823" y="336" on="0"/>
        <pt x="850" y="368" on="0"/>
        <pt x="865" y="415" on="0"/>
        <pt x="870" y="468" on="0"/>
      </contour>
    </TTGlyph>
    <TTGlyph name="atilde" xMin="43" yMin="-55" xMax="1077" yMax="1578">
      <component glyphName="a" x="0" y="0" flags="0x204"/>
      <component glyphName="tilde" x="182" y="-77" flags="0x4"/>
    </TTGlyph>
    <TTGlyph name="b" xMin="29" yMin="-49" xMax="1059" yMax="1542">
      <contour>
        <pt x="29" y="-14" on="1"/>
        <pt x="47" y="53" on="0"/>
        <pt x="73" y="230" on="0"/>
        <pt x="89" y="433" on="0"/>
        <pt x="96" y="653" on="0"/>
        <pt x="96" y="764" on="1"/>
        <pt x="96" y="884" on="0"/>
        <pt x="88" y="1115" on="0"/>
        <pt x="75" y="1317" on="0"/>
        <pt x="57" y="1478" on="0"/>
        <pt x="47" y="1528" on="1"/>
        <pt x="65" y="1525" on="0"/>
        <pt x="89" y="1523" on="1"/>
        <pt x="109" y="1521" on="0"/>
        <pt x="166" y="1518" on="0"/>
        <pt x="203" y="1518" on="1"/>
        <pt x="258" y="1518" on="0"/>
        <pt x="397" y="1528" on="0"/>
        <pt x="477" y="1542" on="1"/>
        <pt x="468" y="1523" on="0"/>
        <pt x="453" y="1450" on="0"/>
        <pt x="441" y="1354" on="0"/>
        <pt x="433" y="1242" on="0"/>
        <pt x="427" y="1129" on="0"/>
        <pt x="423" y="1020" on="0"/>
        <pt x="422" y="975" on="1"/>
        <pt x="463" y="1064" on="0"/>
        <pt x="600" y="1165" on="0"/>
        <pt x="705" y="1165" on="1"/>
        <pt x="728" y="1165" on="0"/>
        <pt x="799" y="1147" on="0"/>
        <pt x="878" y="1099" on="0"/>
        <pt x="957" y="1016" on="0"/>
        <pt x="1020" y="887" on="0"/>
        <pt x="1059" y="706" on="0"/>
        <pt x="1059" y="584" on="1"/>
        <pt x="1059" y="404" on="0"/>
        <pt x="987" y="161" on="0"/>
        <pt x="876" y="14" on="0"/>
        <pt x="741" y="-49" on="0"/>
        <pt x="678" y="-49" on="1"/>
        <pt x="632" y="-49" on="0"/>
        <pt x="548" y="3" on="0"/>
        <pt x="480" y="85" on="0"/>
        <pt x="429" y="189" on="0"/>
        <pt x="416" y="242" on="1"/>
        <pt x="419" y="221" on="0"/>
        <pt x="430" y="140" on="0"/>
        <pt x="442" y="55" on="0"/>
        <pt x="455" y="-15" on="0"/>
        <pt x="461" y="-25" on="1"/>
        <pt x="398" y="-14" on="0"/>
        <pt x="269" y="-6" on="0"/>
        <pt x="213" y="-6" on="1"/>
        <pt x="172" y="-6" on="0"/>
        <pt x="106" y="-8" on="0"/>
        <pt x="81" y="-10" on="1"/>
        <pt x="52" y="-12" on="0"/>
      </contour>
      <contour>
        <pt x="436" y="563" on="1"/>
        <pt x="436" y="504" on="1"/>
        <pt x="436" y="477" on="0"/>
        <pt x="442" y="421" on="0"/>
        <pt x="463" y="375" on="0"/>
        <pt x="503" y="346" on="0"/>
        <pt x="537" y="346" on="1"/>
        <pt x="561" y="346" on="0"/>
        <pt x="595" y="375" on="0"/>
        <pt x="617" y="421" on="0"/>
        <pt x="631" y="480" on="0"/>
        <pt x="637" y="538" on="0"/>
        <pt x="639" y="592" on="0"/>
        <pt x="639" y="610" on="1"/>
        <pt x="639" y="637" on="0"/>
        <pt x="634" y="729" on="0"/>
        <pt x="616" y="818" on="0"/>
        <pt x="579" y="883" on="0"/>
        <pt x="547" y="883" on="1"/>
        <pt x="523" y="883" on="0"/>
        <pt x="488" y="847" on="0"/>
        <pt x="463" y="790" on="0"/>
        <pt x="448" y="719" on="0"/>
        <pt x="439" y="648" on="0"/>
        <pt x="436" y="584" on="0"/>
      </contour>
    </TTGlyph>
    <TTGlyph name="backslash" xMin="25" yMin="-14" xMax="942" yMax="1438">
      <contour>
        <pt x="25" y="1438" on="1"/>
        <pt x="49" y="1436" on="0"/>
        <pt x="108" y="1431" on="0"/>
        <pt x="170" y="1427" on="0"/>
        <pt x="230" y="1425" on="0"/>
        <pt x="254" y="1425" on="1"/>
        <pt x="272" y="1425" on="0"/>
        <pt x="324" y="1426" on="0"/>
        <pt x="378" y="1429" on="0"/>
        <pt x="430" y="1434" on="0"/>
        <pt x="449" y="1438" on="1"/>
        <pt x="466" y="1334" on="0"/>
        <pt x="521" y="1091" on="0"/>
        <pt x="594" y="833" on="0"/>
        <pt x="683" y="569" on="0"/>
        <pt x="781" y="321" on="0"/>
        <pt x="887" y="97" on="0"/>
        <pt x="942" y="8" on="1"/>
        <pt x="866" y="8" on="1"/>
        <pt x="824" y="8" on="0"/>
        <pt x="729" y="6" on="0"/>
        <pt x="635" y="0" on="0"/>
        <pt x="548" y="-8" on="0"/>
        <pt x="514" y="-14" on="1"/>
        <pt x="437" y="368" on="0"/>
        <pt x="197" y="1088" on="0"/>
      </contour>
    </TTGlyph>
    <TTGlyph name="bar" xMin="45" yMin="-160" xMax="528" yMax="1686">
      <contour>
        <pt x="528" y="-139" on="1"/>
        <pt x="511" y="-138" on="0"/>
        <pt x="488" y="-136" on="1"/>
        <pt x="468" y="-135" on="0"/>
        <pt x="414" y="-133" on="0"/>
        <pt x="379" y="-133" on="1"/>
        <pt x="314" y="-133" on="0"/>
        <pt x="144" y="-144" on="0"/>
        <pt x="45" y="-160" on="1"/>
        <pt x="60" y="-132" on="0"/>
        <pt x="82" y="-21" on="0"/>
        <pt x="98" y="122" on="0"/>
        <pt x="109" y="288" on="0"/>
        <pt x="116" y="455" on="0"/>
        <pt x="119" y="613" on="0"/>
        <pt x="121" y="742" on="0"/>
        <pt x="121" y="830" on="0"/>
        <pt x="121" y="844" on="1"/>
        <pt x="119" y="1053" on="0"/>
        <pt x="112" y="1226" on="1"/>
        <pt x="109" y="1300" on="0"/>
        <pt x="101" y="1447" on="0"/>
        <pt x="89" y="1573" on="0"/>
        <pt x="73" y="1666" on="0"/>
        <pt x="63" y="1686" on="1"/>
        <pt x="144" y="1672" on="0"/>
        <pt x="282" y="1661" on="0"/>
        <pt x="338" y="1661" on="1"/>
        <pt x="374" y="1661" on="0"/>
        <pt x="432" y="1664" on="0"/>
        <pt x="452" y="1666" on="1"/>
        <pt x="476" y="1668" on="0"/>
        <pt x="494" y="1671" on="1"/>
        <pt x="485" y="1626" on="0"/>
        <pt x="469" y="1467" on="0"/>
        <pt x="459" y="1259" on="0"/>
        <pt x="453" y="1015" on="0"/>
        <pt x="453" y="885" on="1"/>
        <pt x="453" y="736" on="0"/>
        <pt x="461" y="435" on="0"/>
        <pt x="479" y="162" on="0"/>
        <pt x="507" y="-65" on="0"/>
      </contour>
    </TTGlyph>
    <TTGlyph name="braceleft" xMin="-39" yMin="-225" xMax="850" yMax="1603">
      <contour>
        <pt x="850" y="1602" on="1"/>
        <pt x="745" y="1567" on="0"/>
        <pt x="663" y="1515" on="1"/>
        <pt x="628" y="1492" on="0"/>
        <pt x="561" y="1436" on="0"/>
        <pt x="509" y="1367" on="0"/>
        <pt x="477" y="1285" on="0"/>
        <pt x="477" y="1237" on="1"/>
        <pt x="477" y="1205" on="0"/>
        <pt x="490" y="1141" on="0"/>
        <pt x="507" y="1076" on="0"/>
        <pt x="520" y="1009" on="0"/>
        <pt x="520" y="973" on="1"/>
        <pt x="520" y="932" on="0"/>
        <pt x="497" y="865" on="0"/>
        <pt x="445" y="804" on="0"/>
        <pt x="360" y="745" on="0"/>
        <pt x="299" y="711" on="1"/>
        <pt x="360" y="683" on="0"/>
        <pt x="442" y="625" on="0"/>
        <pt x="492" y="558" on="0"/>
        <pt x="512" y="481" on="0"/>
        <pt x="512" y="434" on="1"/>
        <pt x="512" y="406" on="0"/>
        <pt x="501" y="341" on="0"/>
        <pt x="488" y="267" on="0"/>
        <pt x="477" y="186" on="0"/>
        <pt x="477" y="143" on="1"/>
        <pt x="477" y="90" on="0"/>
        <pt x="506" y="2" on="0"/>
        <pt x="554" y="-69" on="0"/>
        <pt x="616" y="-126" on="0"/>
        <pt x="648" y="-147" on="1"/>
        <pt x="723" y="-197" on="0"/>
        <pt x="819" y="-225" on="1"/>
        <pt x="803" y="-225" on="0"/>
        <pt x="727" y="-222" on="0"/>
        <pt x="624" y="-209" on="0"/>
        <pt x="503" y="-184" on="0"/>
        <pt x="382" y="-140" on="0"/>
        <pt x="269" y="-73" on="0"/>
        <pt x="181" y="22" on="0"/>
        <pt x="129" y="148" on="0"/>
        <pt x="129" y="231" on="1"/>
        <pt x="129" y="273" on="0"/>
        <pt x="155" y="352" on="0"/>
        <pt x="187" y="427" on="0"/>
        <pt x="213" y="498" on="0"/>
        <pt x="213" y="530" on="1"/>
        <pt x="213" y="557" on="0"/>
        <pt x="190" y="607" on="0"/>
        <pt x="132" y="652" on="0"/>
        <pt x="35" y="693" on="0"/>
        <pt x="-39" y="711" on="1"/>
        <pt x="33" y="729" on="0"/>
        <pt x="128" y="766" on="0"/>
        <pt x="184" y="806" on="0"/>
        <pt x="207" y="849" on="0"/>
        <pt x="207" y="872" on="1"/>
        <pt x="207" y="900" on="0"/>
        <pt x="182" y="963" on="0"/>
        <pt x="152" y="1032" on="0"/>
        <pt x="127" y="1107" on="0"/>
        <pt x="127" y="1149" on="1"/>
        <pt x="127" y="1243" on="0"/>
        <pt x="209" y="1384" on="0"/>
        <pt x="340" y="1485" on="0"/>
        <pt x="502" y="1551" on="0"/>
        <pt x="663" y="1590" on="0"/>
        <pt x="805" y="1603" on="0"/>
      </contour>
    </TTGlyph>
    <TTGlyph name="braceright" xMin="-37" yMin="-225" xMax="852" yMax="1603">
      <contour>
        <pt x="-37" y="1602" on="1"/>
        <pt x="8" y="1603" on="0"/>
        <pt x="150" y="1590" on="0"/>
        <pt x="311" y="1551" on="0"/>
        <pt x="473" y="1485" on="0"/>
        <pt x="604" y="1384" on="0"/>
        <pt x="686" y="1243" on="0"/>
        <pt x="686" y="1149" on="1"/>
        <pt x="686" y="1107" on="0"/>
        <pt x="660" y="1032" on="0"/>
        <pt x="630" y="963" on="0"/>
        <pt x="604" y="900" on="0"/>
        <pt x="604" y="872" on="1"/>
        <pt x="604" y="849" on="0"/>
        <pt x="627" y="806" on="0"/>
        <pt x="684" y="766" on="0"/>
        <pt x="780" y="729" on="0"/>
        <pt x="852" y="711" on="1"/>
        <pt x="778" y="693" on="0"/>
        <pt x="681" y="652" on="0"/>
        <pt x="623" y="607" on="0"/>
        <pt x="600" y="557" on="0"/>
        <pt x="600" y="530" on="1"/>
        <pt x="600" y="498" on="0"/>
        <pt x="626" y="427" on="0"/>
        <pt x="656" y="352" on="0"/>
        <pt x="682" y="273" on="0"/>
        <pt x="682" y="231" on="1"/>
        <pt x="682" y="145" on="0"/>
        <pt x="621" y="12" on="0"/>
        <pt x="517" y="-89" on="0"/>
        <pt x="379" y="-159" on="0"/>
        <pt x="226" y="-203" on="0"/>
        <pt x="67" y="-224" on="0"/>
        <pt x="-6" y="-225" on="1"/>
        <pt x="89" y="-197" on="0"/>
        <pt x="165" y="-147" on="1"/>
        <pt x="197" y="-126" on="0"/>
        <pt x="258" y="-69" on="0"/>
        <pt x="306" y="2" on="0"/>
        <pt x="336" y="90" on="0"/>
        <pt x="336" y="143" on="1"/>
        <pt x="336" y="186" on="0"/>
        <pt x="325" y="267" on="0"/>
        <pt x="312" y="341" on="0"/>
        <pt x="301" y="406" on="0"/>
        <pt x="301" y="434" on="1"/>
        <pt x="301" y="481" on="0"/>
        <pt x="321" y="558" on="0"/>
        <pt x="371" y="625" on="0"/>
        <pt x="452" y="683" on="0"/>
        <pt x="514" y="711" on="1"/>
        <pt x="452" y="745" on="0"/>
        <pt x="366" y="804" on="0"/>
        <pt x="314" y="865" on="0"/>
        <pt x="291" y="932" on="0"/>
        <pt x="291" y="973" on="1"/>
        <pt x="291" y="1006" on="0"/>
        <pt x="304" y="1070" on="0"/>
        <pt x="321" y="1135" on="0"/>
        <pt x="334" y="1202" on="0"/>
        <pt x="334" y="1237" on="1"/>
        <pt x="334" y="1285" on="0"/>
        <pt x="302" y="1367" on="0"/>
        <pt x="250" y="1436" on="0"/>
        <pt x="183" y="1492" on="0"/>
        <pt x="148" y="1515" on="1"/>
        <pt x="66" y="1567" on="0"/>
      </contour>
    </TTGlyph>
    <TTGlyph name="bracketleft" xMin="70" yMin="-160" xMax="686" yMax="1700">
      <contour>
        <pt x="686" y="-160" on="1"/>
        <pt x="620" y="-160" on="0"/>
        <pt x="452" y="-159" on="0"/>
        <pt x="282" y="-157" on="0"/>
        <pt x="125" y="-154" on="0"/>
        <pt x="70" y="-152" on="1"/>
        <pt x="85" y="85" on="0"/>
        <pt x="96" y="552" on="0"/>
        <pt x="96" y="788" on="1"/>
        <pt x="96" y="1008" on="0"/>
        <pt x="87" y="1443" on="0"/>
        <pt x="70" y="1663" on="1"/>
        <pt x="125" y="1665" on="0"/>
        <pt x="282" y="1670" on="0"/>
        <pt x="449" y="1678" on="0"/>
        <pt x="606" y="1691" on="0"/>
        <pt x="662" y="1700" on="1"/>
        <pt x="686" y="1391" on="1"/>
        <pt x="666" y="1392" on="0"/>
        <pt x="613" y="1393" on="0"/>
        <pt x="552" y="1394" on="0"/>
        <pt x="486" y="1395" on="0"/>
        <pt x="455" y="1395" on="1"/>
        <pt x="447" y="1245" on="0"/>
        <pt x="440" y="950" on="0"/>
        <pt x="440" y="801" on="1"/>
        <pt x="440" y="626" on="0"/>
        <pt x="449" y="281" on="0"/>
        <pt x="457" y="106" on="1"/>
        <pt x="481" y="108" on="0"/>
        <pt x="543" y="115" on="0"/>
        <pt x="606" y="128" on="0"/>
        <pt x="665" y="146" on="0"/>
        <pt x="686" y="158" on="1"/>
      </contour>
    </TTGlyph>
    <TTGlyph name="bracketright" xMin="37" yMin="-160" xMax="653" yMax="1700">
      <contour>
        <pt x="37" y="158" on="1"/>
        <pt x="58" y="146" on="0"/>
        <pt x="117" y="128" on="0"/>
        <pt x="180" y="115" on="0"/>
        <pt x="242" y="108" on="0"/>
        <pt x="266" y="106" on="1"/>
        <pt x="274" y="281" on="0"/>
        <pt x="283" y="626" on="0"/>
        <pt x="283" y="801" on="1"/>
        <pt x="283" y="950" on="0"/>
        <pt x="276" y="1245" on="0"/>
        <pt x="268" y="1395" on="1"/>
        <pt x="236" y="1395" on="0"/>
        <pt x="171" y="1394" on="0"/>
        <pt x="110" y="1393" on="0"/>
        <pt x="57" y="1392" on="0"/>
        <pt x="37" y="1391" on="1"/>
        <pt x="61" y="1700" on="1"/>
        <pt x="98" y="1694" on="0"/>
        <pt x="194" y="1684" on="0"/>
        <pt x="301" y="1677" on="0"/>
        <pt x="414" y="1672" on="0"/>
        <pt x="521" y="1668" on="0"/>
        <pt x="616" y="1664" on="0"/>
        <pt x="653" y="1663" on="1"/>
        <pt x="636" y="1443" on="0"/>
        <pt x="627" y="1008" on="0"/>
        <pt x="627" y="788" on="1"/>
        <pt x="627" y="552" on="0"/>
        <pt x="638" y="85" on="0"/>
        <pt x="653" y="-152" on="1"/>
        <pt x="598" y="-154" on="0"/>
        <pt x="441" y="-157" on="0"/>
        <pt x="271" y="-159" on="0"/>
        <pt x="103" y="-160" on="0"/>
        <pt x="37" y="-160" on="1"/>
      </contour>
    </TTGlyph>
    <TTGlyph name="breve" xMin="0" yMin="1327" xMax="629" yMax="1731">
      <contour>
        <pt x="629" y="1688" on="1"/>
        <pt x="607" y="1669" on="0"/>
        <pt x="582" y="1601" on="0"/>
        <pt x="558" y="1521" on="0"/>
        <pt x="526" y="1437" on="0"/>
        <pt x="471" y="1370" on="0"/>
        <pt x="383" y="1327" on="0"/>
        <pt x="315" y="1327" on="1"/>
        <pt x="246" y="1327" on="0"/>
        <pt x="158" y="1366" on="0"/>
        <pt x="102" y="1428" on="0"/>
        <pt x="70" y="1504" on="0"/>
        <pt x="46" y="1581" on="0"/>
        <pt x="21" y="1649" on="0"/>
        <pt x="0" y="1671" on="1"/>
        <pt x="32" y="1671" on="0"/>
        <pt x="105" y="1682" on="0"/>
        <pt x="178" y="1700" on="0"/>
        <pt x="249" y="1721" on="0"/>
        <pt x="279" y="1731" on="1"/>
        <pt x="275" y="1711" on="0"/>
        <pt x="272" y="1669" on="0"/>
        <pt x="272" y="1649" on="1"/>
        <pt x="272" y="1636" on="0"/>
        <pt x="277" y="1595" on="0"/>
        <pt x="290" y="1556" on="0"/>
        <pt x="314" y="1528" on="0"/>
        <pt x="332" y="1528" on="1"/>
        <pt x="347" y="1528" on="0"/>
        <pt x="367" y="1549" on="0"/>
        <pt x="379" y="1579" on="0"/>
        <pt x="383" y="1611" on="0"/>
        <pt x="383" y="1622" on="1"/>
        <pt x="383" y="1650" on="0"/>
        <pt x="375" y="1705" on="0"/>
        <pt x="369" y="1731" on="1"/>
        <pt x="421" y="1712" on="0"/>
        <pt x="547" y="1688" on="0"/>
        <pt x="606" y="1688" on="1"/>
      </contour>
    </TTGlyph>
    <TTGlyph name="brokenbar" xMin="61" yMin="-137" xMax="526" yMax="1651">
      <contour>
        <pt x="502" y="1651" on="1"/>
        <pt x="479" y="1464" on="0"/>
        <pt x="459" y="1092" on="0"/>
        <pt x="459" y="903" on="1"/>
        <pt x="117" y="903" on="1"/>
        <pt x="111" y="1092" on="0"/>
        <pt x="100" y="1464" on="0"/>
        <pt x="82" y="1651" on="1"/>
        <pt x="100" y="1649" on="0"/>
        <pt x="150" y="1648" on="0"/>
        <pt x="204" y="1647" on="0"/>
        <pt x="256" y="1647" on="0"/>
        <pt x="274" y="1647" on="1"/>
        <pt x="297" y="1647" on="0"/>
        <pt x="356" y="1648" on="0"/>
        <pt x="418" y="1649" on="0"/>
        <pt x="478" y="1650" on="0"/>
      </contour>
      <contour>
        <pt x="526" y="-127" on="1"/>
        <pt x="503" y="-127" on="0"/>
        <pt x="457" y="-125" on="0"/>
        <pt x="432" y="-125" on="1"/>
        <pt x="401" y="-125" on="0"/>
        <pt x="301" y="-127" on="0"/>
        <pt x="193" y="-130" on="0"/>
        <pt x="92" y="-134" on="0"/>
        <pt x="61" y="-137" on="1"/>
        <pt x="73" y="-70" on="0"/>
        <pt x="92" y="88" on="0"/>
        <pt x="106" y="250" on="0"/>
        <pt x="115" y="408" on="0"/>
        <pt x="121" y="546" on="0"/>
        <pt x="123" y="655" on="0"/>
        <pt x="123" y="686" on="1"/>
        <pt x="465" y="686" on="1"/>
        <pt x="473" y="481" on="0"/>
        <pt x="505" y="75" on="0"/>
      </contour>
    </TTGlyph>
</ttFont>
